<svg width="29" height="30" viewBox="0 0 29 30" fill="none" xmlns="http://www.w3.org/2000/svg">
<path d="M6.29331 0.0625C2.85719 0.0625 0.0625 3.12738 0.0625 6.89556V18.6807C0.0625 22.2344 2.68187 24.8125 6.29331 24.8125H14.7908C15.3361 26.1314 16.2598 27.2592 17.4455 28.0535C18.6311 28.8479 20.0255 29.2732 21.4527 29.2757C25.4333 29.2757 28.6714 26.0376 28.6714 22.057C28.6714 19.2953 27.0936 16.9193 24.8084 15.7045V6.89556C24.8104 3.31919 21.6033 0.0625 18.0805 0.0625H6.29331ZM6.29331 2.125H18.0805C20.4813 2.125 22.75 4.44119 22.75 6.89556V14.9682C22.3237 14.8862 21.8909 14.8427 21.4568 14.8382C19.9346 14.8429 18.4535 15.3327 17.2287 16.2366C15.7309 15.3689 14.0381 14.8936 12.3076 14.8547C13.6412 14.8162 14.9075 14.2601 15.8384 13.3042C16.7692 12.3484 17.2915 11.0678 17.2947 9.73356C17.2925 8.37109 16.7503 7.06504 15.7869 6.10162C14.8235 5.1382 13.5174 4.59599 12.1549 4.59381C10.7934 4.59545 9.48807 5.13705 8.52531 6.09981C7.56255 7.06257 7.02095 8.36789 7.01931 9.72944C7.02208 11.0557 7.53783 12.3295 8.45858 13.2841C9.37933 14.2387 10.6337 14.8 11.959 14.8506C10.0058 14.8692 8.09826 15.444 6.45996 16.5077C4.82167 17.5714 3.52043 19.08 2.70869 20.8566C2.31898 20.1983 2.11711 19.4457 2.125 18.6807V6.89556C2.125 4.6 3.71725 2.125 6.29331 2.125ZM12.1549 6.65631C13.8503 6.65631 15.2322 8.03406 15.2322 9.72944C15.2322 11.4248 13.8503 12.8087 12.1549 12.8087C10.4596 12.8087 9.08181 11.4269 9.08181 9.7315C9.08181 8.03613 10.4596 6.65837 12.1549 6.65837V6.65631ZM12.091 16.9007C13.3574 16.9007 14.5866 17.1895 15.7086 17.734C14.7577 18.975 14.2397 20.4935 14.2339 22.057C14.2339 22.2942 14.2834 22.519 14.3061 22.75H6.29331C5.56525 22.75 4.9135 22.5871 4.34012 22.3189C4.91821 20.7285 5.97257 19.3549 7.35956 18.3853C8.74655 17.4157 10.3987 16.8973 12.091 16.9007ZM21.4568 16.9007C24.2989 16.9007 26.6131 19.2128 26.6131 22.057C26.6131 24.8991 24.2989 27.2132 21.4568 27.2132C20.0898 27.2116 18.7792 26.6678 17.8126 25.7012C16.846 24.7346 16.3022 23.424 16.3006 22.057C16.3006 19.2149 18.6147 16.9007 21.4568 16.9007ZM20.3843 18.9632V21.0175H18.3259V23.08H20.3864V25.1343H22.4489V23.08H24.5031V21.0175H22.4489V18.9632H20.3864H20.3843Z" fill="url(#paint0_linear_227_756)"/>
<defs>
<linearGradient id="paint0_linear_227_756" x1="0.0625" y1="14.6691" x2="24.8125" y2="14.6691" gradientUnits="userSpaceOnUse">
<stop stop-color="#000092"/>
<stop offset="1" stop-color="#FF00F3"/>
</linearGradient>
</defs>
</svg>
