<svg width="16" height="16" viewBox="0 0 16 16" fill="none" xmlns="http://www.w3.org/2000/svg">
<path fill-rule="evenodd" clip-rule="evenodd" d="M3.29376 8.52503C6.44725 8.52503 6.58752 9.59453 6.58752 11.8188C6.58752 12.9332 6.58752 13.7261 6.11942 14.3065C5.58079 14.9754 4.60041 15.1125 3.29376 15.1125C1.98711 15.1125 1.00673 14.9754 0.468101 14.3065C0 13.7261 0 12.934 0 11.8382L0.581252 11.8188H0C0 9.59453 0.140276 8.52503 3.29376 8.52503ZM11.8188 8.52503C14.9723 8.52503 15.1125 9.59453 15.1125 11.8188C15.1125 12.9332 15.1125 13.7261 14.6444 14.3065C14.1058 14.9754 13.1254 15.1125 11.8188 15.1125C10.5121 15.1125 9.53176 14.9754 8.99313 14.3065C8.52503 13.7261 8.52503 12.934 8.52503 11.8382L9.10628 11.8188H8.52503C8.52503 9.59453 8.6653 8.52503 11.8188 8.52503ZM3.45354 9.68788L3.29376 9.68753C1.2718 9.68753 1.16811 9.83262 1.16279 11.5298L1.16312 12.1909C1.16679 12.8659 1.19251 13.3535 1.37253 13.578C1.57791 13.8322 2.18783 13.95 3.29376 13.95C4.39969 13.95 5.00962 13.8315 5.21499 13.5773C5.42502 13.3161 5.42502 12.6961 5.42502 11.8374C5.42502 9.89972 5.42502 9.697 3.45354 9.68788ZM11.9786 9.68788L11.8188 9.68753C9.79683 9.68753 9.69314 9.83262 9.68782 11.5298L9.68814 12.1909C9.69182 12.8659 9.71754 13.3535 9.89756 13.578C10.1029 13.8322 10.7129 13.95 11.8188 13.95C12.9247 13.95 13.5346 13.8315 13.74 13.5773C13.95 13.3161 13.95 12.6961 13.95 11.8374C13.95 9.89972 13.95 9.697 11.9786 9.68788ZM3.29376 0C6.44725 0 6.58752 1.0695 6.58752 3.29376C6.58752 4.40821 6.58752 5.20104 6.11942 5.78152C5.58079 6.45035 4.60041 6.58752 3.29376 6.58752C1.98711 6.58752 1.00673 6.45035 0.468101 5.78152C0 5.20104 0 4.40899 0 3.31314L0.581252 3.29376H0C0 1.0695 0.140276 0 3.29376 0ZM11.8188 0C14.9723 0 15.1125 1.0695 15.1125 3.29376C15.1125 4.40821 15.1125 5.20104 14.6444 5.78152C14.1058 6.45035 13.1254 6.58752 11.8188 6.58752C10.5121 6.58752 9.53176 6.45035 8.99313 5.78152C8.52503 5.20104 8.52503 4.40899 8.52503 3.31314L9.10628 3.29376H8.52503C8.52503 1.0695 8.6653 0 11.8188 0ZM3.45354 1.16285L3.29376 1.1625C1.2718 1.1625 1.16811 1.30759 1.16279 3.00472L1.16312 3.6659C1.16679 4.3409 1.19251 4.82849 1.37253 5.05302C1.57791 5.30722 2.18783 5.42502 3.29376 5.42502C4.39969 5.42502 5.00962 5.30644 5.21499 5.05224C5.42502 4.79107 5.42502 4.17106 5.42502 3.31236C5.42502 1.3747 5.42502 1.17197 3.45354 1.16285ZM11.9786 1.16285L11.8188 1.1625C9.79683 1.1625 9.69314 1.30759 9.68782 3.00472L9.68814 3.6659C9.69182 4.3409 9.71754 4.82849 9.89756 5.05302C10.1029 5.30722 10.7129 5.42502 11.8188 5.42502C12.9247 5.42502 13.5346 5.30644 13.74 5.05224C13.95 4.79107 13.95 4.17106 13.95 3.31236C13.95 1.3747 13.95 1.17197 11.9786 1.16285Z" fill="#006CEA"/>
</svg>
