<svg width="46" height="46" viewBox="0 0 61 66" fill="none" xmlns="http://www.w3.org/2000/svg">
<path fill-rule="evenodd" clip-rule="evenodd" d="M23.4242 27.6005C22.5206 27.6005 21.654 27.9594 21.0151 28.5983C20.3761 29.2373 20.0172 30.1038 20.0172 31.0074C20.0172 31.911 20.3761 32.7776 21.0151 33.4165C21.654 34.0554 22.5206 34.4144 23.4242 34.4144C24.3277 34.4144 25.1943 34.0554 25.8332 33.4165C26.4722 32.7776 26.8311 31.911 26.8311 31.0074C26.8311 30.1038 26.4722 29.2373 25.8332 28.5983C25.1943 27.9594 24.3277 27.6005 23.4242 27.6005ZM17.291 31.0074C17.291 29.3808 17.9372 27.8208 19.0874 26.6706C20.2376 25.5204 21.7975 24.8743 23.4242 24.8743C25.0508 24.8743 26.6108 25.5204 27.7609 26.6706C28.9111 27.8208 29.5573 29.3808 29.5573 31.0074C29.5573 32.634 28.9111 34.194 27.7609 35.3442C26.6108 36.4944 25.0508 37.1406 23.4242 37.1406C21.7975 37.1406 20.2376 36.4944 19.0874 35.3442C17.9372 34.194 17.291 32.634 17.291 31.0074Z" fill="#006CEA"/>
<path fill-rule="evenodd" clip-rule="evenodd" d="M23.4236 38.5042C19.1794 38.5042 15.9278 41.6557 15.9278 45.3182C15.9278 45.6797 15.7842 46.0264 15.5286 46.282C15.273 46.5376 14.9263 46.6813 14.5648 46.6813C14.2032 46.6813 13.8565 46.5376 13.6009 46.282C13.3453 46.0264 13.2017 45.6797 13.2017 45.3182C13.2017 39.9486 17.8833 35.7781 23.4236 35.7781C28.9638 35.7781 33.6455 39.9486 33.6455 45.3182C33.6455 45.4971 33.6102 45.6743 33.5418 45.8396C33.4733 46.0049 33.3729 46.1551 33.2464 46.2817C33.1199 46.4082 32.9696 46.5086 32.8043 46.577C32.639 46.6455 32.4618 46.6807 32.2829 46.6807C32.104 46.6807 31.9268 46.6455 31.7615 46.577C31.5961 46.5086 31.4459 46.4082 31.3194 46.2817C31.1929 46.1551 31.0925 46.0049 31.024 45.8396C30.9556 45.6743 30.9203 45.4971 30.9203 45.3182C30.9203 41.6557 27.6697 38.5042 23.4236 38.5042ZM38.4171 26.9187C38.4171 26.1664 39.0273 25.5562 39.7807 25.5562H51.3641C51.7256 25.5562 52.0723 25.6998 52.328 25.9554C52.5836 26.211 52.7272 26.5577 52.7272 26.9192C52.7272 27.2808 52.5836 27.6275 52.328 27.8831C52.0723 28.1387 51.7256 28.2823 51.3641 28.2823H39.7796C39.6005 28.2825 39.4232 28.2473 39.2577 28.1788C39.0922 28.1103 38.9418 28.0099 38.8151 27.8832C38.6885 27.7566 38.588 27.6062 38.5196 27.4407C38.4511 27.2752 38.4159 27.0978 38.416 26.9187H38.4171ZM38.4171 45.1822C38.4171 44.4289 39.0273 43.8186 39.7807 43.8186H51.3641C51.5431 43.8186 51.7204 43.8539 51.8858 43.9224C52.0511 43.9909 52.2014 44.0913 52.328 44.2179C52.4546 44.3444 52.555 44.4947 52.6235 44.6601C52.692 44.8254 52.7272 45.0027 52.7272 45.1817C52.7272 45.3607 52.692 45.538 52.6235 45.7033C52.555 45.8687 52.4546 46.019 52.328 46.1456C52.2014 46.2721 52.0511 46.3725 51.8858 46.441C51.7204 46.5095 51.5431 46.5448 51.3641 46.5448H39.7796C39.6005 46.5449 39.4232 46.5098 39.2577 46.4413C39.0922 46.3728 38.9418 46.2724 38.8151 46.1457C38.6885 46.0191 38.588 45.8687 38.5196 45.7032C38.4511 45.5377 38.4159 45.3603 38.416 45.1812L38.4171 45.1822ZM38.4171 36.051C38.4171 35.2986 39.0273 34.6884 39.7807 34.6884H51.3641C51.5431 34.6884 51.7202 34.7236 51.8856 34.7921C52.0509 34.8606 52.2011 34.961 52.3276 35.0875C52.4541 35.214 52.5545 35.3642 52.623 35.5295C52.6915 35.6949 52.7267 35.872 52.7267 36.051C52.7267 36.2299 52.6915 36.4071 52.623 36.5724C52.5545 36.7377 52.4541 36.8879 52.3276 37.0145C52.2011 37.141 52.0509 37.2414 51.8856 37.3098C51.7202 37.3783 51.5431 37.4136 51.3641 37.4136H39.7796C39.6006 37.4137 39.4233 37.3786 39.2579 37.3101C39.0925 37.2417 38.9421 37.1414 38.8155 37.0148C38.6889 36.8883 38.5884 36.738 38.5199 36.5727C38.4513 36.4073 38.416 36.23 38.416 36.051H38.4171Z" fill="#006CEA"/>
<path fill-rule="evenodd" clip-rule="evenodd" d="M28.8765 14.6522C28.8765 13.5678 29.3072 12.5278 30.074 11.761C30.8408 10.9943 31.8808 10.5635 32.9652 10.5635C34.0496 10.5635 35.0896 10.9943 35.8564 11.761C36.6232 12.5278 37.054 13.5678 37.054 14.6522V20.1036C37.054 21.188 36.6232 22.228 35.8564 22.9948C35.0896 23.7616 34.0496 24.1923 32.9652 24.1923C31.8808 24.1923 30.8408 23.7616 30.074 22.9948C29.3072 22.228 28.8765 21.188 28.8765 20.1036V14.6522ZM32.9652 13.2897C32.2129 13.2897 31.6026 13.8999 31.6026 14.6522V20.1036C31.6026 20.465 31.7462 20.8115 32.0017 21.0671C32.2573 21.3226 32.6038 21.4662 32.9652 21.4662C33.3266 21.4662 33.6732 21.3226 33.9287 21.0671C34.1843 20.8115 34.3278 20.465 34.3278 20.1036V14.6522C34.3278 13.8999 33.7176 13.2897 32.9652 13.2897Z" fill="#006CEA"/>
<path fill-rule="evenodd" clip-rule="evenodd" d="M28.876 17.3787H12.521C10.7136 17.3787 8.98016 18.0967 7.70211 19.3747C6.42406 20.6528 5.70605 22.3862 5.70605 24.1936V47.3626C5.70605 49.17 6.42406 50.9034 7.70211 52.1815C8.98016 53.4595 10.7136 54.1775 12.521 54.1775H53.4086C55.2161 54.1775 56.9495 53.4595 58.2275 52.1815C59.5056 50.9034 60.2236 49.17 60.2236 47.3626V24.1936C60.2236 22.3862 59.5056 20.6528 58.2275 19.3747C56.9495 18.0967 55.2161 17.3787 53.4086 17.3787H37.0536V18.7412C37.0536 19.3065 37.0536 19.7461 37.0352 20.1048H53.4086C54.493 20.1048 55.533 20.5356 56.2998 21.3024C57.0666 22.0692 57.4974 23.1092 57.4974 24.1936V47.3626C57.4974 48.447 57.0666 49.487 56.2998 50.2538C55.533 51.0206 54.493 51.4513 53.4086 51.4513H12.521C11.4366 51.4513 10.3966 51.0206 9.62981 50.2538C8.86302 49.487 8.43224 48.447 8.43224 47.3626V24.1936C8.43224 23.1092 8.86302 22.0692 9.62981 21.3024C10.3966 20.5356 11.4366 20.1048 12.521 20.1048H28.8944C28.876 19.7471 28.876 19.3075 28.876 18.7412V17.3787Z" fill="#006CEA"/>
</svg>
