<svg width="19" height="12" viewBox="0 0 19 12" fill="none" xmlns="http://www.w3.org/2000/svg">
<path d="M16.9766 0H1.12119C0.500445 0 0 0.500446 0 1.12119V10.0859C0 10.7066 0.500445 11.2071 1.12119 11.2071H16.9766C17.5974 11.2071 18.0978 10.7066 18.0978 10.0859V1.12119C18.0978 0.500446 17.5926 0 16.9766 0ZM16.7601 8.01194C16.6687 7.9975 16.5773 7.98788 16.481 7.98788C15.6052 7.98788 14.8931 8.70005 14.8931 9.57583C14.8931 9.67688 14.9027 9.77312 14.9219 9.86936H3.30583C3.31545 9.80681 3.32026 9.73944 3.32026 9.67207C3.32026 8.79629 2.60809 8.08412 1.73231 8.08412C1.59758 8.08412 1.46284 8.10337 1.33773 8.13224V3.26252C1.46284 3.2962 1.59276 3.31064 1.73231 3.31064C2.60809 3.31064 3.32026 2.59847 3.32026 1.72269C3.32026 1.58795 3.30101 1.45803 3.27214 1.33773H14.9219C14.9027 1.43397 14.8931 1.53021 14.8931 1.63126C14.8931 2.50704 15.6052 3.21921 16.481 3.21921C16.5773 3.21921 16.6687 3.20959 16.7601 3.19515V8.01194ZM14.9075 5.59152C14.9075 6.11602 14.484 6.53947 13.9595 6.53947C13.435 6.53947 13.0116 6.11602 13.0116 5.59152C13.0116 5.06701 13.435 4.64356 13.9595 4.64356C14.484 4.64356 14.9075 5.06701 14.9075 5.59152ZM4.97077 5.59152C4.97077 6.11602 4.54732 6.53947 4.02281 6.53947C3.49831 6.53947 3.07485 6.11602 3.07485 5.59152C3.07485 5.06701 3.49831 4.64356 4.02281 4.64356C4.54732 4.64356 4.97077 5.06701 4.97077 5.59152ZM8.99358 2.17501C7.10729 2.17501 5.57708 3.70522 5.57708 5.59152C5.57708 7.47781 7.10729 9.00802 8.99358 9.00802C10.8799 9.00802 12.4101 7.47781 12.4101 5.59152C12.4101 3.70522 10.8799 2.17501 8.99358 2.17501ZM8.99358 7.56924C7.90126 7.56924 7.01586 6.68383 7.01586 5.59152C7.01586 4.4992 7.90126 3.61379 8.99358 3.61379C10.0859 3.61379 10.9713 4.4992 10.9713 5.59152C10.9713 6.68383 10.0811 7.56924 8.99358 7.56924Z" fill="white"/>
</svg>
