<svg width="12" height="12" viewBox="0 0 12 12" fill="none" xmlns="http://www.w3.org/2000/svg">
<path d="M5.57143 2.14282H2.01587C1.74645 2.14282 1.48806 2.24985 1.29754 2.44036C1.10703 2.63088 1 2.88927 1 3.1587V10.2698C1 10.5392 1.10703 10.7976 1.29754 10.9881C1.48806 11.1787 1.74645 11.2857 2.01587 11.2857H9.12698C9.39641 11.2857 9.6548 11.1787 9.84532 10.9881C10.0358 10.7976 10.1429 10.5392 10.1429 10.2698V6.71425" stroke="#8B83BA" stroke-linecap="round" stroke-linejoin="round"/>
<path d="M9.52726 1.30171C9.72044 1.10853 9.98245 1 10.2556 1C10.5288 1 10.7908 1.10853 10.984 1.30171C11.1772 1.49488 11.2857 1.75689 11.2857 2.03009C11.2857 2.30328 11.1772 2.56529 10.984 2.75847L6.37094 7.37155L4.42859 7.85714L4.91418 5.91479L9.52726 1.30171Z" stroke="#8B83BA" stroke-linecap="round" stroke-linejoin="round"/>
</svg>
