<svg width="14" height="17" viewBox="0 0 14 17" fill="none" xmlns="http://www.w3.org/2000/svg">
<path fill-rule="evenodd" clip-rule="evenodd" d="M8.94036 0C8.97535 0 9.00965 0.00294598 9.04304 0.00860328L9.15454 0.00928733C9.32073 0.00928733 9.47959 0.0769056 9.59528 0.196663L13.7216 4.49572C13.8308 4.60896 13.892 4.7613 13.892 4.91854V12.3859C13.9066 14.4299 12.3147 16.1 10.2674 16.1831L3.73448 16.1839H3.64568C1.64977 16.1388 0.049013 14.5246 0.000245895 12.5481L0 3.65823C0.0472513 1.63701 1.71653 0.00928733 3.72308 0.00928733L8.83768 0.00860328C8.87106 0.00294598 8.90537 0 8.94036 0ZM8.32927 1.23098L3.72471 1.2313C2.37479 1.2313 1.25379 2.3246 1.22202 3.67289V12.3859C1.19187 13.7814 2.29169 14.9309 3.67338 14.9619H10.2429C11.6026 14.9057 12.6796 13.7757 12.6699 12.3908L12.6699 5.6889L11.0325 5.68971C9.54159 5.68564 8.32935 4.47014 8.32935 2.98091L8.32927 1.23098ZM8.78818 10.2715C9.12545 10.2715 9.39919 10.5453 9.39919 10.8826C9.39919 11.2198 9.12545 11.4936 8.78818 11.4936H4.38892C4.05164 11.4936 3.77791 11.2198 3.77791 10.8826C3.77791 10.5453 4.05164 10.2715 4.38892 10.2715H8.78818ZM7.12224 7.21487C7.45952 7.21487 7.73325 7.4886 7.73325 7.82588C7.73325 8.16315 7.45952 8.43689 7.12224 8.43689H4.38818C4.05091 8.43689 3.77717 8.16315 3.77717 7.82588C3.77717 7.4886 4.05091 7.21487 4.38818 7.21487H7.12224ZM9.55128 1.91612L9.55137 2.98091C9.55137 3.79884 10.217 4.46525 11.0341 4.46769L12.0002 4.46688L9.55128 1.91612Z" fill="#006CEA"/>
</svg>
