<svg width="22" height="21" viewBox="0 0 22 21" fill="none" xmlns="http://www.w3.org/2000/svg">
<path d="M20.8906 0.984375V14.9297C20.8909 15.1237 20.8529 15.3158 20.7788 15.4951C20.7046 15.6743 20.5959 15.8372 20.4587 15.9744C20.3216 16.1115 20.1587 16.2203 19.9794 16.2944C19.8002 16.3685 19.608 16.4065 19.4141 16.4062H7.76562V0.984375L9.07812 1.96875L10.3906 0.984375L11.7031 1.96875L13.0156 0.984375L14.3281 1.96875L15.6406 0.984375L16.9531 1.96875L18.2656 0.984375L19.5781 1.96875L20.8906 0.984375Z" fill="#FFB655"/>
<path d="M16.4609 5.57813C16.267 5.57787 16.0748 5.61588 15.8956 5.68999C15.7163 5.76411 15.5534 5.87286 15.4163 6.01002C15.2791 6.14719 15.1704 6.31006 15.0962 6.48933C15.0221 6.66859 14.9841 6.86071 14.9844 7.05469V20.0156H1.85938V7.21875C1.85938 6.78363 2.03223 6.36633 2.3399 6.05865C2.64758 5.75098 3.06488 5.57813 3.5 5.57813H16.4609Z" fill="#FFEB99"/>
<path d="M19.4141 16.4062H14.9844V7.05469C14.9844 6.66308 15.1399 6.28751 15.4169 6.0106C15.6938 5.73369 16.0693 5.57812 16.4609 5.57812C16.8525 5.57812 17.2281 5.73369 17.505 6.0106C17.7819 6.28751 17.9375 6.66308 17.9375 7.05469V14.9297C17.9381 15.3211 18.0939 15.6963 18.3706 15.9731C18.6474 16.2499 19.0226 16.4056 19.4141 16.4062Z" fill="#FF9811"/>
<path d="M16.625 5.59453C16.5707 5.58606 16.5159 5.58059 16.4609 5.57813C16.267 5.57787 16.0748 5.61588 15.8956 5.68999C15.7163 5.76411 15.5534 5.87286 15.4163 6.01002C15.2791 6.14719 15.1704 6.31006 15.0962 6.48933C15.0221 6.66859 14.9841 6.86071 14.9844 7.05469V16.4063H15.3125V7.05469C15.3127 6.69229 15.4468 6.34274 15.6891 6.07322C15.9313 5.8037 16.2647 5.63322 16.625 5.59453Z" fill="#BF720D"/>
<path d="M13.3438 11.4844H3.5V12.1406H13.3438V11.4844Z" fill="#1A6FB0"/>
<path d="M13.3438 13.4531H3.5V14.1094H13.3438V13.4531Z" fill="#1A6FB0"/>
<path d="M13.3438 15.4219H3.5V16.0781H13.3438V15.4219Z" fill="#1A6FB0"/>
<path d="M13.3438 17.3906H3.5V18.0469H13.3438V17.3906Z" fill="#1A6FB0"/>
<path d="M13.3438 7.54688H3.5V8.20312H13.3438V7.54688Z" fill="#1A6FB0"/>
<path d="M13.3438 9.51562H3.5V10.1719H13.3438V9.51562Z" fill="#1A6FB0"/>
</svg>
