<svg width="16" height="17" viewBox="0 0 16 17" fill="none" xmlns="http://www.w3.org/2000/svg">
<path d="M10.5924 12.4349C9.27339 13.46 7.61348 13.9436 5.95063 13.7873C4.28778 13.6309 2.74701 12.8463 1.64206 11.5932C0.537102 10.3402 -0.0489589 8.71284 0.00320592 7.04262C0.0553707 5.3724 0.741839 3.78486 1.92283 2.60326C3.10383 1.42166 4.69055 0.734842 6.35992 0.682651C8.02928 0.630459 9.65577 1.21682 10.9082 2.32234C12.1606 3.42786 12.9448 4.96942 13.1011 6.63312C13.2574 8.29682 12.774 9.95757 11.7494 11.2772L15.556 15.0715C15.8783 15.3927 15.8788 15.9145 15.5571 16.2363C15.2355 16.5581 14.7137 16.5579 14.3924 16.2357L10.6006 12.4349H10.5924ZM6.57132 12.1722C7.21791 12.1722 7.85817 12.0447 8.45555 11.7972C9.05292 11.5496 9.59571 11.1867 10.0529 10.7293C10.5101 10.2719 10.8728 9.72879 11.1202 9.13111C11.3677 8.53343 11.495 7.89284 11.495 7.24592C11.495 6.599 11.3677 5.95841 11.1202 5.36073C10.8728 4.76305 10.5101 4.21998 10.0529 3.76254C9.59571 3.3051 9.05292 2.94223 8.45555 2.69467C7.85817 2.4471 7.21791 2.31968 6.57132 2.31968C5.26547 2.31968 4.0131 2.83869 3.08973 3.76254C2.16635 4.68639 1.6476 5.9394 1.6476 7.24592C1.6476 8.55244 2.16635 9.80545 3.08973 10.7293C4.0131 11.6531 5.26547 12.1722 6.57132 12.1722Z" fill="#8B83BA"/>
</svg>
