<svg width="23" height="22" viewBox="0 0 23 22" fill="none" xmlns="http://www.w3.org/2000/svg">
<g clip-path="url(#clip0_227_741)">
<path d="M4.43044 0V19.1375C4.43044 21.7645 3.11776 21.9954 2.7793 22.0092H20.2558C20.7863 22.0092 21.2952 21.7968 21.6708 21.4186C22.0463 21.0403 22.2579 20.5271 22.2591 19.9916V0.013851L4.43044 0ZM8.60632 5.9744H18.3851C18.5671 5.9744 18.7416 6.04736 18.8702 6.17724C18.9989 6.30712 19.0712 6.48327 19.0712 6.66695C19.0712 6.85062 18.9989 7.02677 18.8702 7.15665C18.7416 7.28653 18.5671 7.3595 18.3851 7.3595H8.60632C8.42437 7.3595 8.24986 7.28653 8.1212 7.15665C7.99253 7.02677 7.92025 6.85062 7.92025 6.66695C7.92025 6.48327 7.99253 6.30712 8.1212 6.17724C8.24986 6.04736 8.42437 5.9744 8.60632 5.9744ZM14.8679 15.4439H7.83792C7.65597 15.4439 7.48146 15.3709 7.3528 15.241C7.22414 15.1111 7.15185 14.935 7.15185 14.7513C7.15185 14.5676 7.22414 14.3915 7.3528 14.2616C7.48146 14.1317 7.65597 14.0588 7.83792 14.0588H14.8679C15.0498 14.0588 15.2243 14.1317 15.353 14.2616C15.4817 14.3915 15.5539 14.5676 15.5539 14.7513C15.5539 14.935 15.4817 15.1111 15.353 15.241C15.2243 15.3709 15.0498 15.4439 14.8679 15.4439ZM14.8679 12.3551H7.83792C7.65597 12.3551 7.48146 12.2821 7.3528 12.1522C7.22414 12.0224 7.15185 11.8462 7.15185 11.6625C7.15185 11.4789 7.22414 11.3027 7.3528 11.1728C7.48146 11.043 7.65597 10.97 7.83792 10.97H14.8679C15.0498 10.97 15.2243 11.043 15.353 11.1728C15.4817 11.3027 15.5539 11.4789 15.5539 11.6625C15.5539 11.8462 15.4817 12.0224 15.353 12.1522C15.2243 12.2821 15.0498 12.3551 14.8679 12.3551ZM19.2541 15.4439H17.4704C17.2884 15.4439 17.1139 15.3709 16.9852 15.241C16.8566 15.1111 16.7843 14.935 16.7843 14.7513C16.7843 14.5676 16.8566 14.3915 16.9852 14.2616C17.1139 14.1317 17.2884 14.0588 17.4704 14.0588H19.2541C19.4361 14.0588 19.6106 14.1317 19.7393 14.2616C19.8679 14.3915 19.9402 14.5676 19.9402 14.7513C19.9402 14.935 19.8679 15.1111 19.7393 15.241C19.6106 15.3709 19.4361 15.4439 19.2541 15.4439ZM19.2541 12.3551H17.4704C17.2884 12.3551 17.1139 12.2821 16.9852 12.1522C16.8566 12.0224 16.7843 11.8462 16.7843 11.6625C16.7843 11.4789 16.8566 11.3027 16.9852 11.1728C17.1139 11.043 17.2884 10.97 17.4704 10.97H19.2541C19.4361 10.97 19.6106 11.043 19.7393 11.1728C19.8679 11.3027 19.9402 11.4789 19.9402 11.6625C19.9402 11.8462 19.8679 12.0224 19.7393 12.1522C19.6106 12.2821 19.4361 12.3551 19.2541 12.3551Z" fill="#4361EE"/>
<path d="M3.19553 13.0292V19.0313C3.19553 20.9797 2.22131 21.1505 1.97432 21.1597H1.51694C1.18093 21.1597 0.858677 21.025 0.621079 20.7852C0.383481 20.5453 0.25 20.22 0.25 19.8808V13.0107L3.19553 13.0292Z" fill="#4CC9F0"/>
</g>
<defs>
<clipPath id="clip0_227_741">
<rect width="22" height="22" fill="white" transform="translate(0.25)"/>
</clipPath>
</defs>
</svg>
