<svg width="28" height="28" viewBox="0 0 28 28" fill="none" xmlns="http://www.w3.org/2000/svg">
<path d="M21.625 27.5H3.625C3.16537 27.5 2.71025 27.4095 2.28561 27.2336C1.86097 27.0577 1.47513 26.7999 1.15013 26.4749C0.825121 26.1499 0.567313 25.764 0.391422 25.3394C0.21553 24.9148 0.125 24.4596 0.125 24V6C0.125 5.07174 0.493749 4.1815 1.15013 3.52513C1.8065 2.86875 2.69674 2.5 3.625 2.5H12.625C13.0228 2.5 13.4044 2.65804 13.6857 2.93934C13.967 3.22064 14.125 3.60218 14.125 4C14.125 4.39782 13.967 4.77936 13.6857 5.06066C13.4044 5.34196 13.0228 5.5 12.625 5.5H3.625C3.49239 5.5 3.36521 5.55268 3.27145 5.64645C3.17768 5.74021 3.125 5.86739 3.125 6V24C3.125 24.1326 3.17768 24.2598 3.27145 24.3536C3.36521 24.4473 3.49239 24.5 3.625 24.5H21.625C21.7576 24.5 21.8848 24.4473 21.9786 24.3536C22.0723 24.2598 22.125 24.1326 22.125 24V15C22.125 14.6022 22.283 14.2206 22.5643 13.9393C22.8456 13.658 23.2272 13.5 23.625 13.5C24.0228 13.5 24.4044 13.658 24.6857 13.9393C24.967 14.2206 25.125 14.6022 25.125 15V24C25.125 24.4596 25.0345 24.9148 24.8586 25.3394C24.6827 25.764 24.4249 26.1499 24.0999 26.4749C23.7749 26.7999 23.389 27.0577 22.9644 27.2336C22.5398 27.4095 22.0846 27.5 21.625 27.5Z" fill="#3939AA"/>
<path d="M9.62488 19.5C9.41168 19.5003 9.20087 19.4551 9.00649 19.3675C8.81212 19.2799 8.63865 19.1519 8.49766 18.992C8.35666 18.832 8.25138 18.6439 8.18882 18.4401C8.12627 18.2363 8.10788 18.0214 8.13488 17.81L8.69488 13.45C8.73655 13.122 8.884 12.8166 9.11488 12.58L19.9749 1.72996C20.3571 1.31315 20.8197 0.978019 21.3348 0.744757C21.85 0.511495 22.4071 0.384929 22.9724 0.372686C23.5378 0.360443 24.0998 0.462775 24.6246 0.673518C25.1494 0.88426 25.626 1.19905 26.0259 1.59893C26.4258 1.9988 26.7406 2.47549 26.9513 3.00026C27.1621 3.52504 27.2644 4.08704 27.2522 4.65242C27.2399 5.21779 27.1134 5.77484 26.8801 6.29C26.6468 6.80516 26.3117 7.26777 25.8949 7.64996L15.0449 18.51C14.8083 18.7408 14.5028 18.8883 14.1749 18.93L9.81488 19.49L9.62488 19.5ZM11.6249 14.34L11.3749 16.27L13.2849 16L23.7749 5.52996C23.8861 5.42019 23.9745 5.28941 24.0348 5.14521C24.0951 5.00101 24.1262 4.84626 24.1262 4.68996C24.1262 4.53366 24.0951 4.37892 24.0348 4.23472C23.9745 4.09052 23.8861 3.95973 23.7749 3.84996C23.5494 3.63243 23.2482 3.51088 22.9349 3.51088C22.6215 3.51088 22.3204 3.63243 22.0949 3.84996L11.6249 14.34Z" fill="#3939AA"/>
</svg>
