<svg width="46" height="46" viewBox="0 0 40 47" fill="none" xmlns="http://www.w3.org/2000/svg">
<path d="M21.5733 8.88599C23.9968 8.88599 25.9062 6.97661 25.9062 4.55317C25.9062 2.12974 23.9968 0.220361 21.5733 0.220361C19.1499 0.220361 17.2405 2.20317 17.2405 4.55317C17.2405 6.97661 19.1499 8.88599 21.5733 8.88599ZM21.5733 1.68911C23.189 1.68911 24.4374 3.01099 24.4374 4.55317C24.4374 6.1688 23.1155 7.41724 21.5733 7.41724C19.9577 7.41724 18.7093 6.09536 18.7093 4.55317C18.7093 3.01099 19.9577 1.68911 21.5733 1.68911ZM11.2187 8.07817C13.4218 8.07817 15.1843 6.31567 15.1843 4.11255C15.1843 1.90942 13.4218 0.220361 11.2187 0.220361C9.01553 0.220361 7.25303 1.98286 7.25303 4.18599C7.25303 6.38911 9.01553 8.07817 11.2187 8.07817ZM11.2187 1.68911C12.614 1.68911 13.7155 2.79067 13.7155 4.18599C13.7155 5.50786 12.614 6.60942 11.2187 6.60942C9.82334 6.60942 8.72178 5.50786 8.72178 4.11255C8.72178 2.79067 9.82334 1.68911 11.2187 1.68911ZM27.8155 4.18599C27.8155 4.4063 27.8155 4.62661 27.889 4.77349C28.1827 6.60942 29.7983 8.07817 31.7812 8.07817C32.4421 8.07817 33.103 7.85786 33.6171 7.56411C33.6905 7.56411 33.6905 7.49067 33.764 7.49067C33.8374 7.41724 33.9108 7.41724 33.9843 7.3438C35.0858 6.60942 35.7468 5.43442 35.7468 4.03911C35.7468 1.83599 33.9843 0.0734863 31.7812 0.0734863C29.578 0.0734863 27.8155 1.83599 27.8155 4.03911V4.18599ZM31.7812 1.68911C33.1765 1.68911 34.278 2.79067 34.278 4.18599C34.278 4.9938 33.8374 5.72817 33.2499 6.1688C32.8093 6.46255 32.3687 6.60942 31.8546 6.60942C30.4593 6.60942 29.3577 5.50786 29.3577 4.18599C29.3577 2.79067 30.4593 1.68911 31.7812 1.68911ZM36.2608 31.4313V24.675C36.4812 24.7485 36.7749 24.8219 37.0687 24.8219C38.3171 24.8219 39.2718 23.7938 39.2718 22.4719V13.9532C39.2718 13.3657 39.1983 12.8516 38.978 12.3375C38.978 12.1907 38.978 12.0438 38.9046 11.8969C38.2437 10.4282 36.8483 9.47349 35.3796 9.32661H28.4765C27.3749 9.32661 26.3468 9.76724 25.6124 10.5016H17.828C17.6077 10.5016 17.3874 10.5016 17.2405 10.575C16.4327 9.84067 15.4046 9.40005 14.3765 9.40005H7.9874C5.6374 9.40005 3.65459 11.4563 3.65459 14.0266V22.5454C3.65459 23.1329 3.8749 23.7204 4.31553 24.161C4.75615 24.6016 5.27022 24.8954 5.93115 24.8954C6.2249 24.8954 6.44521 24.8219 6.73896 24.7485V31.5047C2.40615 33.1938 0.0561523 35.4704 0.0561523 38.0407C0.0561523 43.0344 9.52959 47 21.5733 47C33.6171 47 43.0905 43.0344 43.0905 38.0407C43.0171 35.3969 40.5937 33.1204 36.2608 31.4313ZM28.5499 10.7954H35.0124C36.5546 10.7954 37.8765 12.1907 37.8765 13.9532V22.3985C37.8765 22.9125 37.5093 23.2797 37.0687 23.2797C36.8483 23.2797 36.628 23.1329 36.5546 23.0594C36.4077 22.9125 36.3343 22.6188 36.3343 22.3985V16.8907C36.3343 16.5235 36.0405 16.1563 35.5999 16.1563C35.2327 16.1563 34.8655 16.45 34.8655 16.8907V34.8094C34.8655 35.5438 34.3515 36.1313 33.6905 36.1313C33.0296 36.1313 32.5155 35.5438 32.5155 34.8094V24.8954C32.5155 24.5282 32.2218 24.161 31.7812 24.161C31.414 24.161 31.0468 24.4547 31.0468 24.8954V34.736C31.0468 35.4704 30.5327 36.0579 29.8718 36.0579C29.5046 36.0579 29.2108 35.8375 29.064 35.6907C28.8437 35.3969 28.6968 35.1032 28.6968 34.736V27.3922C29.4312 26.9516 29.9452 26.1438 29.9452 25.1891V15.6422C29.9452 13.6594 28.9171 11.9704 27.3749 11.0891C27.7421 10.8688 28.1827 10.7954 28.5499 10.7954ZM17.9015 11.9704H25.1718C27.0077 11.9704 28.4765 13.586 28.4765 15.6422V25.1891C28.4765 25.7766 28.0358 26.2907 27.5218 26.2907C27.0077 26.2907 26.5671 25.7766 26.5671 25.1891V18.9469C26.5671 18.5797 26.2733 18.2125 25.8327 18.2125C25.4655 18.2125 25.0983 18.5063 25.0983 18.9469V39.1422C25.0983 40.0235 24.4374 40.7579 23.703 40.7579C22.9687 40.7579 22.3077 40.0235 22.3077 39.1422V27.9797C22.3077 27.6125 22.014 27.2454 21.5733 27.2454C21.2062 27.2454 20.839 27.5391 20.839 27.9797V39.0688C20.839 39.9501 20.178 40.6844 19.4437 40.6844C18.7093 40.6844 18.0483 39.9501 18.0483 39.0688V18.8735C18.0483 18.5063 17.7546 18.1391 17.314 18.1391C16.9468 18.1391 16.5796 18.4329 16.5796 18.8735V25.1157C16.5796 25.7032 16.139 26.2172 15.6249 26.2172C15.1108 26.2172 14.6702 25.7032 14.6702 25.1157V15.5688C14.5968 13.586 16.139 11.9704 17.9015 11.9704ZM6.66553 22.4719C6.66553 22.986 6.29834 23.3532 5.85771 23.3532C5.6374 23.3532 5.49053 23.2797 5.34365 23.1329C5.19678 22.986 5.12334 22.6922 5.12334 22.4719V13.9532C5.12334 12.1907 6.37178 10.7954 7.9874 10.7954H14.3765C14.8171 10.7954 15.2577 10.9422 15.6249 11.0891C14.1562 11.9704 13.128 13.6594 13.128 15.5688V25.1157C13.128 25.9969 13.5687 26.8047 14.2296 27.2454V34.736C14.2296 35.4704 13.7155 36.0579 13.0546 36.0579C12.7608 36.0579 12.4671 35.911 12.2468 35.6907C12.0265 35.4704 11.8796 35.1032 11.8796 34.736V24.8954C11.8796 24.5282 11.5858 24.161 11.1452 24.161C10.778 24.161 10.4108 24.4547 10.4108 24.8954V34.736C10.4108 35.4704 9.89678 36.0579 9.23584 36.0579C8.5749 36.0579 8.06084 35.4704 8.06084 34.736V16.8907C8.06084 16.5235 7.76709 16.1563 7.32646 16.1563C6.95928 16.1563 6.59209 16.45 6.59209 16.8907L6.66553 22.4719ZM21.4999 45.4579C9.52959 45.4579 1.45146 41.5657 1.45146 37.9672C1.45146 36.2047 3.36084 34.3688 6.66553 32.9735V34.736C6.66553 36.2782 7.84053 37.5266 9.30928 37.5266C10.0437 37.5266 10.7046 37.1594 11.2187 36.6454C11.7327 37.1594 12.3937 37.4532 13.128 37.4532C14.5968 37.4532 15.7718 36.2047 15.7718 34.6626V27.6125C16.0655 27.6125 16.3593 27.5391 16.5796 27.3922V38.9219C16.5796 40.611 17.9015 42.0063 19.4437 42.0063C20.3249 42.0063 21.0593 41.5657 21.5733 40.9782C22.0874 41.6391 22.8218 42.0063 23.703 42.0063C25.2452 42.0063 26.5671 40.611 26.5671 38.9954V27.5391C26.7874 27.6126 27.0077 27.686 27.3015 27.7594V34.8094C27.3015 35.5438 27.5952 36.2047 28.0358 36.7922C28.5499 37.3063 29.2108 37.6001 29.9452 37.6001C30.6796 37.6001 31.3405 37.2329 31.8546 36.7188C32.3687 37.2329 33.0296 37.6001 33.764 37.6001C35.2327 37.6001 36.4077 36.3516 36.4077 34.8094V33.0469C39.7858 34.4422 41.6952 36.2047 41.6952 38.0407C41.5483 41.5657 33.4702 45.4579 21.4999 45.4579Z" fill="#006CEA"/>
</svg>
