<svg width="52" height="52" viewBox="0 0 52 56" fill="none" xmlns="http://www.w3.org/2000/svg">
<path d="M8.7998 33.2749V24.432H39.1406V33.2749M23.9702 20.4202V33.1867" stroke="#006CEA" stroke-width="1.87807" stroke-miterlimit="10" stroke-linecap="round" stroke-linejoin="round"/>
<path d="M45.5777 45.973H32.7031C32.7031 42.4168 35.5842 39.5357 39.1404 39.5357C42.6967 39.5357 45.5777 42.4168 45.5777 45.973ZM39.1404 39.5357C37.5793 39.5357 36.3116 37.664 36.3116 36.1037C36.3121 35.3536 36.6103 34.6344 37.1407 34.104C37.6711 33.5736 38.3903 33.2754 39.1404 33.2749C39.8904 33.2756 40.6094 33.5739 41.1396 34.1043C41.6698 34.6347 41.9679 35.3538 41.9683 36.1037C41.9683 37.664 40.7007 39.5357 39.1404 39.5357Z" stroke="#006CEA" stroke-width="1.87807" stroke-miterlimit="10" stroke-linecap="round" stroke-linejoin="round"/>
<path d="M29.2156 43.5314H18.7251C18.7251 42.8426 18.8608 42.1605 19.1244 41.5241C19.388 40.8877 19.7743 40.3095 20.2614 39.8224C20.7485 39.3354 21.3267 38.949 21.9631 38.6854C22.5995 38.4218 23.2815 38.2861 23.9704 38.2861C24.6592 38.2861 25.3413 38.4218 25.9776 38.6854C26.614 38.949 27.1923 39.3354 27.6793 39.8224C28.1664 40.3095 28.5528 40.8877 28.8164 41.5241C29.08 42.1605 29.2156 42.8426 29.2156 43.5314Z" stroke="#006CEA" stroke-width="1.87807" stroke-miterlimit="10" stroke-linecap="round" stroke-linejoin="round"/>
<path d="M23.9694 38.2868C22.6981 38.2868 21.6646 36.7625 21.6646 35.4904C21.6646 34.2191 22.6981 33.1855 23.9694 33.1855C25.2406 33.1855 26.2742 34.2191 26.2742 35.4904C26.2742 36.7625 25.2406 38.2868 23.9694 38.2868Z" stroke="#006CEA" stroke-width="1.87807" stroke-miterlimit="10" stroke-linecap="round" stroke-linejoin="round"/>
<path d="M15.2369 45.973H2.3623C2.3623 42.4168 5.24333 39.5357 8.7996 39.5357C12.3559 39.5357 15.2369 42.4168 15.2369 45.973ZM8.7996 39.5357C7.23934 39.5357 5.97169 37.664 5.97169 36.1037C5.97169 34.5435 7.23934 33.2749 8.7996 33.2749C10.3599 33.2749 11.6284 34.5435 11.6284 36.1037C11.6284 37.664 10.3608 39.5357 8.7996 39.5357Z" stroke="#006CEA" stroke-width="1.87807" stroke-miterlimit="10" stroke-linecap="round" stroke-linejoin="round"/>
<path d="M23.7443 19.6802C28.4118 19.6802 32.1956 15.8964 32.1956 11.2289C32.1956 6.56136 28.4118 2.77759 23.7443 2.77759C19.0767 2.77759 15.293 6.56136 15.293 11.2289C15.293 15.8964 19.0767 19.6802 23.7443 19.6802Z" stroke="#006CEA" stroke-width="1.87807" stroke-miterlimit="10" stroke-linecap="round" stroke-linejoin="round"/>
<path d="M19.0483 17.7909C20.1311 16.6582 21.8296 15.9238 23.7475 15.9238C25.6654 15.9238 27.3769 16.6582 28.4387 17.8019" stroke="#006CEA" stroke-width="1.87807" stroke-miterlimit="10" stroke-linecap="round" stroke-linejoin="round"/>
<path d="M23.7439 12.1679C25.2997 12.1679 26.561 10.9066 26.561 9.35079C26.561 7.79495 25.2997 6.53369 23.7439 6.53369C22.188 6.53369 20.9268 7.79495 20.9268 9.35079C20.9268 10.9066 22.188 12.1679 23.7439 12.1679Z" stroke="#006CEA" stroke-width="1.87807" stroke-miterlimit="10" stroke-linecap="round" stroke-linejoin="round"/>
</svg>
