<svg width="46" height="46" viewBox="0 0 44 42" fill="none" xmlns="http://www.w3.org/2000/svg">
<path d="M8.16455 20.9548C8.16455 22.7589 8.69952 24.5225 9.70181 26.0225C10.7041 27.5225 12.1287 28.6917 13.7954 29.3821C15.4622 30.0725 17.2962 30.2531 19.0657 29.9011C20.8351 29.5492 22.4604 28.6804 23.736 27.4047C25.0117 26.1291 25.8805 24.5038 26.2324 22.7344C26.5844 20.9649 26.4037 19.1309 25.7134 17.4642C25.023 15.7974 23.8538 14.3728 22.3538 13.3705C20.8538 12.3682 19.0902 11.8333 17.2861 11.8333C14.8678 11.836 12.5492 12.7979 10.8392 14.5079C9.12917 16.2179 8.16728 18.5365 8.16455 20.9548ZM17.2861 13.0913C18.8414 13.0913 20.3617 13.5525 21.6549 14.4166C22.948 15.2806 23.9559 16.5087 24.5511 17.9456C25.1462 19.3825 25.302 20.9635 24.9985 22.4889C24.6951 24.0143 23.9462 25.4154 22.8465 26.5152C21.7467 27.6149 20.3456 28.3638 18.8202 28.6672C17.2948 28.9707 15.7138 28.8149 14.2769 28.2198C12.84 27.6246 11.6119 26.6167 10.7479 25.3236C9.8838 24.0304 9.42261 22.5101 9.42261 20.9548C9.42496 18.87 10.2542 16.8713 11.7284 15.3971C13.2026 13.9229 15.2013 13.0937 17.2861 13.0913Z" fill="#006CEA"/>
<path d="M13.7966 19.0282C13.7966 19.195 13.8628 19.355 13.9808 19.473C14.0988 19.591 14.2588 19.6572 14.4256 19.6572H17.7761C17.6477 20.0071 17.4139 20.3084 17.107 20.5197C16.8 20.7309 16.4351 20.8417 16.0625 20.8367H14.4256C14.3 20.8355 14.177 20.8723 14.0726 20.9422C13.9682 21.0121 13.8874 21.1119 13.8407 21.2285C13.7939 21.3451 13.7835 21.4731 13.8107 21.5957C13.8379 21.7183 13.9015 21.8299 13.9931 21.9158L18.0845 25.7808C18.2052 25.8954 18.3666 25.9574 18.533 25.953C18.6994 25.9487 18.8573 25.8785 18.9719 25.7577C19.0865 25.637 19.1485 25.4757 19.1442 25.3093C19.1399 25.1428 19.0696 24.985 18.9489 24.8703L16.0071 22.0947H16.0622C17.5468 22.0947 18.7896 20.9939 19.0809 19.6572H20.1458C20.3127 19.6572 20.4727 19.591 20.5906 19.473C20.7086 19.355 20.7749 19.195 20.7749 19.0282C20.7749 18.8614 20.7086 18.7014 20.5906 18.5834C20.4727 18.4655 20.3127 18.3992 20.1458 18.3992H19.0812C18.9891 17.9481 18.8069 17.5202 18.5456 17.1411H20.1462C20.313 17.1411 20.473 17.0748 20.5909 16.9569C20.7089 16.8389 20.7752 16.6789 20.7752 16.5121C20.7752 16.3453 20.7089 16.1853 20.5909 16.0673C20.473 15.9493 20.313 15.8831 20.1462 15.8831H14.4256C14.2588 15.8831 14.0988 15.9493 13.9808 16.0673C13.8628 16.1853 13.7966 16.3453 13.7966 16.5121C13.7966 16.6789 13.8628 16.8389 13.9808 16.9569C14.0988 17.0748 14.2588 17.1411 14.4256 17.1411H16.0625C16.8481 17.1411 17.5192 17.6915 17.7761 18.3992H14.4256C14.2588 18.3992 14.0988 18.4655 13.9808 18.5834C13.8628 18.7014 13.7966 18.8614 13.7966 19.0282Z" fill="#006CEA"/>
<path d="M29.5086 31.588L24.5834 33.9154C24.4153 33.6037 24.2068 33.3156 23.9633 33.0584C23.602 32.6745 23.1682 32.3661 22.6869 32.1511C22.2057 31.936 21.6865 31.8186 21.1596 31.8055L16.6107 31.6801C15.8903 31.6593 15.1837 31.4768 14.5433 31.146L14.0805 30.9064C12.9128 30.2977 11.6152 29.9806 10.2984 29.9819C8.9816 29.9833 7.68467 30.3032 6.51825 30.9142L6.54711 29.8656C6.5517 29.6988 6.48986 29.5371 6.3752 29.4159C6.26054 29.2947 6.10244 29.2241 5.93569 29.2195L0.947556 29.0822C0.780952 29.0785 0.619543 29.1403 0.497878 29.2541C0.437845 29.3109 0.389586 29.379 0.355858 29.4544C0.322129 29.5298 0.303592 29.6112 0.301306 29.6938L0.000236071 40.6398C-0.00433105 40.8066 0.0575262 40.9683 0.172202 41.0895C0.286878 41.2106 0.44498 41.2813 0.611733 41.2859L5.59979 41.4231H5.6174C5.78118 41.4231 5.93847 41.3591 6.05583 41.2449C6.1732 41.1306 6.24138 40.9751 6.24588 40.8114L6.26027 40.2877L7.55615 39.5938C8.06463 39.3202 8.65959 39.2551 9.21522 39.4122L16.9532 41.5842C16.9667 41.5881 16.9803 41.5914 16.9941 41.5943C17.5534 41.7112 18.1233 41.77 18.6947 41.7697C19.9049 41.7705 21.101 41.5095 22.2009 41.0048C22.2279 40.9923 22.254 40.9779 22.2789 40.9617L33.4984 33.7042C33.633 33.6172 33.7293 33.482 33.7676 33.3263C33.8059 33.1706 33.7834 33.0062 33.7045 32.8666C33.3035 32.155 32.6439 31.6252 31.8626 31.3871C31.0813 31.149 30.2383 31.221 29.5086 31.588ZM1.27512 40.0456L1.54175 30.3571L5.27222 30.4598L5.00559 40.1484L1.27512 40.0456ZM21.6343 39.8811C20.2676 40.4976 18.7415 40.6679 17.2726 40.3677L9.55545 38.2015C8.68706 37.9561 7.7573 38.0578 6.96251 38.4852L6.30045 38.8397L6.47768 32.3979C7.50793 31.7127 8.70316 31.3165 9.9387 31.2507C11.1742 31.1848 12.4048 31.4517 13.5021 32.0235L13.9648 32.2632C14.7738 32.6809 15.6663 32.9114 16.5764 32.9377L21.1251 33.0628C21.7461 33.0802 22.3429 33.3068 22.819 33.7057C23.2951 34.1047 23.6226 34.6528 23.7483 35.2611L16.9716 35.0743C16.8047 35.0697 16.6429 35.1315 16.5217 35.2462C16.4005 35.3609 16.3298 35.5191 16.3252 35.6859C16.3206 35.8528 16.3825 36.0146 16.4972 36.1358C16.6119 36.257 16.7701 36.3277 16.9369 36.3323L24.4145 36.5381H24.4321C24.5959 36.538 24.7532 36.474 24.8705 36.3598C24.9879 36.2456 25.0561 36.0901 25.0606 35.9264C25.0681 35.6529 25.0479 35.3794 25.0003 35.1099L30.0537 32.7223L30.0685 32.7152C30.4185 32.5379 30.8144 32.472 31.2029 32.5264C31.5915 32.5808 31.954 32.7529 32.2418 33.0195L21.6343 39.8811Z" fill="#006CEA"/>
<path d="M13.6218 10.1818L18.547 7.85435C18.7151 8.16605 18.9236 8.45421 19.1671 8.71141C19.5283 9.09527 19.9622 9.40365 20.4434 9.61871C20.9247 9.83376 21.4438 9.95122 21.9708 9.96428L26.5196 10.0897C27.2401 10.1104 27.9467 10.2929 28.5871 10.6237L29.0499 10.8634C30.2176 11.472 31.5152 11.7892 32.832 11.7878C34.1488 11.7865 35.4457 11.4666 36.6121 10.8555L36.5833 11.9042C36.5787 12.071 36.6405 12.2327 36.7552 12.3539C36.8698 12.475 37.0279 12.5457 37.1947 12.5503L42.1828 12.6876C42.3494 12.6912 42.5108 12.6295 42.6325 12.5156C42.6925 12.4589 42.7408 12.3908 42.7745 12.3154C42.8082 12.2399 42.8268 12.1586 42.8291 12.076L43.1301 1.12994C43.1347 0.963185 43.0728 0.801445 42.9582 0.680297C42.8435 0.559148 42.6854 0.488511 42.5186 0.483924L37.5306 0.346638H37.513C37.3492 0.346719 37.1919 0.410677 37.0745 0.524913C36.9572 0.639149 36.889 0.794652 36.8845 0.958369L36.8701 1.48204L35.5742 2.17594C35.0657 2.44956 34.4708 2.51469 33.9151 2.35757L26.1772 0.185529C26.1637 0.181676 26.1501 0.178371 26.1363 0.175463C25.577 0.058548 25.0071 -0.000237465 24.4357 4.19617e-05C23.2255 -0.000720978 22.0294 0.260237 20.9295 0.765022C20.9025 0.777502 20.8764 0.791902 20.8514 0.808111L9.63197 8.06555C9.49734 8.15261 9.40104 8.2878 9.36273 8.44348C9.32443 8.59916 9.34702 8.7636 9.42588 8.90319C9.82687 9.61476 10.4865 10.1446 11.2678 10.3827C12.0491 10.6208 12.8921 10.5488 13.6218 10.1818ZM41.8552 1.72422L41.5886 11.4127L37.8582 11.3099L38.1248 1.62137L41.8552 1.72422ZM21.4961 1.88871C22.8627 1.27219 24.3888 1.10192 25.8577 1.40207L33.5749 3.5683C34.4433 3.81366 35.3731 3.71194 36.1679 3.28461L36.8299 2.93007L36.6527 9.37189C35.6224 10.0571 34.4272 10.4533 33.1917 10.5191C31.9561 10.585 30.7256 10.3181 29.6283 9.74632L29.1656 9.50658C28.3566 9.08888 27.4641 8.85835 26.554 8.83203L22.0052 8.70693C21.3843 8.68955 20.7874 8.46301 20.3113 8.06404C19.8353 7.66506 19.5078 7.11702 19.3821 6.5087L26.1588 6.69552C26.3256 6.70012 26.4875 6.63826 26.6087 6.52354C26.7299 6.40883 26.8006 6.25066 26.8052 6.08383C26.8098 5.917 26.7479 5.75518 26.6332 5.63396C26.5185 5.51274 26.3603 5.44206 26.1935 5.43746L18.7159 5.23169H18.6983C18.5345 5.23177 18.3772 5.29573 18.2598 5.40996C18.1425 5.5242 18.0743 5.67971 18.0698 5.84342C18.0623 6.1169 18.0825 6.39042 18.1301 6.65983L13.0766 9.04747L13.0618 9.05462C12.7119 9.2319 12.316 9.29775 11.9274 9.24334C11.5389 9.18893 11.1764 9.01685 10.8885 8.75025L21.4961 1.88871Z" fill="#006CEA"/>
</svg>
