<svg width="21" height="21" viewBox="0 0 21 21" fill="none" xmlns="http://www.w3.org/2000/svg">
<path d="M15.75 7C15.75 5.60761 15.1969 4.27226 14.2123 3.28769C13.2277 2.30312 11.8924 1.75 10.5 1.75C9.10761 1.75 7.77226 2.30312 6.78769 3.28769C5.80312 4.27226 5.25 5.60761 5.25 7C5.25 13.125 2.625 14.875 2.625 14.875H18.375C18.375 14.875 15.75 13.125 15.75 7Z" stroke="black" stroke-width="1.5" stroke-linecap="round" stroke-linejoin="round"/>
<path d="M12.0137 18.375C11.8599 18.6402 11.6391 18.8603 11.3734 19.0133C11.1077 19.1664 10.8065 19.2469 10.5 19.2469C10.1934 19.2469 9.89217 19.1664 9.62651 19.0133C9.36084 18.8603 9.14004 18.6402 8.98621 18.375" stroke="black" stroke-width="1.5" stroke-linecap="round" stroke-linejoin="round"/>
</svg>
