<svg width="50" height="50" viewBox="0 0 48 50" fill="none" xmlns="http://www.w3.org/2000/svg">
<path d="M44.5312 32.8125V7.8125C45.1529 7.8125 45.749 7.56557 46.1885 7.12603C46.6281 6.68649 46.875 6.09035 46.875 5.46875C46.875 4.84715 46.6281 4.25101 46.1885 3.81147C45.749 3.37193 45.1529 3.125 44.5312 3.125H5.46875C4.84715 3.125 4.25101 3.37193 3.81147 3.81147C3.37193 4.25101 3.125 4.84715 3.125 5.46875C3.125 6.09035 3.37193 6.68649 3.81147 7.12603C4.25101 7.56557 4.84715 7.8125 5.46875 7.8125V32.8125C4.84715 32.8125 4.25101 33.0594 3.81147 33.499C3.37193 33.9385 3.125 34.5346 3.125 35.1562C3.125 35.7779 3.37193 36.374 3.81147 36.8135C4.25101 37.2531 4.84715 37.5 5.46875 37.5H24.2188V41.6641L15.3281 45.375L15.9219 46.8125L24.2188 43.3594V46.875H25.7812V43.3594L34.0781 46.8125L34.6719 45.375L25.7812 41.6641V37.5H44.5312C45.1529 37.5 45.749 37.2531 46.1885 36.8135C46.6281 36.374 46.875 35.7779 46.875 35.1562C46.875 34.5346 46.6281 33.9385 46.1885 33.499C45.749 33.0594 45.1529 32.8125 44.5312 32.8125ZM4.6875 5.46875C4.6875 5.26155 4.76981 5.06284 4.91632 4.91632C5.06284 4.76981 5.26155 4.6875 5.46875 4.6875H44.5312C44.7384 4.6875 44.9372 4.76981 45.0837 4.91632C45.2302 5.06284 45.3125 5.26155 45.3125 5.46875C45.3125 5.67595 45.2302 5.87466 45.0837 6.02118C44.9372 6.16769 44.7384 6.25 44.5312 6.25H5.46875C5.26155 6.25 5.06284 6.16769 4.91632 6.02118C4.76981 5.87466 4.6875 5.67595 4.6875 5.46875ZM7.03125 7.8125H42.9688V32.8125H7.03125V7.8125ZM44.5312 35.9375H5.46875C5.26155 35.9375 5.06284 35.8552 4.91632 35.7087C4.76981 35.5622 4.6875 35.3634 4.6875 35.1562C4.6875 34.949 4.76981 34.7503 4.91632 34.6038C5.06284 34.4573 5.26155 34.375 5.46875 34.375H44.5312C44.7384 34.375 44.9372 34.4573 45.0837 34.6038C45.2302 34.7503 45.3125 34.949 45.3125 35.1562C45.3125 35.3634 45.2302 35.5622 45.0837 35.7087C44.9372 35.8552 44.7384 35.9375 44.5312 35.9375ZM17.1875 12.5H10.9375C10.7303 12.5 10.5316 12.5823 10.3851 12.7288C10.2386 12.8753 10.1562 13.074 10.1562 13.2812V17.9688C10.1562 18.176 10.2386 18.3747 10.3851 18.5212C10.5316 18.6677 10.7303 18.75 10.9375 18.75H17.1875C17.3947 18.75 17.5934 18.6677 17.7399 18.5212C17.8864 18.3747 17.9688 18.176 17.9688 17.9688V13.2812C17.9688 13.074 17.8864 12.8753 17.7399 12.7288C17.5934 12.5823 17.3947 12.5 17.1875 12.5ZM16.4062 17.1875H11.7188V14.0625H16.4062V17.1875ZM17.1875 21.875H10.9375C10.7303 21.875 10.5316 21.9573 10.3851 22.1038C10.2386 22.2503 10.1562 22.449 10.1562 22.6562V27.3438C10.1562 27.551 10.2386 27.7497 10.3851 27.8962C10.5316 28.0427 10.7303 28.125 10.9375 28.125H17.1875C17.3947 28.125 17.5934 28.0427 17.7399 27.8962C17.8864 27.7497 17.9688 27.551 17.9688 27.3438V22.6562C17.9688 22.449 17.8864 22.2503 17.7399 22.1038C17.5934 21.9573 17.3947 21.875 17.1875 21.875ZM16.4062 26.5625H11.7188V23.4375H16.4062V26.5625ZM21.0938 12.5H39.8438V14.0625H21.0938V12.5ZM21.0938 17.1875H39.8438V18.75H21.0938V17.1875ZM21.0938 21.875H39.8438V23.4375H21.0938V21.875ZM21.0938 26.5625H39.8438V28.125H21.0938V26.5625Z" fill="#1E7CED"/>
</svg>
