<svg width="24" height="24" viewBox="0 0 24 24" fill="none" xmlns="http://www.w3.org/2000/svg">
<path d="M8.76733 20.9092H15.9299" stroke="black" stroke-width="1.07439" stroke-linecap="round" stroke-linejoin="round"/>
<path d="M12.3486 18.044V13.0302" stroke="black" stroke-width="1.07439" stroke-linecap="round" stroke-linejoin="round"/>
<path d="M9.4834 10.1653L12.3484 13.0303L15.2135 10.1653" stroke="black" stroke-width="1.07439" stroke-linecap="round" stroke-linejoin="round"/>
<path d="M7.93476 15.0904C7.08308 14.4253 6.39326 13.5757 5.91715 12.6055C5.44104 11.6354 5.19103 10.57 5.1859 9.48931C5.16445 5.60698 8.29435 2.37968 12.1757 2.28833C13.6797 2.25212 15.1569 2.69039 16.3979 3.54099C17.6388 4.39158 18.5804 5.61131 19.0891 7.02716C19.5978 8.44301 19.6478 9.98309 19.2319 11.4289C18.8161 12.8748 17.9556 14.153 16.7724 15.0823C16.5118 15.2842 16.3005 15.5427 16.1545 15.8383C16.0085 16.1338 15.9316 16.4587 15.9297 16.7884L15.9297 17.3277C15.9297 17.5177 15.8542 17.6999 15.7199 17.8342C15.5856 17.9685 15.4034 18.044 15.2134 18.044H9.48333C9.29337 18.044 9.11119 17.9685 8.97686 17.8342C8.84254 17.6999 8.76707 17.5177 8.76707 17.3277L8.76706 16.7878C8.76625 16.4602 8.69088 16.1372 8.54668 15.8431C8.40248 15.549 8.19322 15.2916 7.93476 15.0904V15.0904Z" stroke="black" stroke-width="1.43252" stroke-linecap="round" stroke-linejoin="round"/>
</svg>
