<svg width="46" height="46" viewBox="0 0 32 43" fill="none" xmlns="http://www.w3.org/2000/svg">
<path d="M27.6419 17.9782H9.88056C9.67286 17.9782 9.47367 18.0607 9.32681 18.2075C9.17994 18.3544 9.09744 18.5536 9.09744 18.7613C9.09744 18.969 9.17994 19.1682 9.32681 19.315C9.47367 19.4619 9.67286 19.5444 9.88056 19.5444H27.6419C27.8496 19.5444 28.0487 19.4619 28.1956 19.315C28.3425 19.1682 28.425 18.969 28.425 18.7613C28.425 18.5536 28.3425 18.3544 28.1956 18.2075C28.0487 18.0607 27.8496 17.9782 27.6419 17.9782ZM19.4443 26.1757H9.88056C9.67286 26.1757 9.47367 26.2582 9.32681 26.4051C9.17994 26.5519 9.09744 26.7511 9.09744 26.9588C9.09744 27.1665 9.17994 27.3657 9.32681 27.5126C9.47367 27.6594 9.67286 27.7419 9.88056 27.7419H19.4443C19.652 27.7419 19.8512 27.6594 19.9981 27.5126C20.145 27.3657 20.2275 27.1665 20.2275 26.9588C20.2275 26.7511 20.145 26.5519 19.9981 26.4051C19.8512 26.2582 19.652 26.1757 19.4443 26.1757ZM13.9793 34.3732H9.88056C9.67286 34.3732 9.47367 34.4557 9.32681 34.6026C9.17994 34.7494 9.09744 34.9486 9.09744 35.1563C9.09744 35.364 9.17994 35.5632 9.32681 35.7101C9.47367 35.857 9.67286 35.9395 9.88056 35.9395H13.9793C14.187 35.9395 14.3862 35.857 14.5331 35.7101C14.6799 35.5632 14.7625 35.364 14.7625 35.1563C14.7625 34.9486 14.6799 34.7494 14.5331 34.6026C14.3862 34.4557 14.187 34.3732 13.9793 34.3732ZM5.7818 16.6119C5.3567 16.6119 4.94113 16.738 4.58767 16.9741C4.23421 17.2103 3.95872 17.546 3.79603 17.9388C3.63335 18.3315 3.59079 18.7637 3.67372 19.1806C3.75666 19.5976 3.96137 19.9805 4.26196 20.2811C4.56256 20.5817 4.94554 20.7864 5.36248 20.8694C5.77942 20.9523 6.21159 20.9097 6.60433 20.7471C6.99708 20.5844 7.33277 20.3089 7.56895 19.9554C7.80512 19.602 7.93118 19.1864 7.93118 18.7613C7.93118 18.1912 7.70473 17.6445 7.30164 17.2415C6.89856 16.8384 6.35185 16.6119 5.7818 16.6119ZM5.7818 19.3444C5.66647 19.3444 5.55373 19.3102 5.45783 19.2461C5.36194 19.1821 5.2872 19.091 5.24306 18.9844C5.19893 18.8779 5.18738 18.7606 5.20988 18.6475C5.23238 18.5344 5.28792 18.4305 5.36947 18.349C5.45102 18.2674 5.55492 18.2119 5.66804 18.1894C5.78116 18.1669 5.8984 18.1784 6.00496 18.2226C6.11151 18.2667 6.20258 18.3414 6.26665 18.4373C6.33073 18.5332 6.36493 18.646 6.36493 18.7613C6.36493 18.9159 6.30349 19.0643 6.19414 19.1736C6.08478 19.283 5.93646 19.3444 5.7818 19.3444ZM5.7818 24.8094C5.3567 24.8094 4.94113 24.9355 4.58767 25.1717C4.23421 25.4078 3.95872 25.7435 3.79603 26.1363C3.63335 26.529 3.59079 26.9612 3.67372 27.3781C3.75666 27.7951 3.96137 28.1781 4.26196 28.4787C4.56256 28.7793 4.94554 28.984 5.36248 29.0669C5.77942 29.1498 6.21159 29.1073 6.60433 28.9446C6.99708 28.7819 7.33277 28.5064 7.56895 28.1529C7.80512 27.7995 7.93118 27.3839 7.93118 26.9588C7.93118 26.3888 7.70473 25.8421 7.30164 25.439C6.89856 25.0359 6.35185 24.8094 5.7818 24.8094ZM5.7818 27.5419C5.66647 27.5419 5.55373 27.5077 5.45783 27.4437C5.36194 27.3796 5.2872 27.2885 5.24306 27.182C5.19893 27.0754 5.18738 26.9582 5.20988 26.8451C5.23238 26.7319 5.28792 26.628 5.36947 26.5465C5.45102 26.4649 5.55492 26.4094 5.66804 26.3869C5.78116 26.3644 5.8984 26.3759 6.00496 26.4201C6.11151 26.4642 6.20258 26.539 6.26665 26.6348C6.33073 26.7307 6.36493 26.8435 6.36493 26.9588C6.36493 27.1135 6.30349 27.2618 6.19414 27.3711C6.08478 27.4805 5.93646 27.5419 5.7818 27.5419ZM5.7818 33.007C5.3567 33.007 4.94113 33.133 4.58767 33.3692C4.23421 33.6054 3.95872 33.9411 3.79603 34.3338C3.63335 34.7266 3.59079 35.1587 3.67372 35.5757C3.75666 35.9926 3.96137 36.3756 4.26196 36.6762C4.56256 36.9768 4.94554 37.1815 5.36248 37.2644C5.77942 37.3474 6.21159 37.3048 6.60434 37.1421C6.99708 36.9794 7.33277 36.7039 7.56895 36.3505C7.80512 35.997 7.93118 35.5814 7.93118 35.1563C7.93118 34.5863 7.70473 34.0396 7.30164 33.6365C6.89856 33.2334 6.35185 33.007 5.7818 33.007ZM5.7818 35.7395C5.66647 35.7395 5.55373 35.7053 5.45783 35.6412C5.36194 35.5771 5.2872 35.486 5.24306 35.3795C5.19893 35.2729 5.18738 35.1557 5.20988 35.0426C5.23238 34.9295 5.28792 34.8256 5.36947 34.744C5.45102 34.6625 5.55492 34.6069 5.66804 34.5844C5.78115 34.5619 5.8984 34.5735 6.00496 34.6176C6.11151 34.6617 6.20258 34.7365 6.26665 34.8324C6.33073 34.9283 6.36493 35.041 6.36493 35.1563C6.36493 35.311 6.30349 35.4593 6.19414 35.5687C6.08478 35.678 5.93646 35.7395 5.7818 35.7395Z" fill="#006CEA" stroke="#006CEA" stroke-width="0.2"/>
<mask id="path-2-outside-1_939_6197" maskUnits="userSpaceOnUse" x="0" y="0" width="43" height="43" fill="black">
<rect fill="white" width="43" height="43"/>
<path d="M4.41563 41.9876H27.6419C28.5475 41.9865 29.4156 41.6263 30.056 40.986C30.6963 40.3457 31.0565 39.4775 31.0576 38.572V27.1193L40.1432 18.0338C40.3252 18.4148 40.3851 18.8427 40.3147 19.2591C40.2442 19.6754 40.0469 20.0599 39.7497 20.3598L33.469 26.6398C33.3446 26.7686 33.2757 26.9412 33.2773 27.1203C33.2788 27.2994 33.3507 27.4708 33.4773 27.5974C33.604 27.7241 33.7753 27.7959 33.9544 27.7975C34.1336 27.799 34.3061 27.7302 34.435 27.6057L40.7149 21.3264C41.3545 20.6853 41.7136 19.8168 41.7136 18.9112C41.7136 18.0057 41.3545 17.1371 40.7149 16.496L40.232 16.0131L41.6809 14.5635C41.8712 14.3732 42.0222 14.1472 42.1252 13.8986C42.2282 13.6499 42.2812 13.3834 42.2812 13.1142C42.2812 12.8451 42.2282 12.5785 42.1252 12.3299C42.0222 12.0812 41.8712 11.8553 41.6809 11.665C41.2904 11.2925 40.7716 11.0848 40.232 11.0848C39.6924 11.0848 39.1735 11.2925 38.7831 11.665L37.3335 13.1139C37.2066 12.987 37.0559 12.8863 36.8901 12.8176C36.7243 12.7489 36.5466 12.7135 36.3672 12.7135C36.1877 12.7135 36.01 12.7489 35.8442 12.8176C35.6784 12.8863 35.5278 12.987 35.4009 13.1139L31.0576 17.4586V7.83127C31.0565 6.92572 30.6963 6.05757 30.056 5.41725C29.4156 4.77693 28.5475 4.41672 27.6419 4.41563H27.3004V3.39094C27.3004 2.75683 27.0485 2.14868 26.6001 1.70029C26.1517 1.2519 25.5436 1 24.9094 1C24.2753 1 23.6672 1.2519 23.2188 1.70029C22.7704 2.14868 22.5185 2.75683 22.5185 3.39094V4.41563H18.4197V3.39094C18.4197 2.75683 18.1678 2.14868 17.7194 1.70029C17.2711 1.2519 16.6629 1 16.0288 1C15.3947 1 14.7865 1.2519 14.3381 1.70029C13.8897 2.14868 13.6378 2.75683 13.6378 3.39094V4.41563H9.53908V3.39094C9.53908 2.75683 9.28718 2.14868 8.83879 1.70029C8.3904 1.2519 7.78226 1 7.14814 1C6.51402 1 5.90588 1.2519 5.45749 1.70029C5.0091 2.14868 4.7572 2.75683 4.7572 3.39094V4.41563H4.41563C3.51008 4.41672 2.64193 4.77693 2.00161 5.41725C1.36129 6.05757 1.00108 6.92572 1 7.83127V38.572C1.00108 39.4775 1.36129 40.3457 2.00161 40.986C2.64193 41.6263 3.51008 41.9865 4.41563 41.9876ZM23.8082 32.4368L20.9104 29.5383L26.2238 24.2263L29.1216 27.1241L23.8082 32.4368ZM19.4683 33.8782L20.2935 30.8526L22.4925 33.0516L19.4683 33.8782ZM28.1557 22.2924L31.0576 25.1909L30.0875 26.1568L27.1897 23.259L28.1557 22.2924ZM39.749 12.6316C39.879 12.5072 40.052 12.4378 40.232 12.4378C40.4119 12.4378 40.5849 12.5072 40.7149 12.6316C40.843 12.7597 40.9149 12.9334 40.9149 13.1146C40.9149 13.2957 40.843 13.4694 40.7149 13.5975L39.266 15.0471L38.2987 14.0805L39.749 12.6316ZM36.3668 14.0805L39.266 16.979L32.0201 24.2263L29.1216 21.3278L36.3668 14.0805ZM19.4642 29.0526C19.3786 29.1373 19.3168 29.2431 19.2853 29.3593L18.1499 33.5168C18.0865 33.7492 18.0856 33.9943 18.1474 34.2271C18.2092 34.4599 18.3315 34.6723 18.5019 34.8426C18.6722 35.013 18.8846 35.1352 19.1174 35.1971C19.3502 35.2589 19.5953 35.258 19.8277 35.1946C20.8667 34.909 23.9872 34.0592 23.9872 34.0592C24.1034 34.0277 24.2093 33.9659 24.2939 33.8803L29.6906 28.4836V38.572C29.6906 39.1155 29.4747 39.6368 29.0904 40.0211C28.7061 40.4054 28.1848 40.6213 27.6413 40.6213H4.41563C3.8721 40.6213 3.35084 40.4054 2.9665 40.0211C2.58217 39.6368 2.36625 39.1155 2.36625 38.572V13.9794H29.6913V18.8248L19.4642 29.0526ZM23.8847 3.39094C23.8847 3.11918 23.9927 2.85854 24.1849 2.66638C24.377 2.47421 24.6377 2.36625 24.9094 2.36625C25.1812 2.36625 25.4418 2.47421 25.634 2.66638C25.8262 2.85854 25.9341 3.11918 25.9341 3.39094V6.12345C25.9341 6.39522 25.8262 6.65585 25.634 6.84802C25.4418 7.04018 25.1812 7.14814 24.9094 7.14814C24.6377 7.14814 24.377 7.04018 24.1849 6.84802C23.9927 6.65585 23.8847 6.39522 23.8847 6.12345V3.39094ZM15.0041 3.39094C15.0041 3.11918 15.1121 2.85854 15.3042 2.66638C15.4964 2.47421 15.757 2.36625 16.0288 2.36625C16.3006 2.36625 16.5612 2.47421 16.7534 2.66638C16.9455 2.85854 17.0535 3.11918 17.0535 3.39094V6.12345C17.0535 6.39522 16.9455 6.65585 16.7534 6.84802C16.5612 7.04018 16.3006 7.14814 16.0288 7.14814C15.757 7.14814 15.4964 7.04018 15.3042 6.84802C15.1121 6.65585 15.0041 6.39522 15.0041 6.12345V3.39094ZM6.12345 3.39094C6.12345 3.11918 6.23141 2.85854 6.42357 2.66638C6.61574 2.47421 6.87638 2.36625 7.14814 2.36625C7.4199 2.36625 7.68054 2.47421 7.87271 2.66638C8.06487 2.85854 8.17283 3.11918 8.17283 3.39094V6.12345C8.17283 6.39522 8.06487 6.65585 7.87271 6.84802C7.68054 7.04018 7.4199 7.14814 7.14814 7.14814C6.87638 7.14814 6.61574 7.04018 6.42357 6.84802C6.23141 6.65585 6.12345 6.39522 6.12345 6.12345V3.39094ZM4.41563 5.78189H4.7572V6.12345C4.7572 6.75757 5.0091 7.36571 5.45749 7.8141C5.90588 8.26249 6.51402 8.51439 7.14814 8.51439C7.78226 8.51439 8.3904 8.26249 8.83879 7.8141C9.28718 7.36571 9.53908 6.75757 9.53908 6.12345V5.78189H13.6378V6.12345C13.6378 6.75757 13.8897 7.36571 14.3381 7.8141C14.7865 8.26249 15.3947 8.51439 16.0288 8.51439C16.6629 8.51439 17.2711 8.26249 17.7194 7.8141C18.1678 7.36571 18.4197 6.75757 18.4197 6.12345V5.78189H22.5185V6.12345C22.5185 6.75757 22.7704 7.36571 23.2188 7.8141C23.6672 8.26249 24.2753 8.51439 24.9094 8.51439C25.5436 8.51439 26.1517 8.26249 26.6001 7.8141C27.0485 7.36571 27.3004 6.75757 27.3004 6.12345V5.78189H27.6419C28.1855 5.78189 28.7067 5.9978 29.0911 6.38214C29.4754 6.76647 29.6913 7.28774 29.6913 7.83127V12.6132H2.36625V7.83127C2.36625 7.28774 2.58217 6.76647 2.9665 6.38214C3.35084 5.9978 3.8721 5.78189 4.41563 5.78189Z"/>
</mask>
<path d="M4.41563 41.9876H27.6419C28.5475 41.9865 29.4156 41.6263 30.056 40.986C30.6963 40.3457 31.0565 39.4775 31.0576 38.572V27.1193L40.1432 18.0338C40.3252 18.4148 40.3851 18.8427 40.3147 19.2591C40.2442 19.6754 40.0469 20.0599 39.7497 20.3598L33.469 26.6398C33.3446 26.7686 33.2757 26.9412 33.2773 27.1203C33.2788 27.2994 33.3507 27.4708 33.4773 27.5974C33.604 27.7241 33.7753 27.7959 33.9544 27.7975C34.1336 27.799 34.3061 27.7302 34.435 27.6057L40.7149 21.3264C41.3545 20.6853 41.7136 19.8168 41.7136 18.9112C41.7136 18.0057 41.3545 17.1371 40.7149 16.496L40.232 16.0131L41.6809 14.5635C41.8712 14.3732 42.0222 14.1472 42.1252 13.8986C42.2282 13.6499 42.2812 13.3834 42.2812 13.1142C42.2812 12.8451 42.2282 12.5785 42.1252 12.3299C42.0222 12.0812 41.8712 11.8553 41.6809 11.665C41.2904 11.2925 40.7716 11.0848 40.232 11.0848C39.6924 11.0848 39.1735 11.2925 38.7831 11.665L37.3335 13.1139C37.2066 12.987 37.0559 12.8863 36.8901 12.8176C36.7243 12.7489 36.5466 12.7135 36.3672 12.7135C36.1877 12.7135 36.01 12.7489 35.8442 12.8176C35.6784 12.8863 35.5278 12.987 35.4009 13.1139L31.0576 17.4586V7.83127C31.0565 6.92572 30.6963 6.05757 30.056 5.41725C29.4156 4.77693 28.5475 4.41672 27.6419 4.41563H27.3004V3.39094C27.3004 2.75683 27.0485 2.14868 26.6001 1.70029C26.1517 1.2519 25.5436 1 24.9094 1C24.2753 1 23.6672 1.2519 23.2188 1.70029C22.7704 2.14868 22.5185 2.75683 22.5185 3.39094V4.41563H18.4197V3.39094C18.4197 2.75683 18.1678 2.14868 17.7194 1.70029C17.2711 1.2519 16.6629 1 16.0288 1C15.3947 1 14.7865 1.2519 14.3381 1.70029C13.8897 2.14868 13.6378 2.75683 13.6378 3.39094V4.41563H9.53908V3.39094C9.53908 2.75683 9.28718 2.14868 8.83879 1.70029C8.3904 1.2519 7.78226 1 7.14814 1C6.51402 1 5.90588 1.2519 5.45749 1.70029C5.0091 2.14868 4.7572 2.75683 4.7572 3.39094V4.41563H4.41563C3.51008 4.41672 2.64193 4.77693 2.00161 5.41725C1.36129 6.05757 1.00108 6.92572 1 7.83127V38.572C1.00108 39.4775 1.36129 40.3457 2.00161 40.986C2.64193 41.6263 3.51008 41.9865 4.41563 41.9876ZM23.8082 32.4368L20.9104 29.5383L26.2238 24.2263L29.1216 27.1241L23.8082 32.4368ZM19.4683 33.8782L20.2935 30.8526L22.4925 33.0516L19.4683 33.8782ZM28.1557 22.2924L31.0576 25.1909L30.0875 26.1568L27.1897 23.259L28.1557 22.2924ZM39.749 12.6316C39.879 12.5072 40.052 12.4378 40.232 12.4378C40.4119 12.4378 40.5849 12.5072 40.7149 12.6316C40.843 12.7597 40.9149 12.9334 40.9149 13.1146C40.9149 13.2957 40.843 13.4694 40.7149 13.5975L39.266 15.0471L38.2987 14.0805L39.749 12.6316ZM36.3668 14.0805L39.266 16.979L32.0201 24.2263L29.1216 21.3278L36.3668 14.0805ZM19.4642 29.0526C19.3786 29.1373 19.3168 29.2431 19.2853 29.3593L18.1499 33.5168C18.0865 33.7492 18.0856 33.9943 18.1474 34.2271C18.2092 34.4599 18.3315 34.6723 18.5019 34.8426C18.6722 35.013 18.8846 35.1352 19.1174 35.1971C19.3502 35.2589 19.5953 35.258 19.8277 35.1946C20.8667 34.909 23.9872 34.0592 23.9872 34.0592C24.1034 34.0277 24.2093 33.9659 24.2939 33.8803L29.6906 28.4836V38.572C29.6906 39.1155 29.4747 39.6368 29.0904 40.0211C28.7061 40.4054 28.1848 40.6213 27.6413 40.6213H4.41563C3.8721 40.6213 3.35084 40.4054 2.9665 40.0211C2.58217 39.6368 2.36625 39.1155 2.36625 38.572V13.9794H29.6913V18.8248L19.4642 29.0526ZM23.8847 3.39094C23.8847 3.11918 23.9927 2.85854 24.1849 2.66638C24.377 2.47421 24.6377 2.36625 24.9094 2.36625C25.1812 2.36625 25.4418 2.47421 25.634 2.66638C25.8262 2.85854 25.9341 3.11918 25.9341 3.39094V6.12345C25.9341 6.39522 25.8262 6.65585 25.634 6.84802C25.4418 7.04018 25.1812 7.14814 24.9094 7.14814C24.6377 7.14814 24.377 7.04018 24.1849 6.84802C23.9927 6.65585 23.8847 6.39522 23.8847 6.12345V3.39094ZM15.0041 3.39094C15.0041 3.11918 15.1121 2.85854 15.3042 2.66638C15.4964 2.47421 15.757 2.36625 16.0288 2.36625C16.3006 2.36625 16.5612 2.47421 16.7534 2.66638C16.9455 2.85854 17.0535 3.11918 17.0535 3.39094V6.12345C17.0535 6.39522 16.9455 6.65585 16.7534 6.84802C16.5612 7.04018 16.3006 7.14814 16.0288 7.14814C15.757 7.14814 15.4964 7.04018 15.3042 6.84802C15.1121 6.65585 15.0041 6.39522 15.0041 6.12345V3.39094ZM6.12345 3.39094C6.12345 3.11918 6.23141 2.85854 6.42357 2.66638C6.61574 2.47421 6.87638 2.36625 7.14814 2.36625C7.4199 2.36625 7.68054 2.47421 7.87271 2.66638C8.06487 2.85854 8.17283 3.11918 8.17283 3.39094V6.12345C8.17283 6.39522 8.06487 6.65585 7.87271 6.84802C7.68054 7.04018 7.4199 7.14814 7.14814 7.14814C6.87638 7.14814 6.61574 7.04018 6.42357 6.84802C6.23141 6.65585 6.12345 6.39522 6.12345 6.12345V3.39094ZM4.41563 5.78189H4.7572V6.12345C4.7572 6.75757 5.0091 7.36571 5.45749 7.8141C5.90588 8.26249 6.51402 8.51439 7.14814 8.51439C7.78226 8.51439 8.3904 8.26249 8.83879 7.8141C9.28718 7.36571 9.53908 6.75757 9.53908 6.12345V5.78189H13.6378V6.12345C13.6378 6.75757 13.8897 7.36571 14.3381 7.8141C14.7865 8.26249 15.3947 8.51439 16.0288 8.51439C16.6629 8.51439 17.2711 8.26249 17.7194 7.8141C18.1678 7.36571 18.4197 6.75757 18.4197 6.12345V5.78189H22.5185V6.12345C22.5185 6.75757 22.7704 7.36571 23.2188 7.8141C23.6672 8.26249 24.2753 8.51439 24.9094 8.51439C25.5436 8.51439 26.1517 8.26249 26.6001 7.8141C27.0485 7.36571 27.3004 6.75757 27.3004 6.12345V5.78189H27.6419C28.1855 5.78189 28.7067 5.9978 29.0911 6.38214C29.4754 6.76647 29.6913 7.28774 29.6913 7.83127V12.6132H2.36625V7.83127C2.36625 7.28774 2.58217 6.76647 2.9665 6.38214C3.35084 5.9978 3.8721 5.78189 4.41563 5.78189Z" fill="#006CEA"/>
<path d="M4.41563 41.9876H27.6419C28.5475 41.9865 29.4156 41.6263 30.056 40.986C30.6963 40.3457 31.0565 39.4775 31.0576 38.572V27.1193L40.1432 18.0338C40.3252 18.4148 40.3851 18.8427 40.3147 19.2591C40.2442 19.6754 40.0469 20.0599 39.7497 20.3598L33.469 26.6398C33.3446 26.7686 33.2757 26.9412 33.2773 27.1203C33.2788 27.2994 33.3507 27.4708 33.4773 27.5974C33.604 27.7241 33.7753 27.7959 33.9544 27.7975C34.1336 27.799 34.3061 27.7302 34.435 27.6057L40.7149 21.3264C41.3545 20.6853 41.7136 19.8168 41.7136 18.9112C41.7136 18.0057 41.3545 17.1371 40.7149 16.496L40.232 16.0131L41.6809 14.5635C41.8712 14.3732 42.0222 14.1472 42.1252 13.8986C42.2282 13.6499 42.2812 13.3834 42.2812 13.1142C42.2812 12.8451 42.2282 12.5785 42.1252 12.3299C42.0222 12.0812 41.8712 11.8553 41.6809 11.665C41.2904 11.2925 40.7716 11.0848 40.232 11.0848C39.6924 11.0848 39.1735 11.2925 38.7831 11.665L37.3335 13.1139C37.2066 12.987 37.0559 12.8863 36.8901 12.8176C36.7243 12.7489 36.5466 12.7135 36.3672 12.7135C36.1877 12.7135 36.01 12.7489 35.8442 12.8176C35.6784 12.8863 35.5278 12.987 35.4009 13.1139L31.0576 17.4586V7.83127C31.0565 6.92572 30.6963 6.05757 30.056 5.41725C29.4156 4.77693 28.5475 4.41672 27.6419 4.41563H27.3004V3.39094C27.3004 2.75683 27.0485 2.14868 26.6001 1.70029C26.1517 1.2519 25.5436 1 24.9094 1C24.2753 1 23.6672 1.2519 23.2188 1.70029C22.7704 2.14868 22.5185 2.75683 22.5185 3.39094V4.41563H18.4197V3.39094C18.4197 2.75683 18.1678 2.14868 17.7194 1.70029C17.2711 1.2519 16.6629 1 16.0288 1C15.3947 1 14.7865 1.2519 14.3381 1.70029C13.8897 2.14868 13.6378 2.75683 13.6378 3.39094V4.41563H9.53908V3.39094C9.53908 2.75683 9.28718 2.14868 8.83879 1.70029C8.3904 1.2519 7.78226 1 7.14814 1C6.51402 1 5.90588 1.2519 5.45749 1.70029C5.0091 2.14868 4.7572 2.75683 4.7572 3.39094V4.41563H4.41563C3.51008 4.41672 2.64193 4.77693 2.00161 5.41725C1.36129 6.05757 1.00108 6.92572 1 7.83127V38.572C1.00108 39.4775 1.36129 40.3457 2.00161 40.986C2.64193 41.6263 3.51008 41.9865 4.41563 41.9876ZM23.8082 32.4368L20.9104 29.5383L26.2238 24.2263L29.1216 27.1241L23.8082 32.4368ZM19.4683 33.8782L20.2935 30.8526L22.4925 33.0516L19.4683 33.8782ZM28.1557 22.2924L31.0576 25.1909L30.0875 26.1568L27.1897 23.259L28.1557 22.2924ZM39.749 12.6316C39.879 12.5072 40.052 12.4378 40.232 12.4378C40.4119 12.4378 40.5849 12.5072 40.7149 12.6316C40.843 12.7597 40.9149 12.9334 40.9149 13.1146C40.9149 13.2957 40.843 13.4694 40.7149 13.5975L39.266 15.0471L38.2987 14.0805L39.749 12.6316ZM36.3668 14.0805L39.266 16.979L32.0201 24.2263L29.1216 21.3278L36.3668 14.0805ZM19.4642 29.0526C19.3786 29.1373 19.3168 29.2431 19.2853 29.3593L18.1499 33.5168C18.0865 33.7492 18.0856 33.9943 18.1474 34.2271C18.2092 34.4599 18.3315 34.6723 18.5019 34.8426C18.6722 35.013 18.8846 35.1352 19.1174 35.1971C19.3502 35.2589 19.5953 35.258 19.8277 35.1946C20.8667 34.909 23.9872 34.0592 23.9872 34.0592C24.1034 34.0277 24.2093 33.9659 24.2939 33.8803L29.6906 28.4836V38.572C29.6906 39.1155 29.4747 39.6368 29.0904 40.0211C28.7061 40.4054 28.1848 40.6213 27.6413 40.6213H4.41563C3.8721 40.6213 3.35084 40.4054 2.9665 40.0211C2.58217 39.6368 2.36625 39.1155 2.36625 38.572V13.9794H29.6913V18.8248L19.4642 29.0526ZM23.8847 3.39094C23.8847 3.11918 23.9927 2.85854 24.1849 2.66638C24.377 2.47421 24.6377 2.36625 24.9094 2.36625C25.1812 2.36625 25.4418 2.47421 25.634 2.66638C25.8262 2.85854 25.9341 3.11918 25.9341 3.39094V6.12345C25.9341 6.39522 25.8262 6.65585 25.634 6.84802C25.4418 7.04018 25.1812 7.14814 24.9094 7.14814C24.6377 7.14814 24.377 7.04018 24.1849 6.84802C23.9927 6.65585 23.8847 6.39522 23.8847 6.12345V3.39094ZM15.0041 3.39094C15.0041 3.11918 15.1121 2.85854 15.3042 2.66638C15.4964 2.47421 15.757 2.36625 16.0288 2.36625C16.3006 2.36625 16.5612 2.47421 16.7534 2.66638C16.9455 2.85854 17.0535 3.11918 17.0535 3.39094V6.12345C17.0535 6.39522 16.9455 6.65585 16.7534 6.84802C16.5612 7.04018 16.3006 7.14814 16.0288 7.14814C15.757 7.14814 15.4964 7.04018 15.3042 6.84802C15.1121 6.65585 15.0041 6.39522 15.0041 6.12345V3.39094ZM6.12345 3.39094C6.12345 3.11918 6.23141 2.85854 6.42357 2.66638C6.61574 2.47421 6.87638 2.36625 7.14814 2.36625C7.4199 2.36625 7.68054 2.47421 7.87271 2.66638C8.06487 2.85854 8.17283 3.11918 8.17283 3.39094V6.12345C8.17283 6.39522 8.06487 6.65585 7.87271 6.84802C7.68054 7.04018 7.4199 7.14814 7.14814 7.14814C6.87638 7.14814 6.61574 7.04018 6.42357 6.84802C6.23141 6.65585 6.12345 6.39522 6.12345 6.12345V3.39094ZM4.41563 5.78189H4.7572V6.12345C4.7572 6.75757 5.0091 7.36571 5.45749 7.8141C5.90588 8.26249 6.51402 8.51439 7.14814 8.51439C7.78226 8.51439 8.3904 8.26249 8.83879 7.8141C9.28718 7.36571 9.53908 6.75757 9.53908 6.12345V5.78189H13.6378V6.12345C13.6378 6.75757 13.8897 7.36571 14.3381 7.8141C14.7865 8.26249 15.3947 8.51439 16.0288 8.51439C16.6629 8.51439 17.2711 8.26249 17.7194 7.8141C18.1678 7.36571 18.4197 6.75757 18.4197 6.12345V5.78189H22.5185V6.12345C22.5185 6.75757 22.7704 7.36571 23.2188 7.8141C23.6672 8.26249 24.2753 8.51439 24.9094 8.51439C25.5436 8.51439 26.1517 8.26249 26.6001 7.8141C27.0485 7.36571 27.3004 6.75757 27.3004 6.12345V5.78189H27.6419C28.1855 5.78189 28.7067 5.9978 29.0911 6.38214C29.4754 6.76647 29.6913 7.28774 29.6913 7.83127V12.6132H2.36625V7.83127C2.36625 7.28774 2.58217 6.76647 2.9665 6.38214C3.35084 5.9978 3.8721 5.78189 4.41563 5.78189Z" stroke="#006CEA" stroke-width="0.4" mask="url(#path-2-outside-1_939_6197)"/>
<path d="M16.7119 35.9394C17.1444 35.9394 17.4951 35.5888 17.4951 35.1563C17.4951 34.7238 17.1444 34.3731 16.7119 34.3731C16.2794 34.3731 15.9288 34.7238 15.9288 35.1563C15.9288 35.5888 16.2794 35.9394 16.7119 35.9394Z" fill="#006CEA" stroke="#006CEA" stroke-width="0.2"/>
</svg>
