<svg width="9" height="8" viewBox="0 0 9 8" fill="#fff" xmlns="http://www.w3.org/2000/svg">
<path d="M7.6488 0.562988L6.94641 1.29886M4.27382 4.09885L5.71723 2.58664M5.71723 2.58664L6.77082 3.69044L8 2.40267L6.94641 1.29886M5.71723 2.58664L6.94641 1.29886M4.27382 4.09885C4.45515 4.2863 4.5993 4.50948 4.69797 4.75554C4.79664 5.0016 4.84788 5.26567 4.84873 5.53256C4.84959 5.79945 4.80004 6.06388 4.70295 6.31062C4.60585 6.55737 4.46313 6.78156 4.283 6.97028C4.10286 7.159 3.88888 7.30852 3.65336 7.41024C3.41784 7.51196 3.16544 7.56387 2.9107 7.56298C2.65595 7.56208 2.40389 7.5084 2.16903 7.40503C1.93416 7.30166 1.72114 7.15064 1.54222 6.96066C1.19036 6.57899 0.995672 6.06781 1.00007 5.53722C1.00447 5.00663 1.20762 4.49907 1.56575 4.12387C1.92388 3.74867 2.40834 3.53585 2.91479 3.53123C3.42124 3.52662 3.90916 3.7306 4.27346 4.09922L4.27382 4.09885Z" stroke="#fff" stroke-width="0.7" stroke-linecap="round" stroke-linejoin="round"/>
</svg>
