<svg width="46" height="46" viewBox="0 0 45 45" fill="none" xmlns="http://www.w3.org/2000/svg">
<path d="M27.4218 25.7063H17.5781V27.1125H27.4218V25.7063ZM19.4484 20.0812L18.7031 24.2297L22.5 22.2891L26.2265 24.2719L25.5375 20.0531L28.589 17.1422L24.3703 16.4953L22.5 12.7828L20.6015 16.5375L16.3828 17.1141L19.4484 20.0812ZM21.5578 17.8453L22.5 15.9609L23.414 17.8453L25.4953 18.1688L23.9765 19.575L24.314 21.6422L22.5 20.7L20.6297 21.6562L20.9953 19.5891L19.5047 18.1828L21.5578 17.8453ZM41.2453 24.1594V24.0891C42.2948 23.9273 43.2512 23.3938 43.9404 22.5859C44.6296 21.778 45.0056 20.7494 44.9999 19.6875V18.4781H44.2968C43.1755 18.4792 42.0977 18.9123 41.2874 19.6875C41.2348 18.9802 41.1456 18.2762 41.0203 17.5781H41.1187V17.5078C42.0694 16.875 42.7855 15.947 43.1565 14.8669C43.5275 13.7868 43.5329 12.6147 43.1718 11.5312L42.9328 10.8141L42.2296 11.1094C41.1647 11.5666 40.3181 12.4183 39.8671 13.4859C39.5949 12.8174 39.285 12.1648 38.939 11.5312C39.6457 10.6203 40.0397 9.50571 40.0625 8.353C40.0854 7.2003 39.7357 6.07098 39.0656 5.13281L38.5874 4.48594L37.9687 4.92188C37.1376 5.78074 36.6391 6.90729 36.5624 8.1C36.0968 7.60415 35.6039 7.13467 35.0859 6.69375C35.5385 5.59962 35.6055 4.38408 35.2758 3.24685C34.9461 2.10963 34.2394 1.11836 33.2718 0.435937L32.6109 0L32.2593 0.703125C31.8951 1.43276 31.7027 2.23608 31.6968 3.05156C30.763 2.68258 29.7313 2.6429 28.7718 2.93906H28.0125L28.1812 3.78281C28.2863 4.31162 28.4959 4.81413 28.7978 5.26087C29.0996 5.7076 29.4876 6.08957 29.939 6.38438C29.3451 6.81789 28.863 7.38673 28.5328 8.04375L28.2515 8.60625L28.7718 8.94375C29.4397 9.38381 30.222 9.61847 31.0218 9.61875C31.3679 9.61883 31.7127 9.57632 32.0484 9.49219C32.9711 9.22307 33.7809 8.66021 34.3546 7.88906C34.7965 8.30067 35.2144 8.73732 35.6062 9.19687C35.0245 9.144 34.4383 9.21711 33.8874 9.41125C33.3366 9.60539 32.834 9.91598 32.414 10.3219L31.8937 10.7578L32.2875 11.2922C32.6449 11.7911 33.1044 12.2083 33.6353 12.5162C34.1663 12.8241 34.7566 13.0156 35.3671 13.0781H35.7187C36.4699 13.0707 37.2045 12.8566 37.8421 12.4594C38.1234 12.9937 38.3765 13.5422 38.6156 14.1187H38.5031C37.9881 13.8562 37.4225 13.7077 36.845 13.6834C36.2674 13.6591 35.6914 13.7597 35.1562 13.9781L34.5515 14.2312L34.7484 14.85C34.9396 15.4771 35.258 16.058 35.6839 16.5565C36.1097 17.0549 36.6338 17.4601 37.2234 17.7469C37.7558 17.9968 38.3368 18.1264 38.9249 18.1266C39.1567 18.1193 39.3873 18.0911 39.614 18.0422C39.7124 18.6047 39.7828 19.1672 39.839 19.7437C39.0186 18.9545 37.9259 18.5113 36.7874 18.5063H36.0843V19.6875C36.0875 20.7197 36.4522 21.7181 37.115 22.5094C37.7778 23.3006 38.6968 23.8347 39.7124 24.0187C39.6281 24.6234 39.5156 25.2281 39.3749 25.8047C38.9256 24.7261 38.0802 23.8605 37.0124 23.3859L36.2812 23.0203L36.0281 23.8078C35.667 24.8717 35.661 26.024 36.011 27.0916C36.3609 28.1592 37.0479 29.0844 37.9687 29.7281C37.7182 30.2554 37.4364 30.7672 37.1249 31.2609C37.0309 30.0794 36.523 28.9689 35.6906 28.125L35.1562 27.4781L34.6781 28.1391C34.0127 29.0546 33.6543 30.1573 33.6543 31.2891C33.6543 32.4208 34.0127 33.5236 34.6781 34.4391C34.2703 34.8328 33.8484 35.2125 33.4125 35.5641C33.7244 34.3529 33.5896 33.0699 33.0328 31.95L32.7234 31.1203L31.9781 31.5984C31.0646 32.2638 30.3905 33.2063 30.056 34.2858C29.7215 35.3652 29.7446 36.5238 30.1218 37.5891C28.8132 38.1625 27.423 38.5278 26.0015 38.6719C24.8893 38.7889 23.8514 39.2855 23.0625 40.0781L22.4859 40.6547L21.9093 40.0781C21.1204 39.2855 20.0825 38.7889 18.9703 38.6719C17.5488 38.5278 16.1586 38.1625 14.85 37.5891C15.2272 36.5238 15.2503 35.3652 14.9158 34.2858C14.5813 33.2063 13.9072 32.2638 12.9937 31.5984L12.2765 31.0359L11.9672 31.8797C11.4019 33.0216 11.2575 34.3262 11.5594 35.5641C11.1234 35.2125 10.7015 34.8328 10.2937 34.4391C10.9551 33.5219 11.3109 32.4198 11.3109 31.2891C11.3109 30.1583 10.9551 29.0563 10.2937 28.1391L9.84374 27.5062L9.30936 28.125C8.44118 28.9784 7.91162 30.1174 7.81874 31.3313C7.52392 30.8134 7.26093 30.278 7.03124 29.7281C7.92428 29.0845 8.58952 28.1736 8.93078 27.1271C9.27205 26.0805 9.27166 24.9526 8.92967 23.9062L8.69061 23.175L7.98749 23.4703C6.92669 23.9336 6.082 24.7833 5.62499 25.8469C5.48437 25.2562 5.37187 24.6516 5.28749 24.0469C6.30012 23.8532 7.21304 23.3112 7.868 22.515C8.52296 21.7188 8.87865 20.7185 8.87342 19.6875V18.4781H8.1703C7.03578 18.4756 5.94352 18.9085 5.11874 19.6875C5.11874 19.1109 5.24531 18.5484 5.34374 17.9859C5.57041 18.0348 5.80104 18.0631 6.0328 18.0703C6.62098 18.0701 7.20191 17.9405 7.73436 17.6906C8.32392 17.4039 8.84801 16.9986 9.27386 16.5002C9.69971 16.0018 10.0182 15.4208 10.2094 14.7938L10.3922 14.175L9.84374 13.9781C9.32032 13.7593 8.75653 13.6537 8.1894 13.6682C7.62227 13.6828 7.06463 13.8171 6.55312 14.0625H6.44062C6.67968 13.4859 6.9328 12.9375 7.21405 12.4031C7.85165 12.8004 8.5863 13.0144 9.33749 13.0219H9.68905C10.2985 12.9611 10.8881 12.7717 11.4189 12.4663C11.9498 12.1608 12.4099 11.7463 12.7687 11.25L13.1203 10.7437L12.6562 10.35C12.233 9.934 11.7249 9.61433 11.1666 9.41288C10.6084 9.21144 10.0132 9.13296 9.42186 9.18281C9.81561 8.71875 10.2234 8.29688 10.6453 7.88906C11.2198 8.65946 12.0292 9.22213 12.9515 9.49219C13.2872 9.57632 13.632 9.61883 13.9781 9.61875C14.778 9.61847 15.5602 9.38381 16.2281 8.94375L16.7484 8.59219L16.4672 8.02969C16.1344 7.37049 15.6529 6.79762 15.0609 6.35625C15.5311 6.03712 15.9275 5.62099 16.2234 5.13586C16.5193 4.65074 16.708 4.10786 16.7765 3.54375L16.875 2.98125L16.2422 2.8125C15.8257 2.69459 15.3953 2.6331 14.9625 2.62969C14.3889 2.62671 13.8202 2.73661 13.289 2.95312C13.2638 2.16265 13.0721 1.38639 12.7265 0.675L12.3609 0L11.7281 0.421875C10.7785 1.10271 10.085 2.08259 9.75864 3.20451C9.43227 4.32642 9.49194 5.52542 9.92811 6.60937C9.39903 7.07797 8.9011 7.5806 8.43749 8.11406C8.32456 6.88175 7.77612 5.73004 6.89061 4.86562L6.32812 4.41563L5.89218 5.00625C5.22071 5.94723 4.87158 7.08015 4.89693 8.23587C4.92227 9.39158 5.32073 10.5081 6.0328 11.4187C5.6953 12.0375 5.39999 12.6844 5.11874 13.3453C4.65124 12.3417 3.83014 11.5456 2.8125 11.1094L2.10937 10.7437L1.85625 11.5172C1.49514 12.6006 1.50052 13.7728 1.87156 14.8529C2.2426 15.9329 2.95868 16.8609 3.90937 17.4937V17.5641H3.99374C3.86319 18.2665 3.76931 18.9753 3.71249 19.6875C2.89785 18.9226 1.82057 18.4997 0.703124 18.5063H0V19.6875C0.00335729 20.738 0.379955 21.7531 1.06256 22.5517C1.74517 23.3502 2.68936 23.8801 3.72656 24.0469V24.1172H3.83906C3.95156 24.8766 4.07812 25.6219 4.26093 26.3531H4.21874C3.71941 26.1174 3.17649 25.9882 2.6245 25.9736C2.07251 25.9591 1.52354 26.0596 1.0125 26.2688L0.351562 26.4797L0.562499 27.1406C0.753679 27.7677 1.07215 28.3486 1.498 28.8471C1.92385 29.3455 2.44794 29.7508 3.0375 30.0375C3.56934 30.2892 4.15067 30.4189 4.73906 30.4172C5.03678 30.4276 5.33459 30.3993 5.62499 30.3328V30.4031H5.75155C6.07481 31.0676 6.43151 31.7153 6.8203 32.3438C6.23321 32.2943 5.64238 32.373 5.08876 32.5746C4.53513 32.7761 4.03194 33.0956 3.61406 33.5109L3.15 33.9328L3.51562 34.4531C3.86919 34.9547 4.32793 35.3731 4.85983 35.6791C5.39173 35.9851 5.98399 36.1714 6.5953 36.225H6.94687C7.75506 36.2234 8.54403 35.9784 9.21092 35.5219L9.32342 35.4234C9.83243 35.9257 10.3726 36.3954 10.9406 36.8297C10.3538 37.0108 9.81035 37.3101 9.34359 37.7091C8.87683 38.1082 8.49668 38.5985 8.22655 39.15L7.91718 39.7125L8.45155 40.0641C9.11533 40.5145 9.89937 40.7546 10.7015 40.7531C11.0486 40.7548 11.3943 40.7075 11.7281 40.6125C12.7101 40.3408 13.5659 39.7338 14.1469 38.8969V38.7844C15.5915 39.4275 17.1296 39.8358 18.7031 39.9938C19.4883 40.0724 20.2205 40.4261 20.7703 40.9922L21.3468 41.5687L18.9562 43.9594L19.9547 44.9578L22.5 42.6375L24.8906 45L25.889 44.0016L23.4984 41.6109L24.075 41.0344C24.6248 40.4683 25.3569 40.1146 26.1422 40.0359C27.7204 39.8797 29.2635 39.4714 30.7125 38.8266V38.9391C31.2908 39.7725 32.1409 40.379 33.1171 40.6547C33.451 40.7497 33.7966 40.797 34.1437 40.7953C34.9459 40.7968 35.7299 40.5567 36.3937 40.1063L36.914 39.7547L36.6328 39.1922C36.3577 38.6417 35.9742 38.1524 35.5054 37.7537C35.0367 37.355 34.4922 37.055 33.9046 36.8719C34.4718 36.4418 35.0075 35.9719 35.5078 35.4656L35.6203 35.5781C36.2913 36.0243 37.0785 36.2638 37.8843 36.2672H38.2359C38.8484 36.212 39.4414 36.0235 39.9733 35.715C40.5053 35.4065 40.9634 34.9854 41.3156 34.4813L41.6671 33.9891L41.2171 33.5531C40.8222 33.1522 40.3482 32.8377 39.8254 32.6295C39.3025 32.4213 38.7421 32.324 38.1796 32.3438C38.5784 31.7114 38.9445 31.0589 39.2765 30.3891H39.4031V30.3187C39.676 30.3753 39.954 30.4036 40.2328 30.4031C40.8164 30.4032 41.3928 30.2735 41.9202 30.0234C42.5098 29.7367 43.0339 29.3315 43.4597 28.833C43.8856 28.3346 44.2041 27.7537 44.3952 27.1266L44.5781 26.5078L43.9874 26.2688C43.4709 26.0539 42.9151 25.9492 42.3558 25.9613C41.7965 25.9734 41.2458 26.102 40.739 26.3391C40.9218 25.6078 41.0484 24.8625 41.1609 24.1031L41.2453 24.1594ZM41.2453 22.5422C41.3296 21.9303 41.6002 21.3591 42.0203 20.9062C42.4405 20.4534 42.9898 20.1408 43.5937 20.0109C43.53 20.628 43.2789 21.2108 42.8741 21.6809C42.4694 22.151 41.9304 22.4859 41.3296 22.6406L41.2453 22.5422ZM29.7843 4.21875C30.1739 4.16499 30.5704 4.19353 30.9483 4.30253C31.3262 4.41153 31.677 4.59857 31.9781 4.85156C32.0557 5.10774 32.1545 5.35704 32.2734 5.59688C32.1088 5.59183 31.9441 5.60124 31.7812 5.625C31.3594 5.56959 30.9574 5.41269 30.6096 5.16776C30.2618 4.92283 29.9786 4.59718 29.7843 4.21875ZM31.6968 8.18437C31.1976 8.33919 30.6632 8.33919 30.164 8.18437C30.531 7.62698 31.0843 7.21825 31.725 7.03125C32.2182 6.86918 32.7504 6.86918 33.2437 7.03125C32.8706 7.56492 32.3239 7.95259 31.6968 8.12813V8.18437ZM33.9468 5.625C33.5707 5.15789 33.3067 4.61078 33.1751 4.02571C33.0434 3.44064 33.0477 2.83318 33.1875 2.25C33.5664 2.71553 33.8322 3.2626 33.9639 3.84822C34.0957 4.43383 34.0899 5.04203 33.9468 5.625ZM35.4234 11.6859C34.8304 11.6341 34.2715 11.3868 33.8343 10.9828C34.3088 10.688 34.8678 10.5594 35.4234 10.6172C36.0208 10.6681 36.5845 10.9153 37.0265 11.3203C36.54 11.5961 35.9798 11.7141 35.4234 11.6578V11.6859ZM38.1515 10.125C37.9297 9.56429 37.8372 8.96075 37.8811 8.35935C37.9249 7.75795 38.1039 7.17419 38.4046 6.65156C38.6254 7.21249 38.7173 7.81587 38.6735 8.4171C38.6297 9.01833 38.4513 9.60202 38.1515 10.125ZM37.8562 16.4672C37.2558 16.1517 36.7654 15.6613 36.4499 15.0609C36.9305 15.0059 37.4169 15.0837 37.8562 15.2859C38.461 15.5954 38.953 16.0874 39.2624 16.6922C38.7819 16.7487 38.2951 16.6708 37.8562 16.4672ZM13.0219 4.79531C13.3115 4.52862 13.654 4.32573 14.027 4.19976C14.4001 4.0738 14.7954 4.02757 15.1875 4.06406C15.0187 4.45954 14.7566 4.80817 14.4235 5.08005C14.0903 5.35192 13.6962 5.53892 13.275 5.625C13.0942 5.58775 12.9109 5.56425 12.7265 5.55469C12.8523 5.31307 12.9514 5.05844 13.0219 4.79531ZM12.6562 6.94688V7.17188L13.3172 7.03125C13.9179 7.20717 14.4487 7.56601 14.8359 8.05781C14.3367 8.21262 13.8023 8.21262 13.3031 8.05781C12.6875 7.88899 12.1411 7.52964 11.7422 7.03125C12.0396 6.94975 12.349 6.92119 12.6562 6.94688ZM11.7984 2.22187C11.948 2.80797 11.9584 3.4209 11.829 4.01176C11.6996 4.60262 11.4339 5.15506 11.0531 5.625C10.9069 5.03867 10.8981 4.42648 11.0273 3.83618C11.1566 3.24587 11.4205 2.69341 11.7984 2.22187ZM9.57655 10.6594C10.1319 10.6047 10.6899 10.7331 11.1656 11.025C10.7273 11.4272 10.169 11.6742 9.57655 11.7281C9.00464 11.7455 8.4424 11.5778 7.97343 11.25C8.42115 10.8603 8.98428 10.6281 9.57655 10.5891V10.6594ZM6.58124 6.66562C6.88021 7.18609 7.05933 7.76669 7.10555 8.36513C7.15177 8.96358 7.06393 9.5648 6.84843 10.125C6.54946 9.60453 6.37034 9.02393 6.32411 8.42549C6.27789 7.82705 6.36573 7.22583 6.58124 6.66562ZM7.14374 15.3281C7.58057 15.1178 8.06933 15.0396 8.54999 15.1031C8.24056 15.7079 7.74854 16.1999 7.14374 16.5094C6.70482 16.713 6.21803 16.7909 5.73749 16.7344C6.04692 16.1296 6.53894 15.6376 7.14374 15.3281ZM1.40625 20.0109C1.99122 20.1507 2.52091 20.4625 2.92697 20.9062C3.33303 21.3498 3.59684 21.905 3.68437 22.5V22.6125C3.08512 22.462 2.546 22.1324 2.13896 21.6675C1.73192 21.2027 1.47632 20.6248 1.40625 20.0109ZM3.00937 12.8531C3.45256 13.2489 3.79386 13.7457 4.00437 14.3013C4.21489 14.857 4.28842 15.4552 4.21874 16.0453C3.78017 15.6459 3.44207 15.1487 3.23192 14.594C3.02177 14.0393 2.94552 13.4428 3.00937 12.8531ZM3.62812 28.7719C3.02041 28.4664 2.5273 27.9733 2.22187 27.3656C2.70234 27.312 3.18836 27.3898 3.62812 27.5906C4.23465 27.8977 4.72732 28.3903 5.03437 28.9969C4.55393 29.0491 4.06829 28.9714 3.62812 28.7719ZM7.45311 20.0109C7.38935 20.636 7.13331 21.2259 6.72026 21.6994C6.30722 22.1729 5.75751 22.5067 5.14687 22.6547C5.20862 22.0289 5.46395 21.438 5.87732 20.9641C6.29068 20.4902 6.84151 20.1571 7.45311 20.0109ZM6.52499 28.3641C6.46282 27.7706 6.54404 27.171 6.76183 26.6155C6.97963 26.06 7.32762 25.5649 7.77655 25.1719C7.83295 25.7648 7.74904 26.3627 7.53163 26.9173C7.31421 27.4718 6.96937 27.9674 6.52499 28.3641ZM6.72187 34.7906C6.1245 34.7397 5.56079 34.4925 5.11874 34.0875C5.61625 33.7926 6.19565 33.6661 6.7708 33.7269C7.34594 33.7877 7.88609 34.0326 8.31093 34.425C7.83527 34.7169 7.27725 34.8453 6.72187 34.7906ZM9.44999 33.2578C9.22854 32.7019 9.13626 32.1029 9.18011 31.506C9.22396 30.9092 9.40279 30.3301 9.70311 29.8125C9.92051 30.3693 10.0106 30.9677 9.96682 31.5638C9.92302 32.16 9.74643 32.7388 9.44999 33.2578ZM11.4187 39.375C10.9184 39.5223 10.3862 39.5223 9.88592 39.375C10.2793 38.8647 10.8267 38.4948 11.4469 38.3203C11.9413 38.1658 12.4712 38.1658 12.9656 38.3203C12.5766 38.8289 12.0342 39.1987 11.4187 39.375ZM13.6687 36.8438C13.2997 36.3729 13.0411 35.8252 12.9121 35.2411C12.7831 34.6569 12.7869 34.0512 12.9234 33.4688C13.2858 33.9294 13.5407 34.4651 13.6696 35.0368C13.7986 35.6086 13.7983 36.2019 13.6687 36.7734V36.8438ZM32.0765 33.4688C32.2172 34.0509 32.2231 34.6576 32.094 35.2424C31.9648 35.8272 31.7039 36.3749 31.3312 36.8438C31.177 36.2512 31.164 35.6308 31.2935 35.0323C31.423 34.4339 31.6912 33.8742 32.0765 33.3984V33.4688ZM35.1562 39.2484C34.6607 39.3962 34.1329 39.3962 33.6375 39.2484C33.0219 39.0721 32.4796 38.7023 32.0906 38.1937C32.585 38.0392 33.1149 38.0392 33.6093 38.1937C34.2303 38.3583 34.7762 38.7305 35.1562 39.2484ZM35.6062 33.2578C35.3057 32.7377 35.1268 32.1563 35.0829 31.5572C35.0391 30.958 35.1314 30.3568 35.3531 29.7984C35.6436 30.3233 35.8121 30.9068 35.8462 31.5057C35.8803 32.1045 35.779 32.7034 35.5499 33.2578H35.6062ZM38.3484 33.7219C38.9033 33.6742 39.4591 33.8021 39.9374 34.0875C39.4954 34.4925 38.9317 34.7397 38.3343 34.7906C37.7793 34.8402 37.2228 34.7122 36.7453 34.425C37.176 34.0413 37.7179 33.8049 38.2921 33.75L38.3484 33.7219ZM37.2796 25.1578C37.7297 25.553 38.0783 26.0505 38.2961 26.6084C38.5139 27.1664 38.5945 27.7685 38.5312 28.3641C38.0755 27.9709 37.7194 27.4753 37.4921 26.9181C37.2648 26.3608 37.1727 25.7575 37.2234 25.1578H37.2796ZM37.6031 20.0109C38.2147 20.1571 38.7655 20.4902 39.1789 20.9641C39.5922 21.438 39.8476 22.0289 39.9093 22.6547C39.2883 22.5169 38.7262 22.1876 38.3023 21.7133C37.8784 21.2389 37.6142 20.6435 37.5468 20.0109H37.6031ZM41.414 27.6328C41.8547 27.4354 42.341 27.3624 42.8203 27.4219C42.5124 28.0278 42.02 28.5203 41.414 28.8281C40.9752 29.0324 40.4895 29.115 40.0078 29.0672C40.2953 28.4587 40.7678 27.9567 41.3578 27.6328H41.414ZM40.7812 16.0594C40.7191 15.4639 40.8002 14.8621 41.0179 14.3044C41.2357 13.7466 41.5836 13.2491 42.0327 12.8531C42.0903 13.4483 42.007 14.0486 41.7896 14.6056C41.5721 15.1626 41.2267 15.6606 40.7812 16.0594ZM25.3125 29.925V28.5188H19.6875V29.925H25.3125Z" fill="#006CEA"/>
</svg>
