<svg width="18" height="18" viewBox="0 0 18 18" fill="none" xmlns="http://www.w3.org/2000/svg">
<g clip-path="url(#clip0_227_950)">
<path d="M17.25 3V7.5H12.75" stroke="#7B7B7B" stroke-width="2" stroke-linecap="round" stroke-linejoin="round"/>
<path d="M0.75 15V10.5H5.25" stroke="#7B7B7B" stroke-width="2" stroke-linecap="round" stroke-linejoin="round"/>
<path d="M2.6325 6.74993C3.01288 5.67502 3.65935 4.71399 4.5116 3.9565C5.36385 3.19901 6.3941 2.66976 7.50622 2.41813C8.61833 2.1665 9.77607 2.20069 10.8714 2.51751C11.9667 2.83434 12.9639 3.42347 13.77 4.22993L17.25 7.49993M0.75 10.4999L4.23 13.7699C5.03606 14.5764 6.03328 15.1655 7.12861 15.4824C8.22393 15.7992 9.38167 15.8334 10.4938 15.5817C11.6059 15.3301 12.6362 14.8009 13.4884 14.0434C14.3407 13.2859 14.9871 12.3248 15.3675 11.2499" stroke="#7B7B7B" stroke-width="2" stroke-linecap="round" stroke-linejoin="round"/>
</g>
<defs>
<clipPath id="clip0_227_950">
<rect width="18" height="18" fill="white"/>
</clipPath>
</defs>
</svg>
