<svg width="16" height="17" viewBox="0 0 16 17" fill="#fff" xmlns="http://www.w3.org/2000/svg">
<path d="M10.3028 12.192C9.03431 13.1779 7.43794 13.643 5.83873 13.4926C4.23952 13.3422 2.75772 12.5877 1.69506 11.3826C0.632391 10.1774 0.0687596 8.61241 0.118928 7.00611C0.169096 5.39982 0.829292 3.87304 1.96509 2.73666C3.10088 1.60029 4.62688 0.939753 6.23235 0.889559C7.83783 0.839365 9.40206 1.40328 10.6066 2.46649C11.8111 3.5297 12.5652 5.01226 12.7155 6.61229C12.8659 8.21232 12.401 9.80951 11.4156 11.0786L15.0765 14.7278C15.3864 15.0367 15.3869 15.5384 15.0776 15.8479C14.7682 16.1574 14.2664 16.1572 13.9574 15.8474L10.3107 12.192H10.3028ZM6.43566 11.9393C7.05751 11.9393 7.67327 11.8168 8.24778 11.5787C8.82229 11.3406 9.3443 10.9916 9.78401 10.5517C10.2237 10.1118 10.5725 9.58948 10.8105 9.01467C11.0485 8.43987 11.1709 7.8238 11.1709 7.20163C11.1709 6.57947 11.0485 5.9634 10.8105 5.38859C10.5725 4.81379 10.2237 4.29151 9.78401 3.85157C9.3443 3.41164 8.82229 3.06266 8.24778 2.82457C7.67327 2.58648 7.05751 2.46393 6.43566 2.46393C5.17979 2.46393 3.97536 2.96308 3.08732 3.85157C2.19928 4.74007 1.70039 5.94512 1.70039 7.20163C1.70039 8.45815 2.19928 9.6632 3.08732 10.5517C3.97536 11.4402 5.17979 11.9393 6.43566 11.9393Z" fill="#fff"/>
</svg>
