<svg width="7" height="7" viewBox="0 0 7 7" fill="none" xmlns="http://www.w3.org/2000/svg">
<g clip-path="url(#clip0_1178_323)">
<path d="M0.875 1.75H1.45843H6.12585" stroke="#FD6363" stroke-width="0.708201" stroke-linecap="round" stroke-linejoin="round"/>
<path d="M5.54207 1.75019V5.83353C5.54207 5.98824 5.48062 6.13661 5.37122 6.24601C5.26182 6.3554 5.11345 6.41686 4.95874 6.41686H2.04207C1.88736 6.41686 1.73899 6.3554 1.62959 6.24601C1.5202 6.13661 1.45874 5.98824 1.45874 5.83353V1.75019M2.33374 1.75019V1.16686C2.33374 1.01215 2.3952 0.863777 2.50459 0.754381C2.61399 0.644985 2.76236 0.583527 2.91707 0.583527H4.08374C4.23845 0.583527 4.38682 0.644985 4.49622 0.754381C4.60562 0.863777 4.66707 1.01215 4.66707 1.16686V1.75019" stroke="#FD6363" stroke-width="0.708201" stroke-linecap="round" stroke-linejoin="round"/>
<path d="M2.91675 3.2084V4.95869" stroke="#FD6363" stroke-width="0.708201" stroke-linecap="round" stroke-linejoin="round"/>
<path d="M4.0835 3.2084V4.95869" stroke="#FD6363" stroke-width="0.708201" stroke-linecap="round" stroke-linejoin="round"/>
</g>
<defs>
<clipPath id="clip0_1178_323">
<rect width="7" height="7" fill="white"/>
</clipPath>
</defs>
</svg>
