<svg width="20" height="20" viewBox="0 0 20 20" fill="none" xmlns="http://www.w3.org/2000/svg">
<g clip-path="url(#clip0_1138_929)">
<path d="M16.667 1.66675H3.33366C2.41318 1.66675 1.66699 2.41294 1.66699 3.33341V6.66675C1.66699 7.58722 2.41318 8.33341 3.33366 8.33341H16.667C17.5875 8.33341 18.3337 7.58722 18.3337 6.66675V3.33341C18.3337 2.41294 17.5875 1.66675 16.667 1.66675Z" stroke="white" stroke-width="1.5" stroke-linecap="round" stroke-linejoin="round"/>
<path d="M16.667 11.6667H3.33366C2.41318 11.6667 1.66699 12.4129 1.66699 13.3334V16.6667C1.66699 17.5872 2.41318 18.3334 3.33366 18.3334H16.667C17.5875 18.3334 18.3337 17.5872 18.3337 16.6667V13.3334C18.3337 12.4129 17.5875 11.6667 16.667 11.6667Z" stroke="white" stroke-width="1.5" stroke-linecap="round" stroke-linejoin="round"/>
<path d="M5 5H5.0085" stroke="white" stroke-width="1.5" stroke-linecap="round" stroke-linejoin="round"/>
<path d="M5 15H5.0085" stroke="white" stroke-width="1.5" stroke-linecap="round" stroke-linejoin="round"/>
</g>
<defs>
<clipPath id="clip0_1138_929">
<rect width="20" height="20" fill="white"/>
</clipPath>
</defs>
</svg>
