<svg width="21" height="21" viewBox="0 0 21 21" fill="none" xmlns="http://www.w3.org/2000/svg">
<path d="M18.375 14V7.00004C18.3747 6.69315 18.2937 6.39175 18.1401 6.12605C17.9865 5.86036 17.7658 5.63973 17.5 5.48629L11.375 1.98629C11.109 1.83269 10.8072 1.75183 10.5 1.75183C10.1928 1.75183 9.89103 1.83269 9.625 1.98629L3.5 5.48629C3.23423 5.63973 3.01348 5.86036 2.8599 6.12605C2.70632 6.39175 2.62531 6.69315 2.625 7.00004V14C2.62531 14.3069 2.70632 14.6083 2.8599 14.874C3.01348 15.1397 3.23423 15.3603 3.5 15.5138L9.625 19.0138C9.89103 19.1674 10.1928 19.2482 10.5 19.2482C10.8072 19.2482 11.109 19.1674 11.375 19.0138L17.5 15.5138C17.7658 15.3603 17.9865 15.1397 18.1401 14.874C18.2937 14.6083 18.3747 14.3069 18.375 14Z" stroke="white" stroke-width="1.5" stroke-linecap="round" stroke-linejoin="round"/>
<path d="M2.86121 6.08997L10.5 10.5087L18.1387 6.08997" stroke="white" stroke-width="1.5" stroke-linecap="round" stroke-linejoin="round"/>
<path d="M10.5 19.32V10.5" stroke="white" stroke-width="1.5" stroke-linecap="round" stroke-linejoin="round"/>
</svg>
