<svg width="46" height="46" viewBox="0 0 46 46" fill="none" xmlns="http://www.w3.org/2000/svg">
<path d="M30.1875 17.2501H15.8125C15.4313 17.2501 15.0656 17.0986 14.796 16.8291C14.5265 16.5595 14.375 16.1938 14.375 15.8126V8.62509C14.375 8.24384 14.5265 7.87821 14.796 7.60863C15.0656 7.33904 15.4313 7.18759 15.8125 7.18759H17.4369C17.7585 5.9571 18.479 4.86795 19.4856 4.09061C20.4922 3.31327 21.7282 2.8916 23 2.8916C24.2718 2.8916 25.5078 3.31327 26.5144 4.09061C27.521 4.86795 28.2415 5.9571 28.5631 7.18759H30.1875C30.5687 7.18759 30.9344 7.33904 31.204 7.60863C31.4736 7.87821 31.625 8.24384 31.625 8.62509V15.8126C31.625 16.1938 31.4736 16.5595 31.204 16.8291C30.9344 17.0986 30.5687 17.2501 30.1875 17.2501ZM17.25 14.3751H28.75V10.0626H27.3125C26.9313 10.0626 26.5656 9.91114 26.296 9.64156C26.0264 9.37198 25.875 9.00634 25.875 8.62509C25.875 7.8626 25.5721 7.13133 25.0329 6.59216C24.4938 6.05299 23.7625 5.75009 23 5.75009C22.2375 5.75009 21.5062 6.05299 20.9671 6.59216C20.4279 7.13133 20.125 7.8626 20.125 8.62509C20.125 9.00634 19.9735 9.37198 19.704 9.64156C19.4344 9.91114 19.0687 10.0626 18.6875 10.0626H17.25V14.3751ZM38.8125 38.8126V12.9376C38.8125 11.7938 38.3581 10.6969 37.5494 9.8882C36.7406 9.07945 35.6437 8.62509 34.5 8.62509H33.0625V11.5001H34.5C34.8812 11.5001 35.2469 11.6515 35.5165 11.9211C35.7861 12.1907 35.9375 12.5563 35.9375 12.9376V38.8126C35.9375 39.1938 35.7861 39.5595 35.5165 39.8291C35.2469 40.0986 34.8812 40.2501 34.5 40.2501H11.5C11.1188 40.2501 10.7531 40.0986 10.4835 39.8291C10.214 39.5595 10.0625 39.1938 10.0625 38.8126V12.9376C10.0625 12.5563 10.214 12.1907 10.4835 11.9211C10.7531 11.6515 11.1188 11.5001 11.5 11.5001H12.9375V8.62509H11.5C10.3563 8.62509 9.25935 9.07945 8.4506 9.8882C7.64185 10.6969 7.1875 11.7938 7.1875 12.9376V38.8126C7.1875 39.9563 7.64185 41.0532 8.4506 41.862C9.25935 42.6707 10.3563 43.1251 11.5 43.1251H34.5C35.6437 43.1251 36.7406 42.6707 37.5494 41.862C38.3581 41.0532 38.8125 39.9563 38.8125 38.8126ZM31.625 21.5626H14.375V24.4376H31.625V21.5626ZM31.625 27.3126H14.375V30.1876H31.625V27.3126ZM31.625 33.0626H14.375V35.9376H31.625V33.0626Z" fill="#1E7CED"/>
</svg>
