<svg width="19" height="22" viewBox="0 0 19 22" fill="none" xmlns="http://www.w3.org/2000/svg">
<path d="M9.85939 9.14815V2.85185C9.85939 2.36071 9.67131 1.88968 9.33653 1.54239C9.00175 1.19511 8.54769 1 8.07424 1C7.60079 1 7.14673 1.19511 6.81194 1.54239C6.47716 1.88968 6.28909 2.36071 6.28909 2.85185V14.0802L4.33189 10.5636C4.21478 10.3527 4.05877 10.1679 3.87277 10.0197C3.68678 9.87144 3.47444 9.76267 3.2479 9.6996C3.02137 9.63653 2.78507 9.62038 2.55251 9.65209C2.31996 9.6838 2.09571 9.76274 1.89258 9.8844C1.68945 10.0061 1.51142 10.1681 1.36867 10.3611C1.22592 10.5542 1.12125 10.7745 1.06063 11.0096C1.00002 11.2447 0.984657 11.4898 1.01542 11.731C1.04618 11.9722 1.12246 12.2048 1.23991 12.4154C4.1469 18.7778 5.91574 21 9.85939 21C10.7971 21 11.7256 20.8084 12.592 20.4361C13.4583 20.0639 14.2455 19.5183 14.9086 18.8304C15.5716 18.1426 16.0976 17.326 16.4565 16.4273C16.8153 15.5286 17 14.5653 17 13.5926V9.88889C17 9.39775 16.8119 8.92672 16.4771 8.57943C16.1424 8.23214 15.6883 8.03704 15.2148 8.03704C14.7414 8.03704 14.2873 8.23214 13.9526 8.57943C13.6178 8.92672 13.4297 9.39775 13.4297 9.88889" stroke="white" stroke-linecap="round" stroke-linejoin="round"/>
<path d="M13 10V8.875C13 8.37772 12.842 7.90081 12.5607 7.54917C12.2794 7.19754 11.8978 7 11.5 7C11.1022 7 10.7206 7.19754 10.4393 7.54917C10.158 7.90081 10 8.37772 10 8.875V9.25" stroke="white" stroke-linecap="round" stroke-linejoin="round"/>
</svg>
