<svg width="46" height="46" viewBox="0 0 45 45" fill="none" xmlns="http://www.w3.org/2000/svg">
<path d="M43.2867 15.6495C43.2891 15.65 43.2916 15.6504 43.2941 15.651C43.3711 15.667 43.4185 15.7134 43.4418 15.7441C43.4643 15.7736 43.4748 15.8013 43.4794 15.8148C43.4887 15.8423 43.4908 15.8647 43.4914 15.8708C43.4922 15.8801 43.4923 15.8872 43.4923 15.8906L43.2544 15.8576C43.2631 15.8169 43.2754 15.745 43.2867 15.6495ZM40.9867 24.7829L43.4713 15.9994C43.4729 15.996 43.4743 15.9928 43.4756 15.9898C43.4776 15.9851 43.4791 15.981 43.4802 15.978C43.4842 15.9673 43.487 15.9576 43.4888 15.9512C43.4958 15.9265 43.5025 15.8939 43.5087 15.8595C43.5216 15.7872 43.5369 15.6797 43.5484 15.5477C43.5714 15.2858 43.581 14.9167 43.5258 14.5256C43.4851 14.0925 43.3013 13.6101 43.0379 13.1804C42.7729 12.748 42.4135 12.3464 42.0028 12.0921L42.0028 12.0921L41.9988 12.0897L33.949 7.30906C33.9489 7.30899 33.9488 7.30892 33.9487 7.30885C33.1996 6.85951 32.1338 6.60547 31.1837 6.60547C30.6691 6.60547 30.1821 6.67882 29.7623 6.83146L29.7623 6.83133L29.7546 6.83439L2.5114 17.7669C2.51091 17.767 2.51042 17.7672 2.50993 17.7674C1.87948 18.0121 1.45673 18.5563 1.26376 19.1931C1.07089 19.8296 1.10104 20.5741 1.38586 21.2587C1.38608 21.2592 1.38629 21.2597 1.3865 21.2602L7.81885 37.2884L7.81884 37.2884L7.81986 37.2909C8.27235 38.3844 9.26611 39.1328 10.3009 39.1328C10.5322 39.1328 10.8162 39.0954 11.0712 38.9705L38.27 28.0066C38.2706 28.0064 38.2711 28.0062 38.2717 28.0059C38.8699 27.7739 39.4557 27.2834 39.9325 26.7067C40.4114 26.1274 40.7995 25.4381 40.9866 24.7835L40.9867 24.7829ZM39.1346 24.2947L39.1337 24.2983C39.0228 24.7102 38.7636 25.1529 38.4543 25.5207C38.1404 25.8939 37.8063 26.1532 37.5692 26.2369L37.5691 26.2367L37.559 26.2408L10.3751 37.1986C10.3566 37.2026 10.3417 37.2075 10.3314 37.2111C10.3205 37.215 10.3109 37.2189 10.3051 37.2213L10.2926 37.2264C10.2114 37.2235 10.0851 37.1783 9.94529 37.0636C9.80567 36.949 9.67231 36.7804 9.58254 36.5721L3.15007 20.5436L3.15008 20.5436L3.14922 20.5415C3.04679 20.2928 3.0407 20.0463 3.083 19.856C3.10419 19.7607 3.13626 19.6851 3.16912 19.6329C3.20108 19.5822 3.22462 19.5675 3.22729 19.5659C3.2273 19.5659 3.2273 19.5659 3.2273 19.5659L30.4328 8.59931C30.4329 8.59927 30.433 8.59922 30.4331 8.59918C30.5623 8.54763 30.838 8.51172 31.1485 8.51172C31.817 8.51172 32.5095 8.68009 32.9563 8.9348C32.9569 8.93513 32.9575 8.93547 32.9581 8.93581L41.0043 13.7144C41.0044 13.7144 41.0045 13.7145 41.0046 13.7146C41.1316 13.7909 41.2815 13.9551 41.4071 14.1616C41.5325 14.368 41.6094 14.5767 41.6222 14.7179L41.623 14.7272L41.6246 14.7364C41.6557 14.9229 41.6561 15.1052 41.6479 15.2575C41.6438 15.3334 41.6376 15.4006 41.6322 15.4577L41.6307 15.4735C41.6277 15.5048 41.6243 15.5391 41.6225 15.5696L39.1346 24.2947Z" fill="#006CEA" stroke="#006CEA" stroke-width="0.5"/>
<path d="M9.89623 26.4564C9.90395 26.4548 9.911 26.4531 9.91682 26.4515L9.97483 26.4806L10.0579 26.4477L25.1705 20.473C25.4968 20.3608 25.6039 20.0265 25.5004 19.7594C25.3876 19.4309 25.0497 19.3244 24.7817 19.4313C24.7816 19.4313 24.7814 19.4314 24.7812 19.4315L9.66936 25.4059C9.34581 25.5172 9.23779 25.8467 9.33685 26.1126C9.40778 26.3661 9.65487 26.4617 9.84375 26.4617C9.86472 26.4617 9.88269 26.4591 9.89623 26.4564ZM11.0391 29.1336H11.0772L11.1126 29.1196L26.2252 23.1448C26.5515 23.0326 26.6586 22.6984 26.5551 22.4313C26.4422 22.1027 26.1043 21.9963 25.8363 22.1032C25.8362 22.1033 25.836 22.1033 25.8359 22.1034L10.724 28.0778C10.4005 28.1891 10.2925 28.5186 10.3915 28.7845C10.4625 29.038 10.7096 29.1336 10.8984 29.1336H11.0391ZM12.0938 31.8406H12.1319L12.1673 31.8266L27.2799 25.8519C27.6062 25.7397 27.7133 25.4054 27.6098 25.1383C27.4969 24.8097 27.1589 24.7033 26.891 24.8102C26.8908 24.8103 26.8907 24.8103 26.8906 24.8104L11.7788 30.7848C11.4552 30.8961 11.3472 31.2256 11.4462 31.4915C11.5172 31.745 11.7642 31.8406 11.9531 31.8406H12.0938ZM8.57812 23.7547H8.61622L8.65166 23.7407L23.7642 17.7659C24.0906 17.6537 24.1977 17.3194 24.0941 17.0524C23.9813 16.7238 23.6434 16.6174 23.3754 16.7243C23.3753 16.7243 23.3751 16.7244 23.3749 16.7245L8.26311 22.6989C7.93956 22.8101 7.83154 23.1397 7.9306 23.4056C8.00153 23.6591 8.24862 23.7547 8.4375 23.7547H8.57812ZM33.8203 13.2648C31.5302 13.2648 29.6828 15.1122 29.6828 17.4023C29.6828 19.6925 31.5302 21.5398 33.8203 21.5398C36.1099 21.5398 37.9569 19.6934 37.9578 17.404C37.9939 15.1465 36.1444 13.2648 33.8203 13.2648ZM33.8203 19.7688C32.5263 19.7688 31.4891 18.6999 31.4891 17.4375C31.4891 16.1769 32.5597 15.1063 33.8203 15.1063C35.0809 15.1063 36.1516 16.1769 36.1516 17.4375C36.1516 18.6999 35.1143 19.7688 33.8203 19.7688Z" fill="#006CEA" stroke="#006CEA" stroke-width="0.4"/>
</svg>
