<svg width="19" height="20" viewBox="0 0 19 20" fill="none" xmlns="http://www.w3.org/2000/svg">
<path fill-rule="evenodd" clip-rule="evenodd" d="M9.13098 0C14.1659 0 18.2613 4.09541 18.2613 9.13028C18.2613 11.5057 17.3497 13.6722 15.8579 15.2982L18.7933 18.2275C19.068 18.5022 19.0689 18.9466 18.7942 19.2213C18.6573 19.3601 18.4763 19.4285 18.2963 19.4285C18.1172 19.4285 17.9372 19.3601 17.7994 19.2232L14.8286 16.2607C13.2658 17.5122 11.2843 18.2615 9.13098 18.2615C4.0961 18.2615 -0.000244141 14.1652 -0.000244141 9.13028C-0.000244141 4.09541 4.0961 0 9.13098 0ZM9.13098 1.40639C4.87149 1.40639 1.40615 4.8708 1.40615 9.13028C1.40615 13.3898 4.87149 16.8551 9.13098 16.8551C13.3895 16.8551 16.8549 13.3898 16.8549 9.13028C16.8549 4.8708 13.3895 1.40639 9.13098 1.40639Z" fill="#fff"/>
</svg>
