<svg width="26" height="26" viewBox="0 0 26 26" fill="none" xmlns="http://www.w3.org/2000/svg">
<g clip-path="url(#clip0_227_815)">
<path d="M13.0001 2.72192C9.87197 2.72192 7.27197 5.2813 7.27197 8.45005C7.27197 11.6188 9.83135 14.1782 13.0001 14.1782C16.1282 14.1782 18.7282 11.6188 18.7282 8.45005C18.7282 5.2813 16.1282 2.72192 13.0001 2.72192ZM13.0001 13.3657C10.2782 13.3657 8.08447 11.1719 8.08447 8.45005C8.08447 5.72817 10.2782 3.53442 13.0001 3.53442C15.722 3.53442 17.9157 5.72817 17.9157 8.45005C17.9157 11.1313 15.722 13.3657 13.0001 13.3657Z" fill="#2B2E63"/>
<path d="M21.0437 6.82497C20.8406 6.54059 20.5968 6.25622 20.5156 6.01247C20.4343 5.72809 20.4343 5.36247 20.4343 4.99684C20.4343 4.38747 20.4343 3.77809 20.1093 3.29059C19.7437 2.80309 19.1343 2.59997 18.6062 2.43747C18.2406 2.31559 17.9156 2.23434 17.6718 2.03122C17.4281 1.86872 17.225 1.58434 17.0218 1.25934C16.6968 0.771844 16.3312 0.243719 15.7218 0.0812191C15.1531 -0.0812809 14.5843 0.0812191 14.0156 0.284344C13.65 0.406219 13.325 0.528094 13 0.528094C12.675 0.528094 12.35 0.406219 11.9843 0.284344C11.4156 0.0812191 10.8468 -0.0812809 10.2781 0.0812191C9.6687 0.284344 9.30308 0.812469 8.97808 1.25934C8.77495 1.54372 8.57183 1.86872 8.32808 1.99059C8.08433 2.15309 7.75933 2.27497 7.3937 2.39684C6.82495 2.55934 6.21558 2.76247 5.89058 3.24997C5.52495 3.73747 5.52495 4.34684 5.52495 4.95622C5.52495 5.32184 5.52495 5.68747 5.4437 5.97184C5.36245 6.21559 5.15933 6.49997 4.91558 6.78434C4.59058 7.23122 4.18433 7.75934 4.18433 8.40934C4.18433 9.05934 4.59058 9.54684 4.91558 10.0343C5.1187 10.3187 5.36245 10.6031 5.4437 10.8468C5.52495 11.1312 5.52495 11.4968 5.52495 11.8625C5.52495 12.4718 5.52495 13.0812 5.89058 13.5687C6.2562 14.0562 6.86558 14.2593 7.3937 14.4218C7.75933 14.5437 8.08433 14.625 8.32808 14.8281C8.44995 14.95 8.61245 15.0718 8.73433 15.275V25.5937C8.73433 25.7562 8.81558 25.9187 8.97808 25.9593C9.0187 25.9593 9.05933 26 9.14058 26C9.26245 26 9.3437 25.9593 9.42495 25.8781L13 21.8968L16.575 25.8781C16.6968 26 16.8593 26.0406 17.0218 26C17.1843 25.9593 17.2656 25.7968 17.2656 25.6343V15.275C17.3875 15.1125 17.55 14.95 17.6718 14.8281C17.9156 14.6656 18.2406 14.5437 18.6062 14.4218C19.1749 14.2593 19.7437 14.0562 20.1093 13.5687C20.475 13.0812 20.475 12.4718 20.4343 11.8625C20.4343 11.4968 20.4343 11.1312 20.5156 10.8468C20.5968 10.6031 20.7999 10.3187 21.0437 10.0343C21.3687 9.58747 21.775 9.05934 21.775 8.40934C21.775 7.79997 21.4093 7.27184 21.0437 6.82497ZM12.5937 21.1656L9.5062 24.5781V16.2906C9.70933 16.4937 9.95308 16.6968 10.2375 16.7781C10.4 16.8187 10.5624 16.8593 10.7249 16.8593C11.1312 16.8593 11.5374 16.7375 11.9437 16.575C12.1468 16.4937 12.3499 16.4531 12.5531 16.3718V21.1656H12.5937ZM16.4531 24.5781L13.4062 21.1656V16.4125C13.6093 16.4531 13.8125 16.5343 14.0156 16.6156C14.5843 16.8187 15.1531 16.9812 15.7218 16.8187C16.0062 16.7375 16.25 16.5343 16.4937 16.3312V24.5781H16.4531ZM20.4343 9.58747C20.1906 9.91247 19.9468 10.2781 19.825 10.6437C19.7031 11.05 19.7031 11.4968 19.7031 11.9031C19.7031 12.3906 19.7031 12.8375 19.5 13.1218C19.2968 13.4062 18.8499 13.5281 18.4031 13.6906C17.9968 13.8125 17.5906 13.9343 17.2656 14.1781C16.9406 14.4218 16.6968 14.7875 16.4531 15.1125C16.1687 15.5187 15.8843 15.8843 15.5593 16.0062C15.2343 16.1281 14.7875 15.9656 14.3406 15.8031C13.9343 15.6812 13.5281 15.5187 13.0812 15.5187C12.6343 15.5187 12.2281 15.6406 11.8218 15.8031C11.375 15.9656 10.9281 16.0875 10.6031 16.0062C10.2781 15.8843 9.9937 15.5187 9.70933 15.1125C9.46558 14.7875 9.22183 14.4218 8.89683 14.1781C8.57183 13.9343 8.12495 13.8125 7.75933 13.6906C7.31245 13.5281 6.86558 13.4062 6.66245 13.1218C6.45933 12.8375 6.45933 12.3906 6.45933 11.9031C6.45933 11.4968 6.45933 11.05 6.33745 10.6437C6.21558 10.2781 5.97183 9.91247 5.72808 9.58747C5.4437 9.18122 5.15933 8.81559 5.15933 8.44997C5.15933 8.08434 5.4437 7.71872 5.72808 7.31247C5.97183 6.98747 6.21558 6.62184 6.33745 6.25622C6.45933 5.84997 6.45933 5.40309 6.45933 4.99684C6.45933 4.50934 6.45933 4.06247 6.66245 3.77809C6.86558 3.49372 7.31245 3.37184 7.75933 3.20934C8.16558 3.08747 8.57183 2.96559 8.89683 2.72184C9.22183 2.47809 9.46558 2.11247 9.70933 1.78747C9.9937 1.38122 10.2781 1.01559 10.6031 0.893719C10.6843 0.853094 10.7656 0.853094 10.8468 0.853094C11.1312 0.853094 11.4562 0.974969 11.8218 1.09684C12.2281 1.21872 12.6343 1.38122 13.0812 1.38122C13.5281 1.38122 13.9343 1.21872 14.3406 1.09684C14.7875 0.934344 15.2343 0.812469 15.5593 0.893719C15.8843 1.01559 16.1687 1.38122 16.4531 1.78747C16.6968 2.11247 16.9406 2.47809 17.2656 2.72184C17.5906 2.96559 17.9968 3.08747 18.4031 3.20934C18.8906 3.37184 19.2968 3.49372 19.5 3.77809C19.7031 4.06247 19.7031 4.50934 19.7031 4.99684C19.7031 5.44372 19.7031 5.84997 19.825 6.25622C19.9468 6.62184 20.1906 6.98747 20.4343 7.31247C20.7187 7.71872 21.0031 8.08434 21.0031 8.44997C21.0031 8.81559 20.7187 9.18122 20.4343 9.58747Z" fill="#2B2E63"/>
<path d="M20.4344 7.27185C20.1907 6.94685 19.9469 6.58122 19.825 6.2156C19.7032 5.80935 19.7032 5.36247 19.7032 4.95622C19.7032 4.46872 19.7032 4.02185 19.5 3.73747C19.2969 3.4531 18.85 3.33122 18.4032 3.16872C17.9969 3.04685 17.5907 2.92497 17.2657 2.68122C16.9407 2.43747 16.6969 2.07185 16.4532 1.74685C16.1688 1.3406 15.8844 0.974974 15.5594 0.853099C15.2344 0.731224 14.7875 0.893724 14.3407 1.05622C13.9344 1.1781 13.5282 1.3406 13.0813 1.3406C12.6344 1.3406 12.2282 1.1781 11.8219 1.05622C11.4563 0.934349 11.1313 0.812474 10.8469 0.812474C10.7657 0.812474 10.6844 0.812474 10.6032 0.853099C10.2782 0.974974 9.9938 1.3406 9.70942 1.74685C9.46567 2.07185 9.22192 2.43747 8.89692 2.68122C8.57192 2.92497 8.12505 3.04685 7.75942 3.16872C7.31255 3.33122 6.86567 3.4531 6.66255 3.73747C6.45942 4.02185 6.45942 4.46872 6.45942 4.95622C6.45942 5.4031 6.45942 5.80935 6.33755 6.2156C6.21567 6.58122 5.97192 6.94685 5.72817 7.27185C5.4438 7.6781 5.15942 8.04373 5.15942 8.40935C5.15942 8.77497 5.4438 9.1406 5.72817 9.54685C5.97192 9.87185 6.21567 10.2375 6.33755 10.6031C6.45942 11.0093 6.45942 11.4562 6.45942 11.8625C6.45942 12.35 6.45942 12.7969 6.66255 13.0812C6.86567 13.3656 7.31255 13.4875 7.75942 13.65C8.16567 13.7718 8.57192 13.8937 8.89692 14.1375C9.22192 14.3812 9.46567 14.7468 9.70942 15.0718C9.9938 15.4781 10.2782 15.8437 10.6032 15.9656C10.9282 16.0875 11.375 15.925 11.8219 15.7625C12.2282 15.6406 12.6344 15.4781 13.0813 15.4781C13.5282 15.4781 13.9344 15.6 14.3407 15.7625C14.7875 15.925 15.2344 16.0468 15.5594 15.9656C15.8844 15.8437 16.1688 15.4781 16.4532 15.0718C16.6969 14.7468 16.9407 14.3812 17.2657 14.1375C17.5907 13.8937 17.9969 13.7718 18.4032 13.65C18.8907 13.4875 19.2969 13.3656 19.5 13.0812C19.7032 12.7969 19.7032 12.35 19.7032 11.8625C19.7032 11.4562 19.7032 11.0093 19.825 10.6031C19.9469 10.2375 20.1907 9.87185 20.4344 9.54685C20.7188 9.1406 21.0032 8.77497 21.0032 8.40935C21.0032 8.04373 20.7188 7.6781 20.4344 7.27185ZM13 14.1375C9.87192 14.1375 7.27192 11.5781 7.27192 8.40935C7.27192 5.28122 9.87192 2.72185 13 2.72185C16.1282 2.72185 18.7282 5.28122 18.7282 8.44997C18.7282 11.5781 16.1282 14.1375 13 14.1375Z" fill="#ECC25D"/>
<path d="M13.0001 3.49377C10.2782 3.49377 8.08447 5.68752 8.08447 8.4094C8.08447 11.1313 10.2782 13.325 13.0001 13.325C15.722 13.325 17.9157 11.1313 17.9157 8.4094C17.9157 5.72815 15.722 3.49377 13.0001 3.49377ZM16.047 8.0844L14.8282 9.26252L15.1126 10.9688C15.1532 11.1313 15.072 11.2531 14.9501 11.3344C14.8688 11.375 14.7876 11.4156 14.7063 11.4156C14.6251 11.4156 14.5845 11.4156 14.5032 11.375L13.0001 10.5625L11.497 11.375C11.3751 11.4563 11.2126 11.4156 11.0907 11.3344C10.9688 11.2531 10.9282 11.0906 10.9282 10.9688L11.2126 9.26252L9.99385 8.0844C9.87197 7.96252 9.83135 7.84065 9.9126 7.67815C9.95322 7.51565 10.0751 7.4344 10.2376 7.39377L11.9438 7.15002L12.7157 5.60627C12.8376 5.3219 13.2845 5.3219 13.4063 5.60627L14.1782 7.15002L15.8845 7.39377C16.047 7.4344 16.1688 7.51565 16.2095 7.67815C16.1688 7.84065 16.1282 8.00315 16.047 8.0844Z" fill="#FFDC7C"/>
<path d="M12.5938 16.4125V21.1656L9.50635 24.5781V16.2906C9.70947 16.4938 9.95322 16.6969 10.2376 16.7781C10.4001 16.8188 10.5626 16.8594 10.7251 16.8594C11.1313 16.8594 11.5376 16.7375 11.9438 16.575C12.1876 16.5344 12.3907 16.4532 12.5938 16.4125ZM16.4532 16.2906V24.5781L13.4063 21.1656V16.4125C13.6095 16.4532 13.8126 16.5344 14.0157 16.6157C14.5845 16.8188 15.1532 16.9813 15.722 16.8188C16.0063 16.6969 16.2501 16.4938 16.4532 16.2906Z" fill="#F26E61"/>
<path d="M20.4344 7.27185C20.1907 6.94685 19.9469 6.58122 19.825 6.2156C19.7032 5.80935 19.7032 5.36247 19.7032 4.95622C19.7032 4.46872 19.7032 4.02185 19.5 3.73747C19.2969 3.4531 18.85 3.33122 18.4032 3.16872C17.9969 3.04685 17.5907 2.92497 17.2657 2.68122C16.9407 2.43747 16.6969 2.07185 16.4532 1.74685C16.1688 1.3406 15.8844 0.974974 15.5594 0.853099C15.2344 0.731224 14.7875 0.893724 14.3407 1.05622C13.9344 1.1781 13.5282 1.3406 13.0813 1.3406C12.6344 1.3406 12.2282 1.1781 11.8219 1.05622C11.4563 0.934349 11.1313 0.812474 10.8469 0.812474C10.7657 0.812474 10.6844 0.812474 10.6032 0.853099C10.2782 0.974974 9.9938 1.3406 9.70942 1.74685C9.46567 2.07185 9.22192 2.43747 8.89692 2.68122C8.57192 2.92497 8.12505 3.04685 7.75942 3.16872C7.31255 3.33122 6.86567 3.4531 6.66255 3.73747C6.45942 4.02185 6.45942 4.46872 6.45942 4.95622C6.45942 5.4031 6.45942 5.80935 6.33755 6.2156C6.21567 6.58122 5.97192 6.94685 5.72817 7.27185C5.4438 7.6781 5.15942 8.04373 5.15942 8.40935C5.15942 8.77497 5.4438 9.1406 5.72817 9.54685C5.97192 9.87185 6.21567 10.2375 6.33755 10.6031C6.45942 11.0093 6.45942 11.4562 6.45942 11.8625C6.45942 12.35 6.45942 12.7969 6.66255 13.0812C6.86567 13.3656 7.31255 13.4875 7.75942 13.65C8.16567 13.7718 8.57192 13.8937 8.89692 14.1375C9.22192 14.3812 9.46567 14.7468 9.70942 15.0718C9.9938 15.4781 10.2782 15.8437 10.6032 15.9656C10.9282 16.0875 11.375 15.925 11.8219 15.7625C12.2282 15.6406 12.6344 15.4781 13.0813 15.4781C13.5282 15.4781 13.9344 15.6 14.3407 15.7625C14.7875 15.925 15.2344 16.0468 15.5594 15.9656C15.8844 15.8437 16.1688 15.4781 16.4532 15.0718C16.6969 14.7468 16.9407 14.3812 17.2657 14.1375C17.5907 13.8937 17.9969 13.7718 18.4032 13.65C18.8907 13.4875 19.2969 13.3656 19.5 13.0812C19.7032 12.7969 19.7032 12.35 19.7032 11.8625C19.7032 11.4562 19.7032 11.0093 19.825 10.6031C19.9469 10.2375 20.1907 9.87185 20.4344 9.54685C20.7188 9.1406 21.0032 8.77497 21.0032 8.40935C21.0032 8.04373 20.7188 7.6781 20.4344 7.27185ZM19.9469 9.22185C19.6625 9.58747 19.3782 9.99372 19.2157 10.4812C19.0532 10.9687 19.0532 11.4969 19.0532 11.9437C19.0532 12.2281 19.0532 12.675 18.9719 12.7969C18.8907 12.9187 18.4844 13.0406 18.1594 13.1219C17.6719 13.2843 17.225 13.4468 16.8188 13.7312C16.4125 14.0562 16.0875 14.4625 15.8438 14.8281C15.6407 15.1125 15.3969 15.4375 15.275 15.4781H15.2344C15.0313 15.4781 14.7063 15.3562 14.4625 15.275C14.0563 15.1531 13.5688 14.95 13 14.95C12.4719 14.95 11.9438 15.1125 11.5375 15.275C11.2532 15.3562 10.9688 15.4781 10.7657 15.4781H10.725C10.5625 15.4375 10.3188 15.0718 10.1563 14.8281C9.87192 14.4625 9.58755 14.0562 9.1813 13.7719C8.73442 13.4469 8.24692 13.2844 7.84067 13.1625C7.51567 13.0812 7.10942 12.9187 7.02817 12.8375C6.94692 12.7156 6.94692 12.2687 6.94692 11.9844C6.94692 11.5375 6.94692 11.0093 6.78442 10.5218C6.62192 10.0343 6.29692 9.6281 6.05317 9.3031C5.85005 9.01872 5.6063 8.69372 5.6063 8.53122C5.6063 8.36872 5.85005 8.0031 6.05317 7.75935C6.33755 7.39372 6.62192 6.98747 6.78442 6.5406C6.94692 6.0531 6.94692 5.52497 6.94692 5.0781C6.94692 4.79372 6.94692 4.34685 7.02817 4.22497C7.10942 4.1031 7.5563 3.9406 7.84067 3.85935C8.28755 3.73747 8.77505 3.57497 9.1813 3.24997C9.58755 2.9656 9.87192 2.55935 10.1157 2.19372C10.3188 1.90935 10.5625 1.54372 10.725 1.5031H10.7657C10.9282 1.5031 11.2532 1.62497 11.5375 1.70622H11.5782C11.9844 1.8281 12.4719 1.9906 13 1.9906C13.5282 1.9906 13.975 1.8281 14.4219 1.70622H14.4625C14.7469 1.62497 15.0313 1.5031 15.2344 1.5031H15.275C15.4375 1.54372 15.6813 1.90935 15.8438 2.1531C16.0875 2.51872 16.4125 2.92497 16.8188 3.24997C17.225 3.53435 17.7125 3.69685 18.1594 3.81872C18.4438 3.89997 18.8907 4.06247 18.9719 4.18435C19.0532 4.30622 19.0532 4.7531 19.0532 5.03747C19.0532 5.48435 19.0532 6.01247 19.2157 6.49997C19.3782 6.98747 19.6625 7.39372 19.9469 7.71872C20.15 8.0031 20.3938 8.3281 20.3938 8.4906C20.3938 8.61247 20.1094 8.9781 19.9469 9.22185Z" fill="#E3B348"/>
<path d="M13.0001 3.49377C10.2782 3.49377 8.08447 5.68752 8.08447 8.4094C8.08447 11.1313 10.2782 13.325 13.0001 13.325C15.722 13.325 17.9157 11.1313 17.9157 8.4094C17.9157 5.72815 15.722 3.49377 13.0001 3.49377ZM13.0001 12.7563C10.6032 12.7563 8.69385 10.8063 8.69385 8.45002C8.69385 6.05315 10.6438 4.14377 13.0001 4.14377C15.397 4.14377 17.3063 6.09377 17.3063 8.45002C17.3063 10.8063 15.397 12.7563 13.0001 12.7563Z" fill="#ECC25D"/>
<path d="M10.1562 16.7375V23.8875L9.54688 24.5781V16.2906C9.70938 16.4938 9.9125 16.6157 10.1562 16.7375ZM16.4531 16.2906V24.5781L15.8438 23.8875V16.7375C16.0875 16.6157 16.2906 16.4938 16.4531 16.2906Z" fill="#E15E5A"/>
<path d="M16.1282 7.6781C16.0876 7.5156 15.9657 7.43435 15.8032 7.39373L14.097 7.14998L13.3251 5.60623C13.2032 5.32185 12.7564 5.32185 12.6345 5.60623L11.8626 7.14998L10.1564 7.39373C9.99387 7.43435 9.87199 7.5156 9.83137 7.6781C9.79074 7.8406 9.83137 7.96248 9.91262 8.08435L11.1314 9.26248L10.9282 10.9687C10.8876 11.1312 10.9689 11.2531 11.0907 11.3344C11.2126 11.4156 11.3751 11.4562 11.497 11.375L13.0001 10.5625L14.5032 11.375C14.5439 11.4156 14.6251 11.4156 14.7064 11.4156C14.7876 11.4156 14.8689 11.375 14.9501 11.3344C15.072 11.2531 15.1532 11.0906 15.1126 10.9687L14.8282 9.26248L16.047 8.08435C16.1282 8.0031 16.1689 7.8406 16.1282 7.6781ZM14.097 8.85623C14.0157 8.93747 13.9751 9.05935 13.9751 9.22185L14.1782 10.3187L13.1626 9.7906C13.122 9.7906 13.0814 9.74998 13.0001 9.74998C12.9189 9.74998 12.8782 9.74998 12.797 9.7906L11.7814 10.3187L11.9845 9.22185C12.0251 9.09998 11.9845 8.9781 11.8626 8.85623L11.0501 8.08435L12.147 7.92185C12.2689 7.92185 12.3907 7.79998 12.4314 7.71873L12.9189 6.7031L13.4064 7.71873C13.447 7.8406 13.5689 7.92185 13.6907 7.92185L14.7876 8.08435L14.097 8.85623Z" fill="#2B2E63"/>
<path d="M13.975 9.22188L14.1782 10.3187L13.1625 9.79063C13.1219 9.79063 13.0813 9.75 13 9.75C12.9188 9.75 12.8782 9.75 12.7969 9.79063L11.7813 10.3187L11.9844 9.22188C12.025 9.1 11.9844 8.97812 11.8625 8.85625L11.05 8.08437L12.1469 7.92188C12.2688 7.92188 12.3907 7.8 12.4313 7.71875L12.9188 6.70312L13.4063 7.71875C13.4469 7.84063 13.5688 7.92188 13.6907 7.92188L14.7875 8.08437L13.975 8.85625C14.0157 8.97812 13.975 9.1 13.975 9.22188Z" fill="#EDEDED"/>
<path d="M14.097 8.85625L14.9095 8.08437L13.8126 7.92188C13.6907 7.92188 13.5688 7.8 13.5282 7.71875L13.0001 6.70312L12.5126 7.71875C12.472 7.84063 12.3501 7.92188 12.2282 7.92188L11.1313 8.08437L11.9438 8.85625C12.0251 8.9375 12.0657 9.05938 12.0657 9.22188L11.8626 10.3187L12.8782 9.79063C12.9188 9.75 13.0001 9.75 13.0813 9.75C13.1626 9.75 13.2032 9.75 13.2845 9.79063L14.3001 10.3187L14.097 9.22188C13.9751 9.1 14.0157 8.97812 14.097 8.85625ZM13.6095 9.30312L13.6501 9.5875L13.3657 9.46562C13.2438 9.38437 13.122 9.34375 13.0001 9.34375C12.8782 9.34375 12.7563 9.38438 12.6345 9.425L12.3501 9.5875L12.3907 9.30312C12.4313 9.05937 12.3501 8.775 12.147 8.6125L11.9438 8.40938L12.2282 8.36875C12.472 8.32813 12.7157 8.16562 12.8376 7.92188L12.9595 7.6375L13.0813 7.92188C13.2032 8.16562 13.4063 8.32813 13.6907 8.36875L13.9751 8.40938L13.8126 8.57188C13.6095 8.775 13.5282 9.05937 13.6095 9.30312Z" fill="#D6D6D6"/>
</g>
<defs>
<clipPath id="clip0_227_815">
<rect width="26" height="26" fill="white"/>
</clipPath>
</defs>
</svg>
