<svg width="25" height="26" viewBox="0 0 25 26" fill="none" xmlns="http://www.w3.org/2000/svg">
<g clip-path="url(#clip0_227_554)">
<path d="M17.6593 21.9502V19.8739C17.6593 18.7726 17.2218 17.7164 16.443 16.9377C15.6643 16.1589 14.6081 15.7214 13.5068 15.7214H5.20181C4.1005 15.7214 3.0443 16.1589 2.26555 16.9377C1.48681 17.7164 1.04932 18.7726 1.04932 19.8739V21.9502" stroke="black" stroke-width="2.07625" stroke-linecap="round" stroke-linejoin="round"/>
<path d="M9.35415 11.5688C11.6475 11.5688 13.5066 9.70964 13.5066 7.41629C13.5066 5.12293 11.6475 3.26379 9.35415 3.26379C7.06079 3.26379 5.20166 5.12293 5.20166 7.41629C5.20166 9.70964 7.06079 11.5688 9.35415 11.5688Z" stroke="black" stroke-width="2.07625" stroke-linecap="round" stroke-linejoin="round"/>
<path d="M23.8883 21.9499V19.8736C23.8876 18.9536 23.5814 18.0598 23.0177 17.3326C22.454 16.6055 21.6648 16.0861 20.7739 15.8561" stroke="black" stroke-width="2.07625" stroke-linecap="round" stroke-linejoin="round"/>
<path d="M16.6213 3.39893C17.5146 3.62763 18.3063 4.1471 18.8716 4.87546C19.437 5.60382 19.7438 6.49962 19.7438 7.42165C19.7438 8.34368 19.437 9.23949 18.8716 9.96785C18.3063 10.6962 17.5146 11.2157 16.6213 11.4444" stroke="black" stroke-width="2.07625" stroke-linecap="round" stroke-linejoin="round"/>
</g>
<defs>
<clipPath id="clip0_227_554">
<rect width="24.915" height="24.915" fill="white" transform="translate(0.0109863 0.149658)"/>
</clipPath>
</defs>
</svg>
