<svg width="39" height="39" viewBox="0 0 39 39" fill="none" xmlns="http://www.w3.org/2000/svg">
<circle cx="19.5" cy="19.5" r="19.5" fill="#E3C7FF"/>
<path d="M27.1666 28.125V26.2083C27.1666 25.1917 26.7628 24.2166 26.0439 23.4978C25.325 22.7789 24.35 22.375 23.3333 22.375H15.6666C14.65 22.375 13.675 22.7789 12.9561 23.4978C12.2372 24.2166 11.8333 25.1917 11.8333 26.2083V28.125" stroke="black" stroke-width="2" stroke-linecap="round" stroke-linejoin="round"/>
<path d="M19.5 18.5417C21.6171 18.5417 23.3334 16.8254 23.3334 14.7083C23.3334 12.5912 21.6171 10.875 19.5 10.875C17.3829 10.875 15.6667 12.5912 15.6667 14.7083C15.6667 16.8254 17.3829 18.5417 19.5 18.5417Z" stroke="black" stroke-width="2" stroke-linecap="round" stroke-linejoin="round"/>
</svg>
