<svg width="32" height="32" viewBox="0 0 32 32" fill="none" xmlns="http://www.w3.org/2000/svg">
<path d="M28.6667 10.6667H10.0001C9.64646 10.6667 9.30732 10.5262 9.05727 10.2761C8.80722 10.0261 8.66675 9.68696 8.66675 9.33333C8.66675 8.97971 8.80722 8.64057 9.05727 8.39052C9.30732 8.14048 9.64646 8 10.0001 8H28.6667C29.0204 8 29.3595 8.14048 29.6096 8.39052C29.8596 8.64057 30.0001 8.97971 30.0001 9.33333C30.0001 9.68696 29.8596 10.0261 29.6096 10.2761C29.3595 10.5262 29.0204 10.6667 28.6667 10.6667ZM28.6667 17.3333H15.3334C14.9798 17.3333 14.6407 17.1929 14.3906 16.9428C14.1406 16.6928 14.0001 16.3536 14.0001 16C14.0001 15.6464 14.1406 15.3072 14.3906 15.0572C14.6407 14.8071 14.9798 14.6667 15.3334 14.6667H28.6667C29.0204 14.6667 29.3595 14.8071 29.6096 15.0572C29.8596 15.3072 30.0001 15.6464 30.0001 16C30.0001 16.3536 29.8596 16.6928 29.6096 16.9428C29.3595 17.1929 29.0204 17.3333 28.6667 17.3333ZM28.6667 24H20.6667C20.3131 24 19.974 23.8595 19.7239 23.6095C19.4739 23.3594 19.3334 23.0203 19.3334 22.6667C19.3334 22.313 19.4739 21.9739 19.7239 21.7239C19.974 21.4738 20.3131 21.3333 20.6667 21.3333H28.6667C29.0204 21.3333 29.3595 21.4738 29.6096 21.7239C29.8596 21.9739 30.0001 22.313 30.0001 22.6667C30.0001 23.0203 29.8596 23.3594 29.6096 23.6095C29.3595 23.8595 29.0204 24 28.6667 24Z" fill="#6563FF"/>
<path d="M4.66659 10.6667C5.40297 10.6667 5.99992 10.0697 5.99992 9.33333C5.99992 8.59695 5.40297 8 4.66659 8C3.93021 8 3.33325 8.59695 3.33325 9.33333C3.33325 10.0697 3.93021 10.6667 4.66659 10.6667Z" fill="#6563FF"/>
<path d="M10.0001 17.3333C10.7365 17.3333 11.3334 16.7363 11.3334 16C11.3334 15.2636 10.7365 14.6666 10.0001 14.6666C9.2637 14.6666 8.66675 15.2636 8.66675 16C8.66675 16.7363 9.2637 17.3333 10.0001 17.3333Z" fill="#6563FF"/>
<path d="M15.3333 24C16.0697 24 16.6667 23.4031 16.6667 22.6667C16.6667 21.9303 16.0697 21.3334 15.3333 21.3334C14.597 21.3334 14 21.9303 14 22.6667C14 23.4031 14.597 24 15.3333 24Z" fill="#6563FF"/>
</svg>
