<svg width="22" height="22" viewBox="0 0 22 22" fill="none" xmlns="http://www.w3.org/2000/svg">
<g clip-path="url(#clip0_227_775)">
<path d="M5.94687 10.5531V11.4125L5.225 11.8594C2.68125 13.3719 1.1 16.1219 0.9625 19.0438H0.515625C0.240625 19.0438 0 19.2844 0 19.5594V20.9344C0 21.2094 0.240625 21.45 0.515625 21.45H14.2313C14.3344 21.45 14.4375 21.4156 14.5063 21.3813C14.8156 21.4156 15.125 21.45 15.4688 21.45C19.0781 21.45 22.0344 18.4937 22.0344 14.8844C22.0344 11.275 19.0781 8.31875 15.4688 8.31875C12.925 8.31875 10.725 9.7625 9.625 11.8937C9.59062 11.8594 9.55625 11.8594 9.52188 11.825L8.8 11.3781V10.5188L9.52188 10.1062C12.0312 8.62813 13.6469 5.87813 13.75 2.95625H14.2313C14.5063 2.95625 14.7469 2.71563 14.7469 2.44062V1.03125C14.7469 0.75625 14.5063 0.515625 14.2313 0.515625H0.515625C0.240625 0.515625 0 0.75625 0 1.03125V2.40625C0 2.68125 0.240625 2.92188 0.515625 2.92188H0.996875C1.1 5.84375 2.71563 8.59375 5.25938 10.1062L5.94687 10.5531ZM0.653125 2.26875V1.20312H14.0594V2.30312H0.653125V2.26875ZM9.65938 18.0125H4.4C5.3625 17.4969 6.325 17.2563 7.35625 17.2563C8.07812 17.2563 8.76562 17.3937 9.45312 17.6344C9.52188 17.7719 9.59062 17.875 9.65938 18.0125ZM9.55625 14.9188C9.55625 11.6531 12.2031 9.04062 15.4344 9.04062C18.6656 9.04062 21.3125 11.6875 21.3125 14.9188C21.3125 18.15 18.6656 20.7969 15.4344 20.7969C12.2031 20.7969 9.55625 18.15 9.55625 14.9188ZM11 19.7313C11.4812 20.1781 11.9969 20.5219 12.5812 20.7969H0.653125V19.7313H11ZM6.6 11.6187V10.3813C6.6 10.2781 6.53125 10.175 6.42813 10.1062L5.53438 9.59062C3.23125 8.14687 1.75313 5.6375 1.65 2.95625H13.0969C12.9937 5.67188 11.5156 8.18125 9.17813 9.59062L8.28438 10.1062C8.18125 10.175 8.1125 10.2781 8.1125 10.3813V11.6187C8.1125 11.7219 8.18125 11.8594 8.28438 11.8937L9.17813 12.4094C9.24687 12.4437 9.28125 12.4781 9.35 12.5125C9.075 13.2344 8.90312 14.0594 8.90312 14.8844C8.90312 15.5375 9.00625 16.1906 9.17813 16.775C8.59375 16.6031 7.975 16.5344 7.39062 16.5344C5.87813 16.5344 4.43437 17.05 3.09375 18.0469C2.99062 18.15 2.92188 18.2875 2.99062 18.425C3.025 18.5625 3.1625 18.6656 3.3 18.6656H10.1062C10.2094 18.8031 10.2781 18.9406 10.3813 19.0438H1.65C1.75313 16.3281 3.23125 13.8187 5.56875 12.4094L6.4625 11.8937C6.56562 11.8594 6.6 11.7219 6.6 11.6187Z" fill="black"/>
<path d="M9.55615 14.9188C9.55615 18.15 12.203 20.7969 15.4343 20.7969C18.6655 20.7969 21.3124 18.15 21.3124 14.9188C21.3124 11.6532 18.6655 9.04065 15.4343 9.04065C12.203 9.04065 9.55615 11.6532 9.55615 14.9188ZM10.003 14.9188C10.003 11.9282 12.4437 9.45315 15.4687 9.45315C18.4593 9.45315 20.9343 11.8938 20.9343 14.9188C20.9343 17.9094 18.4937 20.3844 15.4687 20.3844C12.4437 20.3844 10.003 17.9094 10.003 14.9188Z" fill="#5E7891"/>
<path d="M0.653076 1.20312H14.0593V2.30312H0.653076V1.20312ZM0.653076 19.7313V20.7969H12.5468C11.9625 20.5219 11.4468 20.1438 10.9656 19.7313H0.653076Z" fill="#E8625C"/>
<path d="M1.6499 19.0782H10.3468C10.2437 18.9407 10.1405 18.8376 10.0718 18.7001H3.26553C3.12803 18.7001 2.99053 18.5969 2.95615 18.4594C2.92178 18.3219 2.95615 18.1844 3.05928 18.0813C4.3999 17.0844 5.84365 16.5688 7.35615 16.5688C7.9749 16.5688 8.55928 16.6719 9.14365 16.8094C8.97178 16.1907 8.86865 15.5719 8.86865 14.9188C8.86865 14.1625 9.00615 13.4407 9.24678 12.7875C9.28115 12.7188 9.31553 12.6157 9.3499 12.5469C9.28115 12.5125 9.24678 12.4782 9.17803 12.4438L8.28428 11.9282C8.18115 11.8594 8.1124 11.7563 8.1124 11.6532V10.4157C8.1124 10.3125 8.14678 10.2438 8.21553 10.175C8.21553 10.1407 8.2499 10.1407 8.28428 10.1063L9.17803 9.59067C9.8999 9.1438 10.553 8.5938 11.103 7.97505C11.3093 7.73442 11.5155 7.45942 11.7218 7.18442C12.5468 5.94692 13.0624 4.50317 13.1312 2.9563H1.6499C1.75303 5.67192 3.23115 8.1813 5.56865 9.59067L6.4624 10.1063C6.56553 10.175 6.63428 10.2782 6.63428 10.3813V11.6188C6.63428 11.7219 6.56553 11.8594 6.4624 11.8938L5.56865 12.4094C3.23115 13.8532 1.75303 16.3625 1.6499 19.0782ZM10.9655 6.97817C10.5187 7.7688 9.72803 8.62817 8.3874 9.07505C8.04365 9.17817 7.73428 9.21255 7.39053 9.21255C7.04678 9.21255 6.70303 9.17817 6.39365 9.07505C4.70928 8.52505 3.88428 7.32192 3.54053 6.3938C3.50615 6.29067 3.50615 6.18755 3.5749 6.08442C3.64365 5.9813 3.74678 5.94692 3.8499 5.94692H10.9655C11.0687 5.94692 11.1718 6.01567 11.2405 6.08442C11.2749 6.15317 11.3093 6.2563 11.3093 6.32505V6.35942C11.1718 6.56567 11.0687 6.77192 10.9655 6.97817ZM7.04678 15.5719C7.04678 15.4 7.18428 15.2282 7.39053 15.2282C7.5624 15.2282 7.73428 15.3657 7.73428 15.5719C7.73428 15.7438 7.59678 15.9157 7.39053 15.9157C7.18428 15.9157 7.04678 15.7438 7.04678 15.5719ZM7.04678 14.1625C7.04678 13.9907 7.18428 13.8188 7.39053 13.8188C7.5624 13.8188 7.73428 13.9563 7.73428 14.1625C7.73428 14.3344 7.59678 14.5063 7.39053 14.5063C7.18428 14.5063 7.04678 14.3688 7.04678 14.1625ZM7.04678 12.7532C7.04678 12.5813 7.18428 12.4094 7.39053 12.4094C7.5624 12.4094 7.73428 12.5469 7.73428 12.7532C7.73428 12.925 7.59678 13.0969 7.39053 13.0969C7.18428 13.0969 7.04678 12.9594 7.04678 12.7532ZM7.04678 11.3782C7.04678 11.2063 7.18428 11.0344 7.39053 11.0344C7.5624 11.0344 7.73428 11.1719 7.73428 11.3782C7.73428 11.55 7.59678 11.7219 7.39053 11.7219C7.18428 11.6875 7.04678 11.55 7.04678 11.3782ZM7.04678 9.9688C7.04678 9.79692 7.18428 9.62505 7.39053 9.62505C7.5624 9.62505 7.73428 9.76255 7.73428 9.9688C7.73428 10.1407 7.59678 10.3125 7.39053 10.3125C7.18428 10.3125 7.04678 10.1407 7.04678 9.9688Z" fill="#93C9E3"/>
<path d="M0.653076 1.20312H1.92495V2.30312H0.653076V1.20312ZM0.653076 19.7313H1.92495V20.7969H0.653076V19.7313Z" fill="#F2776B"/>
<path d="M1.6499 19.0781H2.7499C2.85303 16.3625 4.05615 13.8532 5.9124 12.4438L6.63428 11.9282C6.70303 11.8594 6.77178 11.7563 6.77178 11.6532V10.4156C6.77178 10.3125 6.7374 10.2094 6.63428 10.1406L5.9124 9.62502C5.01865 8.9719 4.29678 8.07815 3.78115 7.0469C3.74678 6.97815 3.7124 6.87502 3.67803 6.80627C3.60928 6.66877 3.5749 6.56565 3.50615 6.46252C3.05928 5.3969 2.78428 4.22815 2.7499 3.02502H1.6499C1.75303 5.74065 3.23115 8.25002 5.56865 9.6594L6.4624 10.175C6.56553 10.2438 6.63428 10.3469 6.63428 10.45V11.6875C6.63428 11.7906 6.56553 11.9281 6.4624 11.9625L5.56865 12.4781C3.23115 13.8531 1.75303 16.3625 1.6499 19.0781Z" fill="#A8D7F3"/>
<path d="M12.7876 1.20312H14.0595V2.30312H12.7876V1.20312Z" fill="#DA5B57"/>
<path d="M7.9751 10.3813V11.6187C7.9751 11.7219 8.00947 11.8594 8.1126 11.8937L8.83447 12.4094C8.97197 12.5125 9.10947 12.6156 9.24697 12.7531C9.28135 12.6844 9.31572 12.5813 9.3501 12.5125C9.28135 12.4781 9.24697 12.4437 9.17822 12.4094L8.28447 11.8937C8.18135 11.825 8.1126 11.7219 8.1126 11.6187V10.3813C8.1126 10.2781 8.14697 10.2094 8.21572 10.1406L8.28447 10.0719L9.17822 9.55625C9.9001 9.10937 10.5532 8.55938 11.1032 7.94063C11.3095 7.7 11.5157 7.425 11.722 7.15C12.547 5.9125 13.0626 4.46875 13.1313 2.92188H12.0313C11.997 4.125 11.722 5.25937 11.3095 6.29062V6.325C11.2751 6.42812 11.2063 6.56562 11.1376 6.66875C11.1032 6.7375 11.0688 6.80625 11.0345 6.90938C10.4845 7.94063 9.7626 8.83437 8.90322 9.4875L8.18135 10.0031C8.04385 10.1406 7.9751 10.2781 7.9751 10.3813Z" fill="#88BAD0"/>
<path d="M4.3999 18.0125H9.65928C9.59053 17.875 9.52178 17.7719 9.4874 17.6344C8.7999 17.3938 8.1124 17.2563 7.39053 17.2563C6.35928 17.2219 5.3624 17.4969 4.3999 18.0125Z" fill="#F1A444"/>
<path d="M3.50622 6.39377C3.88435 7.3219 4.67497 8.52502 6.35935 9.07502C6.7031 9.17815 7.01247 9.21252 7.35622 9.21252C7.69997 9.21252 8.04372 9.17815 8.3531 9.07502C10.0375 8.52502 10.8625 7.3219 11.2062 6.39377C11.2406 6.29065 11.2406 6.18752 11.1718 6.0844C11.1031 5.98127 11 5.9469 10.8968 5.9469H3.8156C3.71247 5.9469 3.60935 6.01565 3.5406 6.0844C3.47185 6.15315 3.47185 6.29065 3.50622 6.39377ZM4.33122 6.60002H10.4156C10.0375 7.28752 9.38435 8.04377 8.18122 8.4219C7.6656 8.59377 7.08122 8.59377 6.5656 8.4219C5.36247 8.04377 4.70935 7.28752 4.33122 6.60002Z" fill="black"/>
<path d="M4.3313 6.59998C4.70942 7.28748 5.36255 8.04373 6.56567 8.42185C7.0813 8.59373 7.66567 8.59373 8.1813 8.42185C9.35005 8.04373 10.0375 7.28748 10.4157 6.59998H4.3313ZM7.3563 17.2218C7.7688 17.2218 8.83442 17.5312 9.5563 17.8062L9.45317 17.6C8.80005 17.3594 8.07817 17.2218 7.3563 17.2218Z" fill="#F1A444"/>
<path d="M4.3999 18.0125H5.2249C5.9124 17.4969 6.63428 17.2563 7.35615 17.2563C6.35928 17.2219 5.3624 17.4969 4.3999 18.0125Z" fill="#FBB553"/>
<path d="M7.3562 8.55935C7.6312 8.55935 7.9062 8.52498 8.1812 8.42185C9.34995 8.04373 10.0375 7.28748 10.4156 6.59998H9.5562C9.2812 7.28748 8.79995 8.04373 7.94058 8.42185C7.7687 8.52498 7.56245 8.55935 7.3562 8.55935Z" fill="#F1A444"/>
<path d="M4.3313 6.59998C4.70942 7.28748 5.36255 8.04373 6.56567 8.42185C6.84067 8.4906 7.11567 8.55935 7.39067 8.55935C7.18442 8.55935 6.97817 8.52498 6.8063 8.42185C5.94692 8.04373 5.46567 7.28748 5.19067 6.59998H4.3313Z" fill="#FBB553"/>
<path d="M7.04688 9.96875C7.04688 10.1406 7.18437 10.3125 7.39062 10.3125C7.5625 10.3125 7.73438 10.175 7.73438 9.96875C7.73438 9.79688 7.59688 9.625 7.39062 9.625C7.18437 9.625 7.04688 9.79688 7.04688 9.96875ZM7.04688 11.3781C7.04688 11.55 7.18437 11.7219 7.39062 11.7219C7.5625 11.7219 7.73438 11.5844 7.73438 11.3781C7.73438 11.2062 7.59688 11.0344 7.39062 11.0344C7.18437 11.0344 7.04688 11.1719 7.04688 11.3781ZM7.04688 12.7531C7.04688 12.925 7.18437 13.0969 7.39062 13.0969C7.5625 13.0969 7.73438 12.9594 7.73438 12.7531C7.73438 12.5812 7.59688 12.4094 7.39062 12.4094C7.18437 12.4437 7.04688 12.5812 7.04688 12.7531ZM7.04688 14.1625C7.04688 14.3344 7.18437 14.5063 7.39062 14.5063C7.5625 14.5063 7.73438 14.3688 7.73438 14.1625C7.73438 13.9906 7.59688 13.8188 7.39062 13.8188C7.18437 13.8188 7.04688 13.9906 7.04688 14.1625ZM7.04688 15.5719C7.04688 15.7437 7.18437 15.9156 7.39062 15.9156C7.5625 15.9156 7.73438 15.7781 7.73438 15.5719C7.73438 15.4 7.59688 15.2281 7.39062 15.2281C7.18437 15.2281 7.04688 15.3656 7.04688 15.5719ZM10.0031 14.9188C10.0031 17.9094 12.4437 20.3844 15.4688 20.3844C18.4594 20.3844 20.9344 17.9438 20.9344 14.9188C20.9344 11.9281 18.4937 9.45312 15.4688 9.45312C12.4437 9.45312 10.0031 11.9281 10.0031 14.9188ZM10.6562 14.9188C10.6562 12.2719 12.7875 10.1406 15.4344 10.1406C18.0813 10.1406 20.2125 12.2719 20.2125 14.9188C20.2125 17.5656 18.0813 19.6969 15.4344 19.6969C12.7875 19.6969 10.6562 17.5656 10.6562 14.9188Z" fill="black"/>
<path d="M10.6562 14.9188C10.6562 17.5656 12.7875 19.6969 15.4344 19.6969C18.0813 19.6969 20.2125 17.5656 20.2125 14.9188C20.2125 12.2719 18.0813 10.1406 15.4344 10.1406C12.7875 10.1406 10.6562 12.2719 10.6562 14.9188ZM18.9062 14.9188C18.9062 14.7469 19.0437 14.575 19.25 14.575H19.6281C19.8 14.575 19.9719 14.7125 19.9719 14.9188C19.9719 15.0906 19.8344 15.2625 19.6281 15.2625H19.25C19.0437 15.2625 18.9062 15.0906 18.9062 14.9188ZM15.7781 11.1031C15.7781 11.275 15.6406 11.4469 15.4344 11.4469C15.2625 11.4469 15.0906 11.3094 15.0906 11.1031V10.725C15.0906 10.5531 15.2281 10.3813 15.4344 10.3813C15.6063 10.3813 15.7781 10.5188 15.7781 10.725V11.1031ZM17.9094 17.3594C18.0469 17.2219 18.2531 17.2219 18.3906 17.3594L18.6656 17.6344C18.8031 17.7719 18.8031 17.9781 18.6656 18.1156C18.5625 18.1844 18.4938 18.2188 18.3906 18.2188C18.3219 18.2188 18.2187 18.1844 18.15 18.1156L17.875 17.8406C17.7719 17.7031 17.7719 17.4969 17.9094 17.3594ZM17.9094 11.9969L18.1844 11.7219C18.3219 11.5844 18.5281 11.5844 18.6656 11.7219C18.8031 11.8594 18.8031 12.0656 18.6656 12.2031L18.3906 12.4781C18.3219 12.5469 18.2531 12.5812 18.15 12.5812C18.0812 12.5812 17.9781 12.5469 17.9094 12.4781C17.7719 12.3406 17.7719 12.1344 17.9094 11.9969ZM15.125 18.7344C15.125 18.5625 15.2625 18.3906 15.4688 18.3906C15.6406 18.3906 15.8125 18.5281 15.8125 18.7344V19.1125C15.8125 19.2844 15.675 19.4562 15.4688 19.4562C15.2969 19.4562 15.125 19.3187 15.125 19.1125V18.7344ZM13.4062 17.9781L14.7812 15.5031L14.7125 15.4344C14.4375 15.0219 14.5406 14.4719 14.9531 14.1969C15.1594 14.0594 15.4 14.025 15.6406 14.0594C15.8812 14.0938 16.0875 14.2312 16.1906 14.4375C16.3281 14.6438 16.3625 14.8844 16.3281 15.125C16.2937 15.3656 16.1563 15.5719 15.95 15.7094C15.8125 15.8125 15.6406 15.8469 15.4688 15.8469H15.3656L13.9906 18.3219C13.9219 18.425 13.8187 18.4937 13.6812 18.4937C13.6125 18.4937 13.5781 18.4938 13.5094 18.4594C13.3719 18.3219 13.3031 18.15 13.4062 17.9781ZM12.2375 17.6344L12.5125 17.3594C12.65 17.2219 12.8562 17.2219 12.9937 17.3594C13.1312 17.4969 13.1312 17.7031 12.9937 17.8406L12.7188 18.1156C12.65 18.1844 12.5812 18.2188 12.4781 18.2188C12.375 18.2188 12.3062 18.1844 12.2375 18.1156C12.1 17.9781 12.1 17.7719 12.2375 17.6344ZM12.2375 11.7219C12.375 11.5844 12.5812 11.5844 12.7188 11.7219L12.9937 11.9969C13.1312 12.1344 13.1312 12.3406 12.9937 12.4781C12.925 12.5469 12.8562 12.5812 12.7531 12.5812C12.65 12.5812 12.5813 12.5469 12.5125 12.4781L12.2375 12.2031C12.1 12.0656 12.1 11.8594 12.2375 11.7219ZM10.9312 14.9188C10.9312 14.7469 11.0687 14.575 11.275 14.575H11.6531C11.825 14.575 11.9969 14.7125 11.9969 14.9188C11.9969 15.0906 11.8594 15.2625 11.6531 15.2625H11.275C11.0687 15.2625 10.9312 15.0906 10.9312 14.9188Z" fill="#D5D6D5"/>
<path d="M16.0874 20.7625C19.0437 20.4187 21.3124 17.9437 21.3124 14.9187C21.3124 11.8937 19.0093 9.38433 16.0874 9.07495C17.9437 9.31558 19.5249 10.6562 20.2812 12.4437C20.6593 13.2 20.8655 14.025 20.8655 14.9187C20.8655 15.8125 20.6593 16.6375 20.2812 17.3937C19.5249 19.1812 17.978 20.5218 16.0874 20.7625Z" fill="#7187A0"/>
<path d="M15.1594 20.7969C15.0219 20.7969 14.9188 20.7625 14.7812 20.7625C14.9188 20.7969 15.0562 20.7969 15.1594 20.7969ZM15.1594 9.04065C15.0219 9.04065 14.9188 9.07502 14.7812 9.07502C14.9188 9.04065 15.0219 9.04065 15.1594 9.04065Z" fill="#E8932F"/>
<path d="M14.7813 20.7625C12.9251 20.5218 11.3438 19.2156 10.5876 17.3937C10.2095 16.6375 10.0032 15.8125 10.0032 14.9187C10.0032 14.025 10.2095 13.1656 10.622 12.4437C11.3782 10.6562 12.9595 9.34995 14.8157 9.07495C11.8595 9.38433 9.59071 11.8937 9.59071 14.9187C9.55634 17.9437 11.8595 20.4531 14.7813 20.7625Z" fill="#506C87"/>
<path d="M15.6406 19.6969C18.1844 19.5938 20.2125 17.4969 20.2125 14.9188C20.2125 12.3406 18.1844 10.2438 15.6406 10.1406C16.7406 10.2094 17.7031 10.7594 18.3906 11.6187C18.4594 11.6187 18.5625 11.6531 18.5969 11.7219C18.7 11.825 18.7 11.9281 18.6656 12.0656C19.1125 12.7875 19.4219 13.6469 19.4906 14.6094H19.5938C19.7656 14.6094 19.9375 14.7469 19.9375 14.9531C19.9375 15.125 19.8 15.2969 19.5938 15.2969H19.4906C19.4219 16.2594 19.1469 17.1188 18.6656 17.8406C18.7 17.9438 18.6656 18.0813 18.5969 18.1844C18.5625 18.1844 18.4937 18.2188 18.425 18.2188C17.7031 19.0781 16.7406 19.6281 15.6406 19.6969Z" fill="#BFBEBC"/>
<path d="M10.6562 14.9188C10.6562 17.4969 12.6844 19.5938 15.2281 19.6969C14.1281 19.6281 13.1656 19.0781 12.4781 18.2188C12.4094 18.2188 12.3063 18.1844 12.2719 18.1157C12.1688 18.0125 12.1688 17.9094 12.2031 17.7719C11.7563 17.05 11.4469 16.1906 11.3781 15.2281H11.275C11.1031 15.2281 10.9312 15.0906 10.9312 14.8844C10.9312 14.7125 11.0687 14.5406 11.275 14.5406H11.3438C11.4125 13.5781 11.6875 12.7188 12.1688 11.9969C12.1344 11.8938 12.1687 11.7563 12.2375 11.6532C12.3062 11.5844 12.375 11.55 12.4438 11.55C13.1313 10.6906 14.1281 10.1406 15.1938 10.0719C12.6844 10.2438 10.6562 12.3407 10.6562 14.9188Z" fill="#EDECED"/>
<path d="M15.1249 10.725V11.1031C15.1249 11.275 15.2624 11.4469 15.4687 11.4469C15.6405 11.4469 15.8124 11.3094 15.8124 11.1031V10.725C15.8124 10.5531 15.6749 10.3812 15.4687 10.3812C15.2624 10.3812 15.1249 10.5531 15.1249 10.725ZM17.9093 12.4781C17.978 12.5468 18.0468 12.5812 18.1499 12.5812C18.253 12.5812 18.3218 12.5468 18.3905 12.4781L18.6655 12.2031C18.803 12.0656 18.803 11.8593 18.6655 11.7218C18.528 11.5843 18.3218 11.5843 18.1843 11.7218L17.9093 11.9969C17.7718 12.1344 17.7718 12.3406 17.9093 12.4781ZM18.9062 14.9187C18.9062 15.0906 19.0437 15.2625 19.2499 15.2625H19.628C19.7999 15.2625 19.9718 15.125 19.9718 14.9187C19.9718 14.7469 19.8343 14.575 19.628 14.575H19.2499C19.0437 14.575 18.9062 14.7469 18.9062 14.9187ZM17.9093 17.8406L18.1843 18.1156C18.253 18.1844 18.3218 18.2187 18.4249 18.2187C18.528 18.2187 18.5968 18.1844 18.6655 18.1156C18.803 17.9781 18.803 17.7719 18.6655 17.6343L18.3905 17.3594C18.253 17.2219 18.0468 17.2219 17.9093 17.3594C17.7718 17.4969 17.7718 17.7031 17.9093 17.8406ZM15.1249 18.7344V19.1125C15.1249 19.2843 15.2624 19.4562 15.4687 19.4562C15.6405 19.4562 15.8124 19.3187 15.8124 19.1125V18.7344C15.8124 18.5625 15.6749 18.3906 15.4687 18.3906C15.2624 18.3906 15.1249 18.5281 15.1249 18.7344ZM12.2374 18.1156C12.3062 18.1844 12.3749 18.2187 12.478 18.2187C12.5468 18.2187 12.6499 18.1844 12.7187 18.1156L12.9937 17.8406C13.1312 17.7031 13.1312 17.4969 12.9937 17.3594C12.8562 17.2219 12.6499 17.2219 12.5124 17.3594L12.2374 17.6343C12.0999 17.7719 12.0999 17.9781 12.2374 18.1156ZM10.9312 14.9187C10.9312 15.0906 11.0687 15.2625 11.2749 15.2625H11.653C11.8249 15.2625 11.9968 15.125 11.9968 14.9187C11.9968 14.7469 11.8593 14.575 11.653 14.575H11.2749C11.0687 14.575 10.9312 14.7469 10.9312 14.9187ZM12.2374 12.2031L12.5124 12.4781C12.5812 12.5468 12.6499 12.5812 12.753 12.5812C12.8218 12.5812 12.9249 12.5468 12.9937 12.4781C13.1312 12.3406 13.1312 12.1344 12.9937 11.9969L12.7187 11.7218C12.5812 11.5843 12.3749 11.5843 12.2374 11.7218C12.0999 11.8593 12.0999 12.0656 12.2374 12.2031ZM13.5093 18.425C13.578 18.4593 13.6124 18.4594 13.6812 18.4594C13.7843 18.4594 13.9218 18.3906 13.9905 18.2875L15.3655 15.8125H15.4687C15.6405 15.8125 15.8124 15.7781 15.9499 15.675C16.1562 15.5375 16.2937 15.3312 16.328 15.0906C16.3624 14.85 16.328 14.6094 16.1905 14.4031C16.053 14.1969 15.8468 14.0594 15.6405 14.025C15.3999 13.9906 15.1593 14.025 14.953 14.1625C14.5405 14.4375 14.4374 14.9875 14.7124 15.4C14.7124 15.4344 14.7468 15.4344 14.7812 15.4687L13.4062 17.9437C13.303 18.15 13.3718 18.3218 13.5093 18.425ZM15.2968 14.7125C15.3312 14.6781 15.3655 14.6781 15.4343 14.6781H15.4687C15.5374 14.6781 15.5718 14.7125 15.6062 14.7812C15.6405 14.85 15.6405 14.8844 15.6405 14.9531C15.6405 15.0219 15.6062 15.0562 15.5374 15.0906C15.4343 15.1594 15.2968 15.125 15.228 15.0219C15.1937 14.9531 15.1937 14.7812 15.2968 14.7125Z" fill="black"/>
<path d="M15.2624 15.0563C15.3312 15.1594 15.4687 15.1938 15.5718 15.125C15.6062 15.0906 15.6749 15.0219 15.6749 14.9875C15.6749 14.9188 15.6749 14.85 15.6406 14.8156C15.6062 14.7813 15.5374 14.7125 15.5031 14.7125H15.4687C15.4343 14.7125 15.3656 14.7125 15.3312 14.7469C15.1937 14.7813 15.1937 14.9531 15.2624 15.0563Z" fill="#5E7891"/>
</g>
<defs>
<clipPath id="clip0_227_775">
<rect width="22" height="22" fill="white"/>
</clipPath>
</defs>
</svg>
