<svg width="20" height="19" viewBox="0 0 20 19" fill="none" xmlns="http://www.w3.org/2000/svg">
<path fill-rule="evenodd" clip-rule="evenodd" d="M7.02584 0C7.90004 0.000919251 8.73289 0.418259 9.25502 1.11597L10.0925 2.2301C10.3581 2.5831 10.7801 2.7936 11.2213 2.79452H13.8219C17.372 2.79452 19.0257 4.61372 19.0257 8.51962L19 13.0855C18.9991 16.7331 16.7322 19 13.0828 19H5.92917C2.27239 19 0 16.7322 0 13.0828V5.91354C0 1.98926 1.74566 0 5.18733 0H7.02584ZM7.02492 1.37888H5.18733C2.51783 1.37888 1.37888 2.73569 1.37888 5.91354V13.0828C1.37888 16.0097 2.99492 17.6211 5.92917 17.6211H13.0828C16.0097 17.6211 17.6211 16.0097 17.6211 13.0828V13.08L17.6469 8.51594C17.6469 5.39141 16.575 4.1734 13.8219 4.1734H11.2204C10.348 4.17248 9.51517 3.75606 8.99119 3.05927L8.15192 1.9433C7.88809 1.58939 7.46616 1.3798 7.02492 1.37888ZM13.5279 11.2266C13.9085 11.2266 14.2173 11.5355 14.2173 11.9161C14.2173 12.2966 13.9085 12.6055 13.5279 12.6055H5.49822C5.11765 12.6055 4.80879 12.2966 4.80879 11.9161C4.80879 11.5355 5.11765 11.2266 5.49822 11.2266H13.5279Z" fill="white"/>
</svg>
