<svg width="16" height="17" viewBox="0 0 16 17" fill="none" xmlns="http://www.w3.org/2000/svg">
<path fill-rule="evenodd" clip-rule="evenodd" d="M11.5776 0C11.8984 0 12.1588 0.260375 12.1588 0.581194L12.1592 1.23818C13.2906 1.31576 14.2304 1.70332 14.8955 2.3698C15.6216 3.09901 16.0036 4.14748 15.9998 5.40519V12.4748C15.9998 15.0569 14.36 16.661 11.7214 16.661H5.16704C2.52841 16.661 0.888672 15.0344 0.888672 12.4159V5.40364C0.888672 2.96819 2.351 1.40489 4.73594 1.23845L4.73641 0.581194C4.73641 0.260375 4.99679 0 5.31761 0C5.63842 0 5.8988 0.260375 5.8988 0.581194L5.89857 1.22361H10.996L10.9964 0.581194C10.9964 0.260375 11.2568 0 11.5776 0ZM14.8373 6.89994H2.05106V12.4159C2.05106 14.4044 3.15765 15.4986 5.16704 15.4986H11.7214C13.7307 15.4986 14.8374 14.4245 14.8374 12.4748L14.8373 6.89994ZM11.8935 11.776C12.2144 11.776 12.4747 12.0364 12.4747 12.3572C12.4747 12.678 12.2144 12.9384 11.8935 12.9384C11.5727 12.9384 11.3093 12.678 11.3093 12.3572C11.3093 12.0364 11.5658 11.776 11.8866 11.776H11.8935ZM8.45481 11.776C8.77563 11.776 9.03601 12.0364 9.03601 12.3572C9.03601 12.678 8.77563 12.9384 8.45481 12.9384C8.134 12.9384 7.87052 12.678 7.87052 12.3572C7.87052 12.0364 8.12702 11.776 8.44784 11.776H8.45481ZM5.00887 11.776C5.32969 11.776 5.59007 12.0364 5.59007 12.3572C5.59007 12.678 5.32969 12.9384 5.00887 12.9384C4.68806 12.9384 4.42381 12.678 4.42381 12.3572C4.42381 12.0364 4.68108 11.776 5.0019 11.776H5.00887ZM11.8935 8.7641C12.2144 8.7641 12.4747 9.02448 12.4747 9.34529C12.4747 9.66611 12.2144 9.92649 11.8935 9.92649C11.5727 9.92649 11.3093 9.66611 11.3093 9.34529C11.3093 9.02448 11.5658 8.7641 11.8866 8.7641H11.8935ZM8.45481 8.7641C8.77563 8.7641 9.03601 9.02448 9.03601 9.34529C9.03601 9.66611 8.77563 9.92649 8.45481 9.92649C8.134 9.92649 7.87052 9.66611 7.87052 9.34529C7.87052 9.02448 8.12702 8.7641 8.44784 8.7641H8.45481ZM5.00887 8.7641C5.32969 8.7641 5.59007 9.02448 5.59007 9.34529C5.59007 9.66611 5.32969 9.92649 5.00887 9.92649C4.68806 9.92649 4.42381 9.66611 4.42381 9.34529C4.42381 9.02448 4.68108 8.7641 5.0019 8.7641H5.00887ZM10.996 2.386H5.89857L5.8988 3.13148C5.8988 3.45229 5.63842 3.71267 5.31761 3.71267C4.99679 3.71267 4.73641 3.45229 4.73641 3.13148L4.736 2.40359C2.99999 2.54942 2.05106 3.60174 2.05106 5.40364V5.73755H14.8373L14.8374 5.40364C14.8404 4.4466 14.5832 3.70267 14.0725 3.19122C13.6242 2.74162 12.9689 2.4731 12.1595 2.40396L12.1588 3.13148C12.1588 3.45229 11.8984 3.71267 11.5776 3.71267C11.2568 3.71267 10.9964 3.45229 10.9964 3.13148L10.996 2.386Z" fill="#006CEA"/>
</svg>
