<svg width="619" height="384" viewBox="0 0 619 384" fill="none" xmlns="http://www.w3.org/2000/svg">
<g clip-path="url(#clip0_227_306)">
<path d="M19.8545 186.421V71.1973C19.8545 69.5518 20.5076 67.9737 21.6701 66.8101C22.8326 65.6466 24.4093 64.9929 26.0533 64.9929C27.6973 64.9929 29.274 65.6466 30.4365 66.8101C31.599 67.9737 32.2521 69.5518 32.2521 71.1973V186.421C32.2521 188.067 31.599 189.645 30.4365 190.808C29.274 191.972 27.6973 192.626 26.0533 192.626C24.4093 192.626 22.8326 191.972 21.6701 190.808C20.5076 189.645 19.8545 188.067 19.8545 186.421Z" fill="#F0F0F0"/>
<path d="M5.02167 186.421V71.1973C5.02167 69.5518 5.67476 67.9737 6.83726 66.8101C7.99975 65.6466 9.57643 64.9929 11.2204 64.9929C12.8645 64.9929 14.4411 65.6466 15.6036 66.8101C16.7661 67.9737 17.4192 69.5518 17.4192 71.1973V186.421C17.4192 188.067 16.7661 189.645 15.6036 190.808C14.4411 191.972 12.8645 192.626 11.2204 192.626C9.57643 192.626 7.99975 191.972 6.83726 190.808C5.67476 189.645 5.02167 188.067 5.02167 186.421Z" fill="#F0F0F0"/>
<path d="M-9.8111 186.421V71.1973C-9.8111 69.5518 -9.158 67.9737 -7.99551 66.8101C-6.83301 65.6466 -5.25633 64.9929 -3.61232 64.9929C-1.9683 64.9929 -0.391622 65.6466 0.770875 66.8101C1.93337 67.9737 2.58646 69.5518 2.58646 71.1973V186.421C2.58646 188.067 1.93337 189.645 0.770875 190.808C-0.391622 191.972 -1.9683 192.626 -3.61232 192.626C-5.25633 192.626 -6.83301 191.972 -7.99551 190.808C-9.158 189.645 -9.8111 188.067 -9.8111 186.421Z" fill="#F0F0F0"/>
<path d="M550.208 370.457C547.712 370.459 545.234 370.028 542.884 369.185L542.522 369.054L542.689 368.252C538.481 359.742 539.952 348.085 546.455 338.499C552.368 329.786 561.358 323.451 569.29 317.862C570.296 317.153 571.492 316.761 572.722 316.738C573.953 316.714 575.162 317.06 576.195 317.729C577.228 318.399 578.037 319.363 578.518 320.497C579 321.631 579.131 322.883 578.896 324.092L576.059 338.658C574.012 349.166 571.577 359.111 564.355 365.313C560.388 368.635 555.381 370.456 550.208 370.457Z" fill="#E6E6E6"/>
<path d="M568.784 395.627C566.037 395.611 563.337 394.908 560.93 393.582C558.523 392.256 556.485 390.349 555.002 388.035L554.796 387.715L555.286 387.282C556.555 380.352 562.524 374.178 570.538 371.522C577.822 369.109 585.862 369.504 592.952 369.851C593.889 369.897 594.791 370.22 595.544 370.779C596.298 371.339 596.868 372.109 597.183 372.993C597.498 373.878 597.544 374.836 597.315 375.746C597.085 376.656 596.591 377.478 595.895 378.107L587.918 385.314C582.121 390.549 576.34 395.277 569.367 395.615C569.172 395.623 568.978 395.627 568.784 395.627Z" fill="#E6E6E6"/>
<path d="M544.029 403.331C542.851 394.551 541.639 385.659 542.466 376.785C543.199 368.905 545.549 361.208 550.333 354.896C552.86 351.564 555.95 348.699 559.463 346.431C560.376 345.841 561.217 347.322 560.308 347.909C554.218 351.865 549.534 357.648 546.925 364.43C544.012 372.012 543.544 380.278 544.046 388.333C544.35 393.204 544.993 398.043 545.642 402.876C545.694 403.092 545.663 403.321 545.555 403.516C545.446 403.711 545.269 403.858 545.057 403.928C544.951 403.957 544.839 403.964 544.73 403.95C544.62 403.935 544.515 403.899 544.419 403.843C544.323 403.788 544.24 403.714 544.173 403.626C544.106 403.538 544.057 403.438 544.029 403.331V403.331Z" fill="#F2F2F2"/>
<path d="M540.7 408.378C546.369 398.113 552.946 386.704 564.696 383.058C567.959 382.048 571.388 381.686 574.79 381.992C575.862 382.086 575.594 383.776 574.524 383.682C568.81 383.202 563.11 384.745 558.417 388.042C553.875 391.205 550.339 395.603 547.346 400.267C545.512 403.123 543.87 406.101 542.228 409.075C541.703 410.025 540.168 409.339 540.699 408.378H540.7Z" fill="#F2F2F2"/>
<path d="M538.148 408.227L543.873 408.358L509.355 223.789L503.63 224.869L512.643 272.749H483.603L492.617 224.869L486.893 223.789L452.662 408.358L458.099 408.227L476.095 312.634H520.152L538.148 408.227ZM477.43 305.543L482.269 279.839H513.978L518.817 305.543H477.43Z" fill="#CACACA"/>
<path d="M288.173 189.361V128.749C288.173 126.949 290.954 125.485 294.372 125.485C297.79 125.485 300.571 126.949 300.571 128.749V189.361C300.571 191.161 297.79 192.625 294.372 192.625C290.954 192.625 288.173 191.161 288.173 189.361Z" fill="#F0F0F0"/>
<path d="M273.34 189.361V128.749C273.34 126.949 276.121 125.485 279.539 125.485C282.957 125.485 285.738 126.949 285.738 128.749V189.361C285.738 191.161 282.957 192.625 279.539 192.625C276.121 192.625 273.34 191.161 273.34 189.361Z" fill="#F0F0F0"/>
<path d="M258.507 189.361V128.749C258.507 126.949 261.288 125.485 264.706 125.485C268.124 125.485 270.905 126.949 270.905 128.749V189.361C270.905 191.161 268.124 192.625 264.706 192.625C261.288 192.625 258.507 191.161 258.507 189.361Z" fill="#F0F0F0"/>
<path d="M383.293 144.787C383.265 144.603 383.199 144.426 383.099 144.269C382.999 144.112 382.867 143.978 382.712 143.875L335.979 112.996C336.683 112.702 337.272 112.186 337.656 111.526H337.657C338.123 110.711 338.249 109.744 338.006 108.837C337.763 107.929 337.171 107.155 336.36 106.683L332.525 104.467C331.711 103.999 330.745 103.874 329.839 104.117C328.932 104.36 328.159 104.952 327.687 105.764C327.432 106.211 327.279 106.708 327.238 107.221L293.505 84.9306C292.372 82.1844 290.654 79.7185 288.472 77.7046C286.289 75.6907 283.694 74.1773 280.867 73.2699V63.4418H268.47V73.2699C264.357 74.5863 260.768 77.1769 258.221 80.6676C255.674 84.1583 254.302 88.3687 254.301 92.691V95.35H266.699C266.699 97.4656 267.539 99.4947 269.033 100.991C270.528 102.487 272.555 103.327 274.669 103.327C276.782 103.327 278.81 102.487 280.304 100.991C281.799 99.4947 282.639 97.4656 282.639 95.35H295.036V92.691C295.035 91.4163 294.915 90.1446 294.678 88.8922L380.016 145.281L344.567 188.419C344.292 188.418 344.018 188.416 343.741 188.416C340.913 188.416 338.172 188.482 335.561 188.598C335.718 188.16 335.787 187.694 335.763 187.229C335.712 186.291 335.291 185.412 334.594 184.783C333.897 184.154 332.979 183.827 332.042 183.873L327.62 184.104C326.683 184.156 325.804 184.576 325.176 185.274C324.547 185.972 324.221 186.891 324.267 187.829C324.299 188.383 324.464 188.922 324.747 189.4C316.928 190.231 311.861 191.378 311.861 191.961C311.861 192.917 325.466 192.007 342.494 191.963C342.572 192.185 342.708 192.381 342.887 192.533C343.066 192.685 343.283 192.787 343.514 192.827C343.745 192.868 343.983 192.846 344.203 192.764C344.423 192.683 344.618 192.544 344.766 192.362L345.095 191.963C362.073 192.01 375.62 192.915 375.62 191.961C375.62 191.062 363.575 188.825 347.968 188.466L383.006 145.829C383.124 145.685 383.21 145.518 383.26 145.339C383.309 145.159 383.32 144.971 383.293 144.787Z" fill="#CCCCCC"/>
<path d="M384.571 408.671H275.458C273.253 408.668 271.139 407.79 269.58 406.229C268.021 404.669 267.144 402.553 267.142 400.346V221.114C267.139 219.142 266.356 217.252 264.962 215.857C263.569 214.463 261.68 213.679 259.71 213.676H4.48344C2.51322 213.679 0.624304 214.463 -0.76889 215.857C-2.16208 217.252 -2.94578 219.142 -2.9481 221.114V400.346C-2.95059 402.553 -3.82765 404.669 -5.38684 406.229C-6.94604 407.79 -9.06005 408.668 -11.2651 408.671H-14.9984C-17.2035 408.668 -19.3175 407.79 -20.8767 406.229C-22.4359 404.669 -23.313 402.553 -23.3155 400.346V211.461C-23.3096 206.173 -21.2085 201.104 -17.4732 197.366C-13.7378 193.627 -8.67337 191.524 -3.39084 191.518H372.964C378.246 191.524 383.311 193.627 387.046 197.366C390.781 201.104 392.882 206.173 392.888 211.461V400.346C392.886 402.553 392.009 404.669 390.449 406.229C388.89 407.79 386.776 408.668 384.571 408.671Z" fill="#E4E4E4"/>
<path d="M392.446 238.05H267.584V243.368H392.446V238.05Z" fill="white"/>
<path d="M392.446 309.844H267.584V315.162H392.446V309.844Z" fill="white"/>
<path d="M164.227 190.643L160.639 189.13L158.177 171.124H125.394L122.726 189.057L119.515 190.663C119.361 190.74 119.238 190.867 119.166 191.022C119.093 191.178 119.075 191.354 119.114 191.521C119.154 191.688 119.248 191.837 119.383 191.944C119.518 192.051 119.684 192.109 119.856 192.109H163.932C164.108 192.109 164.278 192.048 164.414 191.936C164.551 191.825 164.644 191.67 164.679 191.497C164.714 191.324 164.688 191.145 164.605 190.989C164.523 190.833 164.389 190.711 164.227 190.643Z" fill="#E6E6E6"/>
<path d="M222.485 173.52H61.4461C60.6012 173.518 59.7915 173.181 59.1947 172.582C58.5979 171.983 58.2628 171.172 58.2628 170.326V147.597H225.668V170.326C225.668 171.172 225.333 171.983 224.736 172.582C224.139 173.181 223.33 173.518 222.485 173.52Z" fill="#CCCCCC"/>
<path d="M225.836 158.34H58.1157V61.087C58.1169 60.0664 58.5225 59.0879 59.2435 58.3662C59.9646 57.6445 60.9422 57.2386 61.9619 57.2375H221.99C223.01 57.2386 223.987 57.6445 224.709 58.3662C225.43 59.0879 225.835 60.0664 225.836 61.087V158.34Z" fill="#3F3D56"/>
<path d="M215.819 151.281H68.133C67.3469 151.28 66.5932 150.967 66.0373 150.411C65.4815 149.855 65.1688 149.1 65.1679 148.313V67.2638C65.1688 66.4769 65.4815 65.7226 66.0373 65.1662C66.5932 64.6098 67.3469 64.2968 68.133 64.2959H215.819C216.605 64.2968 217.359 64.6098 217.915 65.1662C218.471 65.7226 218.783 66.4769 218.784 67.2638V148.313C218.783 149.1 218.471 149.855 217.915 150.411C217.359 150.967 216.605 151.28 215.819 151.281Z" fill="white"/>
<path d="M381.378 73.6003C382.79 73.3966 384.231 73.5053 385.597 73.919C386.963 74.3326 388.222 75.041 389.285 75.9943C390.348 76.9476 391.189 78.1226 391.75 79.4366C392.31 80.7506 392.576 82.1715 392.528 83.5993L424.908 96.0741L410.238 106.565L381.738 93.1103C379.347 92.871 377.127 91.7622 375.498 89.9938C373.869 88.2255 372.945 85.9205 372.9 83.5156C372.856 81.1108 373.694 78.7731 375.257 76.9457C376.819 75.1182 378.997 73.9279 381.378 73.6003V73.6003Z" fill="#9E616A"/>
<path d="M504.324 67.4765L509.802 77.4449C508.478 83.7675 505.057 89.456 500.094 93.5858C491.707 100.666 447.855 127.033 447.855 127.033L392.493 99.2152L402.178 86.334L445.642 100.913C461.765 85.6744 481.222 74.4161 502.462 68.0358L504.324 67.4765Z" fill="#E4E4E4"/>
<path d="M494.138 232.428C518 232.428 537.344 226.119 537.344 218.337C537.344 210.555 518 204.246 494.138 204.246C470.276 204.246 450.932 210.555 450.932 218.337C450.932 226.119 470.276 232.428 494.138 232.428Z" fill="#CACACA"/>
<path d="M397.209 396.286L385.736 393.112L392.509 347.308L409.442 351.994L397.209 396.286Z" fill="#9E616A"/>
<path d="M363.945 396.435L353.055 391.622L366.42 347.295L382.491 354.397L363.945 396.435Z" fill="#9E616A"/>
<path d="M362.061 408.227L326.95 392.71L327.146 392.265C328.747 388.637 331.722 385.795 335.416 384.362C339.11 382.93 343.222 383.025 346.847 384.626L346.847 384.627L368.292 394.104L362.061 408.227Z" fill="#2F2E41"/>
<path d="M527.764 183.886C527.764 183.886 533.535 201.784 498.123 224.418L452.517 269.904L405.13 383.361L376.996 370.736L382.514 355.995L386.217 346.103L388.111 341.042L390.142 335.617L420.26 255.149L445.56 210.812L446.294 186.754L452.517 169.795L497.665 153.76L527.764 183.886Z" fill="#2F2E41"/>
<path d="M504.74 184.772C504.74 184.772 510.511 202.67 475.099 225.304L429.493 270.79L382.106 384.247L353.972 371.623L359.49 356.881L363.193 346.989L365.087 341.928L367.117 336.504L397.236 256.036L405.707 241.19C416.883 221.606 430.462 203.498 446.129 187.288L454.433 178.696L455.319 165.401L474.641 154.646L504.74 184.772Z" fill="#2F2E41"/>
<path d="M477.457 97.1526L491.626 67.0171L516.352 63.6412C516.352 63.6412 535.659 88.261 530.59 122.856C528.689 135.83 527.14 148.745 527.048 160.083C527.023 163.099 529.66 164.446 529.704 167.173C529.748 169.852 524.707 174.216 526.162 176.037C528.243 178.546 529.482 181.647 529.704 184.9C527.95 189.08 474.84 166.434 452.517 169.795L477.457 97.1526Z" fill="#E4E4E4"/>
<path d="M512.576 48.4697C518.887 37.8431 515.397 24.1076 504.78 17.7907C494.163 11.4737 480.44 14.9675 474.128 25.5941C467.817 36.2207 471.308 49.9562 481.925 56.2731C492.542 62.59 506.265 59.0963 512.576 48.4697Z" fill="#9E616A"/>
<path d="M507.65 28.9948C507.607 29.5838 507.548 30.3638 507.48 31.2463C507.411 33.6622 508.091 36.0403 509.427 38.0533C510.678 40.1712 509.185 52.9623 509.185 52.9623C545.819 27.4035 516.873 1.72576 505.55 4.00834C505.787 0.758024 496.552 2.04565 496.552 2.04565C493.033 -3.43885 485.322 3.84137 485.322 3.84137L486.81 1.33575C480.823 2.86 474.905 21.3806 474.905 21.3806C476.936 29.3706 507.887 25.7444 507.65 28.9948Z" fill="#2F2E41"/>
<path d="M365.539 109.007C378.127 92.2475 388.079 73.6582 395.048 53.8849C395.451 52.7022 395.423 51.4144 394.967 50.2508C394.511 49.0873 393.657 48.1234 392.557 47.5309L349.48 24.4283C348.783 24.0517 348.01 23.8392 347.218 23.8071C346.427 23.7749 345.639 23.9239 344.914 24.2428C344.175 24.564 343.519 25.0497 342.997 25.6628C342.474 26.2759 342.098 27.0003 341.897 27.7808C336.883 46.835 327.458 64.4403 314.385 79.1724C313.847 79.772 313.453 80.4866 313.232 81.2619C313.012 82.0371 312.971 82.8525 313.113 83.6459C313.249 84.4268 313.562 85.1662 314.027 85.8078C314.492 86.4494 315.097 86.9764 315.796 87.3485L358.874 110.451C359.976 111.039 361.25 111.217 362.471 110.953C363.691 110.688 364.778 109.999 365.539 109.007Z" fill="#CCCCCC"/>
<path d="M362.599 106.796C362.367 107.086 362.042 107.285 361.679 107.36C361.316 107.435 360.938 107.381 360.611 107.207L317.533 84.1042C317.324 83.995 317.143 83.8389 317.004 83.648C316.865 83.457 316.773 83.2365 316.733 83.0037C316.688 82.758 316.701 82.5051 316.77 82.265C316.839 82.0249 316.963 81.8042 317.132 81.62C330.59 66.4539 340.292 48.3299 345.454 28.7143C345.513 28.4719 345.628 28.2467 345.79 28.0562C345.951 27.8657 346.154 27.7151 346.383 27.6163C346.599 27.5197 346.834 27.4745 347.07 27.4843C347.306 27.4941 347.537 27.5585 347.744 27.6726L390.82 50.775C391.147 50.9515 391.401 51.2365 391.54 51.5809C391.679 51.9252 391.693 52.3071 391.58 52.6608C384.736 72.0801 374.962 90.3367 362.599 106.796Z" fill="white"/>
<path d="M347.528 49.6222L377.24 67.053C380.196 68.7873 382.873 64.1926 379.922 62.461L350.21 45.0301C347.254 43.2959 344.577 47.8906 347.528 49.6221V49.6222Z" fill="#6C63FF"/>
<path d="M342.215 59.3719L371.927 76.8027C374.883 78.537 377.56 73.9423 374.608 72.2108L344.897 54.7799C341.94 53.0456 339.263 57.6403 342.215 59.3719V59.3719Z" fill="#6C63FF"/>
<path d="M336.016 70.0079L365.728 87.4388C368.684 89.1731 371.361 84.5783 368.41 82.8468L338.698 65.4159C335.742 63.6816 333.065 68.2764 336.016 70.0079V70.0079Z" fill="#6C63FF"/>
<path d="M329.817 78.8713L359.529 96.3022C362.485 98.0364 365.162 93.4417 362.211 91.7102L332.499 74.2793C329.543 72.545 326.866 77.1398 329.817 78.8713V78.8713Z" fill="#6C63FF"/>
<path d="M465.265 181.401L476.42 206.507C476.689 207.108 476.804 207.767 476.754 208.424C476.705 209.08 476.493 209.715 476.137 210.269C475.718 210.931 475.113 211.454 474.398 211.772C473.682 212.091 472.889 212.19 472.117 212.058C471.854 212.018 471.596 211.949 471.348 211.853C470.362 211.472 469.567 210.715 469.137 209.749L457.983 184.643C457.77 184.164 457.654 183.648 457.64 183.125C457.627 182.601 457.716 182.08 457.904 181.591C458.283 180.604 459.039 179.808 460.005 179.378C460.97 178.948 462.067 178.92 463.054 179.299C464.04 179.679 464.836 180.435 465.265 181.401Z" fill="#6C63FF"/>
<path d="M475.52 204.483L477.755 209.55L478.897 216.733C478.973 217.206 478.89 217.691 478.662 218.112C478.434 218.533 478.073 218.867 477.636 219.061C477.199 219.256 476.709 219.3 476.244 219.188C475.779 219.075 475.364 218.812 475.064 218.439L470.44 212.681L468.238 207.724L475.52 204.483Z" fill="#3F3D56"/>
<path d="M455.504 174.417L457.102 184.468C457.155 184.797 457.282 185.109 457.474 185.381C457.666 185.653 457.918 185.878 458.211 186.037C458.504 186.196 458.829 186.285 459.161 186.298C459.494 186.311 459.825 186.248 460.129 186.112L461.714 185.407L464.773 192.291C464.868 192.505 465.045 192.673 465.264 192.757C465.483 192.841 465.727 192.835 465.941 192.739C466.155 192.644 466.323 192.467 466.408 192.248C466.492 192.029 466.486 191.785 466.391 191.571L463.332 184.687L464.917 183.981C465.442 183.747 465.854 183.314 466.061 182.777C466.268 182.24 466.254 181.643 466.023 181.116C465.945 180.942 465.845 180.778 465.725 180.63L459.338 172.71C459.038 172.337 458.623 172.074 458.158 171.962C457.693 171.85 457.203 171.894 456.766 172.089C456.329 172.283 455.968 172.617 455.74 173.038C455.512 173.459 455.429 173.944 455.504 174.417Z" fill="#3F3D56"/>
<path d="M460.131 192.558C460.383 191.152 460.939 189.818 461.761 188.65C462.583 187.482 463.651 186.509 464.89 185.799C466.129 185.089 467.508 184.66 468.93 184.541C470.352 184.422 471.784 184.617 473.123 185.112L495.143 158.275L500.475 175.514L478.747 198.355C477.767 200.552 476.017 202.312 473.828 203.303C471.638 204.295 469.161 204.447 466.867 203.733C464.572 203.018 462.619 201.486 461.378 199.426C460.136 197.367 459.693 194.923 460.131 192.558Z" fill="#9E616A"/>
<path d="M487.853 190.814L478.154 176.793L505.694 140.041L491.507 109.613L492.54 73.4192L504.263 71.2516L504.409 71.3247C510.108 74.6084 514.514 79.7448 516.894 85.8808C519.819 93.1987 526.348 120.67 529.979 136.393C530.692 139.44 530.614 142.619 529.752 145.628C528.89 148.636 527.273 151.373 525.055 153.579L487.853 190.814Z" fill="#E4E4E4"/>
<path d="M214.785 123.064C214.704 123.745 214.677 124.432 214.705 125.117L165.05 161.274L151.409 155.231L139.607 174.645L162.717 187.691C164.584 188.745 166.743 189.165 168.868 188.886C170.993 188.608 172.971 187.647 174.505 186.148L224.481 137.29C227.039 137.941 229.734 137.797 232.208 136.876C234.682 135.956 236.818 134.304 238.331 132.14C239.844 129.975 240.663 127.401 240.678 124.759C240.694 122.117 239.906 119.534 238.418 117.351C236.931 115.169 234.815 113.491 232.352 112.542C229.889 111.593 227.196 111.416 224.63 112.037C222.064 112.657 219.748 114.044 217.99 116.014C216.231 117.984 215.113 120.443 214.785 123.064V123.064Z" fill="#FFB6B6"/>
<path d="M163.444 162.596L148.964 186.747C148.552 187.434 147.997 188.024 147.336 188.477C146.676 188.93 145.926 189.235 145.137 189.372C144.348 189.509 143.538 189.474 142.764 189.269C141.99 189.065 141.269 188.695 140.65 188.187L118.97 170.365C115.47 168.235 112.957 164.802 111.981 160.821C111.005 156.839 111.647 152.632 113.765 149.123C115.883 145.614 119.305 143.089 123.28 142.1C127.255 141.112 131.46 141.742 134.972 143.852L160.803 154.575C161.542 154.883 162.207 155.346 162.751 155.933C163.296 156.521 163.708 157.219 163.958 157.98C164.209 158.741 164.293 159.548 164.204 160.344C164.115 161.141 163.856 161.909 163.444 162.596L163.444 162.596Z" fill="#6C63FF"/>
<path d="M101.401 372.513H129.784V325.435H101.401V372.513Z" fill="#CACACA"/>
<path d="M128.362 350.346L124.719 355.719L192.84 401.985L196.483 396.612L128.362 350.346Z" fill="#CACACA"/>
<path d="M102.823 350.345L34.702 396.612L38.345 401.985L106.466 355.719L102.823 350.345Z" fill="#CACACA"/>
<path d="M118.431 353.032H111.943V399.299H118.431V353.032Z" fill="#CACACA"/>
<path d="M109.51 346.539H121.675L121.675 284.038H109.51V346.539Z" fill="#CACACA"/>
<path d="M80.7211 293.778V279.168C80.7241 276.478 81.7931 273.899 83.6935 271.997C85.5939 270.095 88.1705 269.025 90.8581 269.022H145.193C147.88 269.025 150.457 270.095 152.357 271.997C154.258 273.899 155.327 276.478 155.33 279.168V293.778C155.327 296.468 154.258 299.047 152.357 300.949C150.457 302.852 147.88 303.921 145.193 303.925H90.8581C88.1705 303.921 85.5939 302.852 83.6935 300.949C81.7931 299.047 80.7241 296.468 80.7211 293.778Z" fill="#3F3D56"/>
<path d="M178.856 393.648L193.882 393.648L201.032 354.639L178.854 354.64L178.856 393.648Z" fill="#FFB8B8"/>
<path d="M201.331 369.458L231.288 302.22C233.79 296.553 234.066 290.151 232.063 284.289C230.06 278.427 225.924 273.535 220.48 270.588L155.501 235.713L125.85 233.189L98.4993 230.701L98.3021 231.035C98.0498 231.461 92.1691 241.628 96.1442 252.776C99.1595 261.232 107.003 267.836 119.455 272.407C148.522 283.074 182.1 292.192 195.187 295.616C195.765 295.764 196.306 296.033 196.773 296.405C197.24 296.777 197.623 297.244 197.897 297.774C198.172 298.299 198.335 298.875 198.376 299.466C198.418 300.057 198.336 300.65 198.138 301.208L170.306 363.793C170.016 364.587 169.911 365.437 170 366.277C170.09 367.118 170.371 367.927 170.822 368.641C171.273 369.356 171.882 369.957 172.602 370.399C173.322 370.841 174.134 371.111 174.975 371.19L195.771 372.705C195.948 372.722 196.123 372.73 196.298 372.73C197.363 372.73 198.406 372.421 199.299 371.84C200.192 371.259 200.898 370.432 201.331 369.458Z" fill="#2F2E41"/>
<path d="M169.051 393.648L184.076 393.648L191.226 354.639L169.049 354.64L169.051 393.648Z" fill="#FFB8B8"/>
<path d="M190.3 373.139L220.257 305.901C222.758 300.234 223.035 293.831 221.032 287.969C219.029 282.107 214.893 277.216 209.448 274.269L144.47 239.394L114.819 236.869L93.3964 235.009L93.3993 234.715C93.147 235.142 87.2663 245.308 91.2414 256.456C94.2567 264.912 95.9713 271.517 108.424 276.087C137.491 286.755 171.068 295.872 184.155 299.296C184.734 299.444 185.274 299.713 185.741 300.085C186.209 300.457 186.592 300.924 186.866 301.455C187.14 301.98 187.304 302.556 187.345 303.146C187.386 303.737 187.305 304.331 187.106 304.888L159.275 367.473C158.984 368.267 158.88 369.117 158.969 369.958C159.059 370.798 159.34 371.607 159.791 372.322C160.242 373.036 160.851 373.638 161.571 374.08C162.291 374.521 163.103 374.792 163.944 374.87L184.74 376.386C184.916 376.402 185.092 376.411 185.267 376.411C186.332 376.41 187.374 376.101 188.268 375.52C189.161 374.94 189.867 374.112 190.3 373.139Z" fill="#2F2E41"/>
<path d="M171.509 83.5274C175.355 67.3378 165.361 51.0923 149.186 47.2422C133.011 43.392 116.78 53.3952 112.934 69.5848C109.087 85.7744 119.081 102.02 135.256 105.87C151.431 109.72 167.662 99.717 171.509 83.5274Z" fill="#FFB8B8"/>
<path d="M245.991 192.323C258.579 175.563 268.531 156.974 275.5 137.201C275.903 136.018 275.875 134.73 275.419 133.567C274.963 132.403 274.109 131.439 273.009 130.847L229.932 107.744C229.235 107.367 228.462 107.155 227.67 107.123C226.879 107.091 226.091 107.24 225.366 107.558C224.627 107.88 223.971 108.365 223.449 108.979C222.926 109.592 222.55 110.316 222.349 111.097C217.335 130.151 207.91 147.756 194.837 162.488C194.299 163.088 193.905 163.802 193.684 164.578C193.464 165.353 193.423 166.168 193.565 166.962C193.701 167.743 194.014 168.482 194.479 169.124C194.944 169.765 195.549 170.292 196.248 170.664L239.326 193.767C240.428 194.355 241.702 194.533 242.923 194.268C244.143 194.004 245.23 193.315 245.991 192.323Z" fill="#CCCCCC"/>
<path d="M243.051 190.112C242.819 190.402 242.494 190.601 242.131 190.676C241.768 190.751 241.39 190.697 241.063 190.523L197.985 167.42C197.776 167.311 197.595 167.155 197.456 166.964C197.317 166.773 197.225 166.552 197.185 166.32C197.141 166.074 197.153 165.821 197.222 165.581C197.291 165.341 197.415 165.12 197.584 164.936C211.042 149.77 220.744 131.646 225.906 112.03C225.966 111.788 226.081 111.562 226.242 111.372C226.403 111.181 226.606 111.031 226.835 110.932C227.051 110.836 227.286 110.79 227.522 110.8C227.758 110.81 227.989 110.874 228.196 110.988L271.273 134.091C271.599 134.267 271.853 134.552 271.992 134.897C272.131 135.241 272.145 135.623 272.032 135.977C265.188 155.396 255.414 173.652 243.051 190.112Z" fill="white"/>
<path d="M227.98 132.938L257.692 150.369C260.648 152.103 263.325 147.508 260.374 145.777L230.662 128.346C227.706 126.612 225.029 131.206 227.98 132.938V132.938Z" fill="#CCCCCC"/>
<path d="M222.667 142.688L252.379 160.118C255.335 161.853 258.012 157.258 255.061 155.527L225.349 138.096C222.393 136.361 219.716 140.956 222.667 142.688V142.688Z" fill="#CCCCCC"/>
<path d="M218.492 152.399L245.514 168.455C248.202 170.053 251.078 166.75 248.393 165.155L221.372 149.099C218.684 147.502 215.808 150.804 218.492 152.399Z" fill="#CCCCCC"/>
<path d="M210.269 162.187L239.981 179.618C242.937 181.352 245.614 176.758 242.663 175.026L212.951 157.595C209.995 155.861 207.318 160.456 210.269 162.187V162.187Z" fill="#CCCCCC"/>
<path d="M159.579 238.154L100.005 237.797L99.9888 237.373C98.8529 207.456 102.506 180.355 111.157 154.523C111.279 153.556 111.411 152.523 111.541 151.508C113.019 139.951 114.192 130.775 125.172 127.358C124.257 126.141 123.718 124.682 123.621 123.162C123.551 122.152 123.684 121.138 124.01 120.179C124.336 119.22 124.849 118.336 125.52 117.578C126.162 116.846 126.943 116.249 127.817 115.822C128.692 115.395 129.643 115.146 130.614 115.091L151.819 114.368C152.933 114.36 154.018 114.728 154.897 115.413C156.512 116.613 157.647 118.349 158.098 120.311C158.55 122.272 158.289 124.331 157.363 126.117C157.113 126.615 157.017 126.841 156.981 126.94C157.735 130.893 159.971 135.589 162.338 140.558C165.727 147.673 169.568 155.737 170.556 164.364C171.089 169.022 170.868 173.735 169.9 178.323C169.458 180.795 169.356 183.315 169.597 185.815C169.791 189.521 169.973 193.021 167.88 196.405C167.347 197.323 166.736 198.301 166.02 199.384L163.076 206.429L159.579 238.154Z" fill="#6C63FF"/>
<path d="M70.1786 280.021V158.184C70.1831 154.214 71.7608 150.407 74.5656 147.6C77.3704 144.793 81.1733 143.214 85.1399 143.209H89.2778C93.2444 143.214 97.0473 144.793 99.8521 147.6C102.657 150.407 104.235 154.214 104.239 158.184V280.021C104.235 283.991 102.657 287.798 99.8521 290.605C97.0473 293.412 93.2444 294.991 89.2778 294.996H85.1399C81.1733 294.991 77.3704 293.412 74.5656 290.605C71.7608 287.798 70.1831 283.991 70.1786 280.021Z" fill="#3F3D56"/>
<path d="M229.934 170.344C229.506 170.88 229.121 171.449 228.783 172.045L167.541 176.521L159.141 164.181L138.879 174.435L151.628 197.726C152.658 199.607 154.27 201.104 156.222 201.99C158.173 202.877 160.36 203.106 162.453 202.643L230.666 187.549C232.495 189.453 234.861 190.755 237.447 191.281C240.034 191.806 242.719 191.531 245.146 190.492C247.572 189.453 249.625 187.699 251.032 185.464C252.438 183.228 253.131 180.617 253.019 177.978C252.907 175.339 251.994 172.796 250.403 170.689C248.812 168.581 246.617 167.008 244.111 166.179C241.605 165.351 238.906 165.305 236.374 166.049C233.841 166.793 231.595 168.291 229.934 170.344Z" fill="#FFB6B6"/>
<path d="M165.48 176.795L140.445 189.657C139.732 190.023 138.95 190.231 138.15 190.267C137.35 190.303 136.552 190.165 135.809 189.865C135.067 189.564 134.399 189.107 133.849 188.524C133.299 187.941 132.882 187.247 132.624 186.488L123.609 159.897C121.76 156.246 121.431 152.011 122.694 148.119C123.956 144.226 126.708 140.992 130.346 139.125C119.248 144.826 142.361 128.631 151.183 145.832L167.466 168.588C167.932 169.239 168.253 169.984 168.405 170.771C168.558 171.557 168.539 172.368 168.351 173.147C168.162 173.925 167.808 174.654 167.313 175.284C166.817 175.914 166.192 176.429 165.48 176.795H165.48Z" fill="#6C63FF"/>
<path d="M128.622 105.863C126.81 105.863 124.81 104.989 122.556 103.218C115.923 98.0047 111.182 90.7576 109.06 82.5882C106.938 74.4188 107.553 65.7782 110.809 57.9919C112.448 54.0735 115.513 48.7477 120.809 45.6264C124.616 43.3837 129.088 42.5736 132.981 41.9902C136.351 41.4847 139.763 41.0822 143.123 40.7957C147.137 40.4521 151.775 40.2201 156.004 41.8283C159.103 43.0072 161.74 45.0889 164.291 47.1022C165.18 47.8033 166.099 48.5295 167.02 49.2012C169.251 50.9432 171.824 52.1941 174.572 52.872C175.151 52.9923 175.699 53.2358 176.176 53.5859C176.654 53.9361 177.051 54.3848 177.34 54.9018C177.636 55.4272 177.815 56.01 177.866 56.6107C177.917 57.2114 177.838 57.8161 177.636 58.3839C177.238 59.5005 176.879 60.5071 177.605 61.5978C177.875 61.982 178.234 62.2943 178.652 62.5073C179.069 62.7204 179.533 62.8277 180.002 62.8199C180.249 62.8159 180.494 62.8738 180.713 62.9884C180.932 63.103 181.12 63.2706 181.258 63.476C181.398 63.6797 181.486 63.9146 181.515 64.1602C181.544 64.4058 181.512 64.6547 181.422 64.8852L181.306 65.1856C181.617 65.2146 181.917 65.3191 182.18 65.4899C182.442 65.6607 182.659 65.8928 182.812 66.1662C183.039 66.5555 183.127 67.0108 183.061 67.4568C182.995 67.9028 182.778 68.3129 182.448 68.6192C179.761 71.1787 176.412 72.9332 172.78 73.6837C170.294 74.1717 167.737 74.1658 165.253 73.6664L164.854 73.5884L164.903 73.1453C154.857 69.5592 145.79 75.645 140.62 82.6024L139.873 82.1307C140.002 81.8714 140.076 81.5888 140.093 81.3C140.109 81.0111 140.067 80.7219 139.968 80.4498C139.864 80.1232 139.697 79.8204 139.476 79.5587C139.255 79.297 138.984 79.0816 138.68 78.9246C138.064 78.6704 137.387 78.6044 136.734 78.7349C136.08 78.8654 135.481 79.1865 135.01 79.6578C134.53 80.1609 134.16 80.7586 133.924 81.4127C133.688 82.0667 133.59 82.7629 133.637 83.4567C133.773 84.9274 134.148 86.3661 134.746 87.7162C134.989 88.3619 135.24 89.0301 135.444 89.7035C136.589 93.5291 136.283 97.6425 134.588 101.257C133.805 102.906 132.39 105.008 130.093 105.66C129.614 105.796 129.119 105.864 128.622 105.863Z" fill="#2F2E41"/>
</g>
<defs>
<clipPath id="clip0_227_306">
<rect width="717" height="410" fill="white" transform="translate(-98)"/>
</clipPath>
</defs>
</svg>
