<svg width="45" height="45" viewBox="0 0 45 45" fill="none" xmlns="http://www.w3.org/2000/svg">
<g clip-path="url(#clip0_1047_3091)">
<path d="M44.2126 7.41086C43.969 7.21008 43.6827 7.06768 43.3756 6.99456C43.0685 6.92144 42.7487 6.91953 42.4407 6.98898L40.7814 7.35461V5.45617C40.7808 5.13717 40.7085 4.82238 40.5697 4.53513C40.4309 4.24788 40.2293 3.99554 39.9798 3.79679C39.7301 3.59739 39.4379 3.45816 39.1258 3.38987C38.8136 3.32159 38.4899 3.3261 38.1798 3.40304L22.5001 7.17179L6.82043 3.40304C6.51015 3.32803 6.18688 3.32452 5.87505 3.39277C5.56322 3.46101 5.27097 3.59923 5.02039 3.79699C4.76981 3.99474 4.56745 4.24686 4.42859 4.53429C4.28974 4.82173 4.21802 5.13696 4.21886 5.45617V7.35461L2.55949 6.98898C2.25157 6.91878 1.93163 6.92032 1.6244 6.99347C1.31716 7.06662 1.03086 7.20943 0.787614 7.41086C0.539249 7.6066 0.339102 7.85672 0.202577 8.14196C0.0660514 8.4272 -0.00321271 8.73996 0.000114436 9.05617V30.2343C0.00142674 30.7181 0.168103 31.1868 0.472487 31.5628C0.776871 31.9388 1.20066 32.1995 1.67355 32.3015L2.33449 32.4421V39.4087C2.33403 39.7299 2.40915 40.0467 2.55377 40.3335C2.69839 40.6203 2.90846 40.869 3.16699 41.0596C3.53344 41.3353 3.97964 41.4844 4.43824 41.4843C4.63067 41.4839 4.8222 41.4579 5.00777 41.407L22.3243 36.6819L22.3595 36.689C22.3803 36.6937 22.4015 36.696 22.4228 36.696L40.0206 41.5771C40.206 41.6288 40.3976 41.6553 40.5901 41.6559C41.1486 41.6544 41.6837 41.4315 42.078 41.036C42.4724 40.6406 42.6939 40.1049 42.6939 39.5465V32.4491L43.3267 32.3155C43.7996 32.2135 44.2234 31.9529 44.5277 31.5769C44.8321 31.2009 44.9988 30.7321 45.0001 30.2484V9.05617C45.0034 8.73996 44.9342 8.4272 44.7977 8.14196C44.6611 7.85672 44.461 7.6066 44.2126 7.41086ZM23.2032 8.45008L38.5032 4.76711C38.6081 4.74395 38.7169 4.74456 38.8215 4.7689C38.9261 4.79323 39.024 4.84067 39.1079 4.90773C39.1925 4.97168 39.2607 5.05467 39.3072 5.14997C39.3536 5.24527 39.3769 5.35018 39.3751 5.45617V22.8037L25.57 26.1154C24.6683 26.3349 23.8476 26.806 23.2032 27.4738V8.45008ZM23.2032 30.9037C23.2014 30.1134 23.4664 29.3457 23.9555 28.725C24.4445 28.1042 25.1289 27.6668 25.8976 27.4837L39.3751 24.2493V26.4655C39.3734 26.5917 39.3381 26.7152 39.2729 26.8232C39.2076 26.9312 39.1148 27.0199 39.0039 27.0801C38.9514 27.1108 38.8952 27.1344 38.8365 27.1504L23.2032 30.9065V30.9037ZM5.62511 5.45617C5.62335 5.35018 5.64663 5.24527 5.69306 5.14997C5.73949 5.05467 5.80775 4.97168 5.8923 4.90773C6.01654 4.80944 6.16983 4.75504 6.32824 4.75304C6.38486 4.75072 6.44154 4.75544 6.49699 4.76711L21.797 8.45008V27.4738C21.1526 26.8061 20.3319 26.335 19.4303 26.1154L5.62511 22.8037V5.45617ZM5.62511 24.2493L19.1026 27.4837C19.8713 27.6668 20.5557 28.1042 21.0447 28.725C21.5338 29.3457 21.7989 30.1134 21.797 30.9037L6.16371 27.1532C6.10508 27.1372 6.04881 27.1136 5.99636 27.0829C5.88505 27.0224 5.79193 26.9333 5.72665 26.8248C5.66138 26.7162 5.62632 26.5922 5.62511 26.4655V24.2493ZM4.6309 40.0752C4.52656 40.1038 4.41708 40.1081 4.31082 40.0878C4.20456 40.0676 4.10433 40.0234 4.01777 39.9585C3.93188 39.8949 3.86209 39.812 3.81398 39.7165C3.76588 39.621 3.74079 39.5156 3.74074 39.4087V32.7402L19.367 36.0534L4.6309 40.0752ZM41.2876 39.5451C41.2878 39.6535 41.263 39.7605 41.215 39.8577C41.167 39.9549 41.0972 40.0397 41.011 40.1055C40.9248 40.1712 40.8246 40.2162 40.7182 40.2368C40.6117 40.2574 40.502 40.2531 40.3975 40.2243L25.4912 36.0871L41.2876 32.7487V39.5451ZM43.5939 30.2484C43.5931 30.4102 43.5369 30.567 43.4345 30.6924C43.3321 30.8178 43.1898 30.9043 43.0314 30.9374L23.6111 35.0479L22.6661 35.2476L22.645 35.2391L3.67183 31.2848L1.96886 30.9234C1.81041 30.8902 1.66812 30.8037 1.56575 30.6783C1.46338 30.5529 1.40712 30.3962 1.40636 30.2343V9.05617C1.4046 8.95018 1.42788 8.84527 1.47431 8.74997C1.52074 8.65467 1.589 8.57168 1.67355 8.50773C1.79449 8.40361 1.94997 8.34844 2.10949 8.35304C2.16143 8.35133 2.21339 8.35606 2.26418 8.36711L4.21886 8.78898V26.4669C4.22674 26.5345 4.238 26.6016 4.25261 26.668C4.28816 27.0915 4.45328 27.4938 4.72552 27.8201C4.99777 28.1465 5.36392 28.3811 5.77418 28.492C5.79668 28.499 5.81355 28.513 5.83605 28.5201L6.66855 28.7184L22.3314 32.4843C22.3821 32.4954 22.4341 32.5001 22.4861 32.4984H22.5142C22.5661 32.5001 22.6181 32.4954 22.6689 32.4843L38.3317 28.7184L39.1642 28.5187C39.1881 28.513 39.2064 28.4976 39.2303 28.4905C39.6328 28.3805 39.9926 28.151 40.2622 27.8325C40.5318 27.5139 40.6986 27.1212 40.7406 26.706C40.7589 26.6272 40.7725 26.5474 40.7814 26.4669V8.78898L42.7361 8.36711C42.839 8.34547 42.9456 8.34695 43.0479 8.37144C43.1503 8.39593 43.2459 8.44281 43.328 8.50872C43.41 8.57463 43.4764 8.65792 43.5224 8.75258C43.5684 8.84725 43.5928 8.95093 43.5939 9.05617V30.2484ZM26.4432 19.5018C26.5001 19.5018 26.5567 19.4952 26.612 19.4821L36.3812 17.0395C36.5583 16.9909 36.7094 16.8749 36.8022 16.7164C36.8949 16.5579 36.9219 16.3694 36.8775 16.1912C36.833 16.013 36.7206 15.8592 36.5643 15.7628C36.4079 15.6665 36.2201 15.6351 36.0409 15.6754L26.2731 18.1166C26.1068 18.1583 25.9615 18.2592 25.8645 18.4005C25.7674 18.5417 25.7253 18.7136 25.746 18.8837C25.7668 19.0538 25.8489 19.2105 25.977 19.3243C26.1052 19.4382 26.2705 19.5013 26.4418 19.5018H26.4432ZM26.4432 15.283C26.5001 15.2831 26.5567 15.2765 26.612 15.2634L36.3812 12.8207C36.5583 12.7721 36.7094 12.6562 36.8022 12.4977C36.8949 12.3391 36.9219 12.1506 36.8775 11.9724C36.833 11.7942 36.7206 11.6405 36.5643 11.5441C36.4079 11.4477 36.2201 11.4163 36.0409 11.4566L26.2731 13.8979C26.1068 13.9395 25.9615 14.0405 25.8645 14.1817C25.7674 14.323 25.7253 14.4948 25.746 14.665C25.7668 14.8351 25.8489 14.9918 25.977 15.1056C26.1052 15.2194 26.2705 15.2825 26.4418 15.283H26.4432ZM26.4432 11.0643C26.5001 11.0643 26.5567 11.0577 26.612 11.0446L36.3812 8.60195C36.5583 8.55338 36.7094 8.43743 36.8022 8.2789C36.8949 8.12038 36.9219 7.93186 36.8775 7.75366C36.833 7.57546 36.7206 7.42173 36.5643 7.32534C36.4079 7.22896 36.2201 7.19757 36.0409 7.23789L26.2731 9.67914C26.1068 9.7208 25.9615 9.82174 25.8645 9.96299C25.7674 10.1042 25.7253 10.2761 25.746 10.4462C25.7668 10.6163 25.8489 10.773 25.977 10.8868C26.1052 11.0007 26.2705 11.0638 26.4418 11.0643H26.4432ZM26.4432 23.7205C26.5001 23.7206 26.5567 23.714 26.612 23.7009L36.3812 21.2582C36.5583 21.2096 36.7094 21.0937 36.8022 20.9352C36.8949 20.7766 36.9219 20.5881 36.8775 20.4099C36.833 20.2317 36.7206 20.078 36.5643 19.9816C36.4079 19.8852 36.2201 19.8538 36.0409 19.8941L26.2731 22.3354C26.1068 22.3771 25.9615 22.478 25.8645 22.6192C25.7674 22.7605 25.7253 22.9323 25.746 23.1025C25.7668 23.2726 25.8489 23.4293 25.977 23.5431C26.1052 23.6569 26.2705 23.72 26.4418 23.7205H26.4432ZM18.1 18.1166L8.33215 15.674C8.15107 15.6289 7.95949 15.6575 7.79954 15.7536C7.72034 15.8012 7.6513 15.864 7.59634 15.9382C7.54139 16.0125 7.5016 16.0969 7.47926 16.1866C7.45691 16.2762 7.45244 16.3694 7.46611 16.4608C7.47978 16.5522 7.51131 16.64 7.5589 16.7192C7.65503 16.8791 7.81076 16.9943 7.99183 17.0395L17.7596 19.4821C17.8154 19.4953 17.8725 19.5019 17.9298 19.5018C18.1013 19.5016 18.2668 19.4387 18.3952 19.325C18.5236 19.2113 18.606 19.0546 18.6269 18.8844C18.6478 18.7142 18.6058 18.5422 18.5087 18.4008C18.4117 18.2594 18.2663 18.1583 18.1 18.1166ZM18.1 13.8979L8.33215 11.4552C8.15107 11.4101 7.95949 11.4388 7.79954 11.5349C7.72034 11.5825 7.6513 11.6452 7.59634 11.7195C7.54139 11.7938 7.5016 11.8782 7.47926 11.9678C7.45691 12.0575 7.45244 12.1506 7.46611 12.242C7.47978 12.3334 7.51131 12.4212 7.5589 12.5004C7.65503 12.6604 7.81076 12.7756 7.99183 12.8207L17.7596 15.2634C17.8154 15.2766 17.8725 15.2832 17.9298 15.283C18.1013 15.2829 18.2668 15.22 18.3952 15.1063C18.5236 14.9926 18.606 14.8359 18.6269 14.6657C18.6478 14.4954 18.6058 14.3234 18.5087 14.182C18.4117 14.0406 18.2663 13.9396 18.1 13.8979ZM18.1 9.67914L8.33215 7.23648C8.24249 7.21414 8.14931 7.20967 8.05792 7.22334C7.96654 7.237 7.87874 7.26853 7.79954 7.31613C7.63959 7.41226 7.52438 7.56799 7.47926 7.74906C7.43413 7.93013 7.46278 8.12172 7.5589 8.28166C7.65503 8.44161 7.81076 8.55682 7.99183 8.60195L17.7596 11.0446C17.8154 11.0578 17.8725 11.0644 17.9298 11.0643C18.1013 11.0641 18.2668 11.0012 18.3952 10.8875C18.5236 10.7738 18.606 10.6171 18.6269 10.4469C18.6478 10.2767 18.6058 10.1047 18.5087 9.96328C18.4117 9.82188 18.2663 9.72083 18.1 9.67914ZM18.1 22.3354L8.33215 19.8927C8.15107 19.8476 7.95949 19.8763 7.79954 19.9724C7.63959 20.0685 7.52438 20.2242 7.47926 20.4053C7.43413 20.5864 7.46278 20.778 7.5589 20.9379C7.65503 21.0979 7.81076 21.2131 7.99183 21.2582L17.7596 23.7009C17.8154 23.7141 17.8725 23.7207 17.9298 23.7205C18.1013 23.7204 18.2668 23.6575 18.3952 23.5438C18.5236 23.4301 18.606 23.2734 18.6269 23.1031C18.6478 22.9329 18.6058 22.7609 18.5087 22.6195C18.4117 22.4781 18.2663 22.3771 18.1 22.3354Z" fill="#006CEA"/>
</g>
<defs>
<clipPath id="clip0_1047_3091">
<rect width="45" height="45" fill="white"/>
</clipPath>
</defs>
</svg>
